<?xml version="1.0" encoding="UTF-8" standalone="no"?>
<!DOCTYPE svg PUBLIC "-//W3C//DTD SVG 1.1//EN" "http://www.w3.org/Graphics/SVG/1.1/DTD/svg11.dtd">
<svg version="1.1" xmlns="http://www.w3.org/2000/svg" xmlns:xlink="http://www.w3.org/1999/xlink" preserveAspectRatio="xMidYMid meet" viewBox="0 0 440 640" width="440" height="640"><defs><path d="M-162.63 -29.25C-162.63 -29.25 -162.63 -29.25 -162.63 -29.25C-182.95 -29.25 -194.24 -29.25 -196.5 -29.25C-196.5 -29.25 -196.5 -29.25 -196.5 -29.25C-196.5 -45.6 -196.5 -54.68 -196.5 -56.5C-196.5 -56.5 -196.5 -56.5 -196.5 -56.5C-176.18 -56.5 -164.89 -56.5 -162.63 -56.5C-162.63 -56.5 -162.63 -56.5 -162.63 -56.5C-162.63 -40.15 -162.63 -31.07 -162.63 -29.25Z" id="a4aQzbcEB"></path><path d="M-162.63 -29.25C-162.63 -29.25 -162.63 -29.25 -162.63 -29.25C-182.95 -29.25 -194.24 -29.25 -196.5 -29.25C-196.5 -29.25 -196.5 -29.25 -196.5 -29.25C-196.5 -45.6 -196.5 -54.68 -196.5 -56.5C-196.5 -56.5 -196.5 -56.5 -196.5 -56.5C-176.18 -56.5 -164.89 -56.5 -162.63 -56.5C-162.63 -56.5 -162.63 -56.5 -162.63 -56.5C-162.63 -40.15 -162.63 -31.07 -162.63 -29.25Z" id="a1G9aorPX7"></path><path d="M-162.63 -29.25C-162.63 -29.25 -162.63 -29.25 -162.63 -29.25C-182.95 -29.25 -194.24 -29.25 -196.5 -29.25C-196.5 -29.25 -196.5 -29.25 -196.5 -29.25C-196.5 -45.6 -196.5 -54.68 -196.5 -56.5C-196.5 -56.5 -196.5 -56.5 -196.5 -56.5C-176.18 -56.5 -164.89 -56.5 -162.63 -56.5C-162.63 -56.5 -162.63 -56.5 -162.63 -56.5C-162.63 -40.15 -162.63 -31.07 -162.63 -29.25Z" id="e1bMq61IYG"></path><path d="M-162.63 -29.25C-162.63 -29.25 -162.63 -29.25 -162.63 -29.25C-182.95 -29.25 -194.24 -29.25 -196.5 -29.25C-196.5 -29.25 -196.5 -29.25 -196.5 -29.25C-196.5 -45.6 -196.5 -54.68 -196.5 -56.5C-196.5 -56.5 -196.5 -56.5 -196.5 -56.5C-176.18 -56.5 -164.89 -56.5 -162.63 -56.5C-162.63 -56.5 -162.63 -56.5 -162.63 -56.5C-162.63 -40.15 -162.63 -31.07 -162.63 -29.25Z" id="a2fWdpVLdn"></path><path d="M-175.5 -28.22C-175.5 -28.22 -175.5 -28.22 -175.5 -28.22C-188.1 -28.22 -195.1 -28.22 -196.5 -28.22C-196.5 -28.22 -196.5 -28.22 -196.5 -28.22C-196.5 -45.19 -196.5 -54.61 -196.5 -56.5C-196.5 -56.5 -196.5 -56.5 -196.5 -56.5C-183.9 -56.5 -176.9 -56.5 -175.5 -56.5C-175.5 -56.5 -175.5 -56.5 -175.5 -56.5C-175.5 -39.53 -175.5 -30.1 -175.5 -28.22Z" id="a6LNlg1MEc"></path><path d="M-175.5 -28.22C-175.5 -28.22 -175.5 -28.22 -175.5 -28.22C-188.1 -28.22 -195.1 -28.22 -196.5 -28.22C-196.5 -28.22 -196.5 -28.22 -196.5 -28.22C-196.5 -45.19 -196.5 -54.61 -196.5 -56.5C-196.5 -56.5 -196.5 -56.5 -196.5 -56.5C-183.9 -56.5 -176.9 -56.5 -175.5 -56.5C-175.5 -56.5 -175.5 -56.5 -175.5 -56.5C-175.5 -39.53 -175.5 -30.1 -175.5 -28.22Z" id="bFAa5EQ0T"></path><path d="M-175.5 -28.22C-175.5 -28.22 -175.5 -28.22 -175.5 -28.22C-188.1 -28.22 -195.1 -28.22 -196.5 -28.22C-196.5 -28.22 -196.5 -28.22 -196.5 -28.22C-196.5 -45.19 -196.5 -54.61 -196.5 -56.5C-196.5 -56.5 -196.5 -56.5 -196.5 -56.5C-183.9 -56.5 -176.9 -56.5 -175.5 -56.5C-175.5 -56.5 -175.5 -56.5 -175.5 -56.5C-175.5 -39.53 -175.5 -30.1 -175.5 -28.22Z" id="d4wm1ED9a0"></path><path d="M-175.5 -28.22C-175.5 -28.22 -175.5 -28.22 -175.5 -28.22C-188.1 -28.22 -195.1 -28.22 -196.5 -28.22C-196.5 -28.22 -196.5 -28.22 -196.5 -28.22C-196.5 -45.19 -196.5 -54.61 -196.5 -56.5C-196.5 -56.5 -196.5 -56.5 -196.5 -56.5C-183.9 -56.5 -176.9 -56.5 -175.5 -56.5C-175.5 -56.5 -175.5 -56.5 -175.5 -56.5C-175.5 -39.53 -175.5 -30.1 -175.5 -28.22Z" id="cqlqhDQqo"></path><path d="M-162.63 -29.25C-182.95 -29.25 -194.24 -29.25 -196.5 -29.25C-196.5 -29.25 -196.5 -29.25 -196.5 -29.25C-196.5 -45.6 -196.5 -54.68 -196.5 -56.5C-196.5 -56.5 -196.5 -56.5 -196.5 -56.5C-176.18 -56.5 -164.89 -56.5 -162.63 -56.5C-162.63 -56.5 -162.63 -56.5 -162.63 -56.5C-162.63 -40.15 -162.63 -31.07 -162.63 -29.25C-162.63 -29.25 -162.63 -29.25 -162.63 -29.25Z" id="b3gq666W6"></path><path d="M-162.63 -29.25C-182.95 -29.25 -194.24 -29.25 -196.5 -29.25C-196.5 -29.25 -196.5 -29.25 -196.5 -29.25C-196.5 -45.6 -196.5 -54.68 -196.5 -56.5C-196.5 -56.5 -196.5 -56.5 -196.5 -56.5C-176.18 -56.5 -164.89 -56.5 -162.63 -56.5C-162.63 -56.5 -162.63 -56.5 -162.63 -56.5C-162.63 -40.15 -162.63 -31.07 -162.63 -29.25C-162.63 -29.25 -162.63 -29.25 -162.63 -29.25Z" id="agsnB9Rvc"></path><path d="M-162.63 -29.25C-182.95 -29.25 -194.24 -29.25 -196.5 -29.25C-196.5 -29.25 -196.5 -29.25 -196.5 -29.25C-196.5 -45.6 -196.5 -54.68 -196.5 -56.5C-196.5 -56.5 -196.5 -56.5 -196.5 -56.5C-176.18 -56.5 -164.89 -56.5 -162.63 -56.5C-162.63 -56.5 -162.63 -56.5 -162.63 -56.5C-162.63 -40.15 -162.63 -31.07 -162.63 -29.25C-162.63 -29.25 -162.63 -29.25 -162.63 -29.25Z" id="bgyz6Ij6f"></path><path d="M-162.63 -29.25C-182.95 -29.25 -194.24 -29.25 -196.5 -29.25C-196.5 -29.25 -196.5 -29.25 -196.5 -29.25C-196.5 -45.6 -196.5 -54.68 -196.5 -56.5C-196.5 -56.5 -196.5 -56.5 -196.5 -56.5C-176.18 -56.5 -164.89 -56.5 -162.63 -56.5C-162.63 -56.5 -162.63 -56.5 -162.63 -56.5C-162.63 -40.15 -162.63 -31.07 -162.63 -29.25C-162.63 -29.25 -162.63 -29.25 -162.63 -29.25Z" id="a2ovX7IYpE"></path><path d="M-162.63 -29.25C-182.95 -29.25 -194.24 -29.25 -196.5 -29.25C-196.5 -29.25 -196.5 -29.25 -196.5 -29.25C-196.5 -45.6 -196.5 -54.68 -196.5 -56.5C-196.5 -56.5 -196.5 -56.5 -196.5 -56.5C-176.18 -56.5 -164.89 -56.5 -162.63 -56.5C-162.63 -56.5 -162.63 -56.5 -162.63 -56.5C-162.63 -40.15 -162.63 -31.07 -162.63 -29.25C-162.63 -29.25 -162.63 -29.25 -162.63 -29.25Z" id="f1BlSkrvhw"></path><path d="M-162.63 -29.25C-182.95 -29.25 -194.24 -29.25 -196.5 -29.25C-196.5 -29.25 -196.5 -29.25 -196.5 -29.25C-196.5 -45.6 -196.5 -54.68 -196.5 -56.5C-196.5 -56.5 -196.5 -56.5 -196.5 -56.5C-176.18 -56.5 -164.89 -56.5 -162.63 -56.5C-162.63 -56.5 -162.63 -56.5 -162.63 -56.5C-162.63 -40.15 -162.63 -31.07 -162.63 -29.25C-162.63 -29.25 -162.63 -29.25 -162.63 -29.25Z" id="a24uEddGZL"></path><path d="M-162.63 -29.25C-182.95 -29.25 -194.24 -29.25 -196.5 -29.25C-196.5 -29.25 -196.5 -29.25 -196.5 -29.25C-196.5 -45.6 -196.5 -54.68 -196.5 -56.5C-196.5 -56.5 -196.5 -56.5 -196.5 -56.5C-176.18 -56.5 -164.89 -56.5 -162.63 -56.5C-162.63 -56.5 -162.63 -56.5 -162.63 -56.5C-162.63 -40.15 -162.63 -31.07 -162.63 -29.25C-162.63 -29.25 -162.63 -29.25 -162.63 -29.25Z" id="b7EHGaKMO"></path><path d="M-162.63 -29.25C-182.95 -29.25 -194.24 -29.25 -196.5 -29.25C-196.5 -29.25 -196.5 -29.25 -196.5 -29.25C-196.5 -45.6 -196.5 -54.68 -196.5 -56.5C-196.5 -56.5 -196.5 -56.5 -196.5 -56.5C-176.18 -56.5 -164.89 -56.5 -162.63 -56.5C-162.63 -56.5 -162.63 -56.5 -162.63 -56.5C-162.63 -40.15 -162.63 -31.07 -162.63 -29.25C-162.63 -29.25 -162.63 -29.25 -162.63 -29.25Z" id="a9PLhgt6D"></path><path d="M-171.1 -35.5C-171.1 -35.5 -171.1 -35.5 -171.1 -35.5C-186.34 -35.5 -194.81 -35.5 -196.5 -35.5C-196.5 -35.5 -196.5 -35.5 -196.5 -35.5C-196.5 -48.1 -196.5 -55.1 -196.5 -56.5C-196.5 -56.5 -196.5 -56.5 -196.5 -56.5C-181.26 -56.5 -172.8 -56.5 -171.1 -56.5C-171.1 -56.5 -171.1 -56.5 -171.1 -56.5C-171.1 -43.9 -171.1 -36.9 -171.1 -35.5Z" id="b2g83F0CU5"></path><path d="M-171.1 -35.5C-171.1 -35.5 -171.1 -35.5 -171.1 -35.5C-186.34 -35.5 -194.81 -35.5 -196.5 -35.5C-196.5 -35.5 -196.5 -35.5 -196.5 -35.5C-196.5 -48.1 -196.5 -55.1 -196.5 -56.5C-196.5 -56.5 -196.5 -56.5 -196.5 -56.5C-181.26 -56.5 -172.8 -56.5 -171.1 -56.5C-171.1 -56.5 -171.1 -56.5 -171.1 -56.5C-171.1 -43.9 -171.1 -36.9 -171.1 -35.5Z" id="byHfnnndp"></path><path d="M-171.1 -35.5C-171.1 -35.5 -171.1 -35.5 -171.1 -35.5C-186.34 -35.5 -194.81 -35.5 -196.5 -35.5C-196.5 -35.5 -196.5 -35.5 -196.5 -35.5C-196.5 -48.1 -196.5 -55.1 -196.5 -56.5C-196.5 -56.5 -196.5 -56.5 -196.5 -56.5C-181.26 -56.5 -172.8 -56.5 -171.1 -56.5C-171.1 -56.5 -171.1 -56.5 -171.1 -56.5C-171.1 -43.9 -171.1 -36.9 -171.1 -35.5Z" id="b2pCuWk5V6"></path><path d="M-171.1 -35.5C-171.1 -35.5 -171.1 -35.5 -171.1 -35.5C-186.34 -35.5 -194.81 -35.5 -196.5 -35.5C-196.5 -35.5 -196.5 -35.5 -196.5 -35.5C-196.5 -48.1 -196.5 -55.1 -196.5 -56.5C-196.5 -56.5 -196.5 -56.5 -196.5 -56.5C-181.26 -56.5 -172.8 -56.5 -171.1 -56.5C-171.1 -56.5 -171.1 -56.5 -171.1 -56.5C-171.1 -43.9 -171.1 -36.9 -171.1 -35.5Z" id="e1UPYWcxkb"></path><path d="M157.5 660C170 660 270 660 282.5 660C282.5 577.2 282.5 531.2 282.5 522C301.25 534 320 540 345 540C413.75 540 470 486 470 420C470 354 413.75 300 345 300C338.75 300 332.5 300 326.25 300C338.75 282 345 264 345 240C345 174 288.75 120 220 120C151.25 120 95 174 95 240C95 264 101.25 282 113.75 300C107.5 300 101.25 300 95 300C26.25 300 -30 354 -30 420C-30 486 26.25 540 95 540C120 540 138.75 534 157.5 522C157.5 531.2 157.5 577.2 157.5 660Z" id="a1lJ00Dod"></path><path d="M157.5 660C170 660 270 660 282.5 660C282.5 577.2 282.5 531.2 282.5 522C301.25 534 320 540 345 540C413.75 540 470 486 470 420C470 354 413.75 300 345 300C338.75 300 332.5 300 326.25 300C338.75 282 345 264 345 240C345 174 288.75 120 220 120C151.25 120 95 174 95 240C95 264 101.25 282 113.75 300C107.5 300 101.25 300 95 300C26.25 300 -30 354 -30 420C-30 486 26.25 540 95 540C120 540 138.75 534 157.5 522C157.5 531.2 157.5 577.2 157.5 660Z" id="c1bk1prkEs"></path><path d="M43.13 84.8C44.63 84.8 56.63 84.8 58.13 84.8C58.13 74.86 58.13 69.34 58.13 68.24C60.38 69.68 62.63 70.4 65.63 70.4C73.87 70.4 80.63 63.92 80.63 56C80.63 48.08 73.88 41.6 65.63 41.6C64.88 41.6 64.13 41.6 63.38 41.6C64.88 39.44 65.63 37.28 65.63 34.4C65.63 26.48 58.88 20 50.63 20C42.37 20 35.63 26.48 35.63 34.4C35.63 37.28 36.37 39.44 37.87 41.6C37.12 41.6 36.37 41.6 35.63 41.6C27.38 41.6 20.63 48.08 20.63 56C20.63 63.92 27.37 70.4 35.63 70.4C38.63 70.4 40.88 69.68 43.13 68.24C43.13 69.34 43.13 74.86 43.13 84.8Z" id="f2iAvDVAwg"></path><path d="M43.13 84.8C44.63 84.8 56.63 84.8 58.13 84.8C58.13 74.86 58.13 69.34 58.13 68.24C60.38 69.68 62.63 70.4 65.63 70.4C73.87 70.4 80.63 63.92 80.63 56C80.63 48.08 73.88 41.6 65.63 41.6C64.88 41.6 64.13 41.6 63.38 41.6C64.88 39.44 65.63 37.28 65.63 34.4C65.63 26.48 58.88 20 50.63 20C42.37 20 35.63 26.48 35.63 34.4C35.63 37.28 36.37 39.44 37.87 41.6C37.12 41.6 36.37 41.6 35.63 41.6C27.38 41.6 20.63 48.08 20.63 56C20.63 63.92 27.37 70.4 35.63 70.4C38.63 70.4 40.88 69.68 43.13 68.24C43.13 69.34 43.13 74.86 43.13 84.8Z" id="c2Ke7v4KNY"></path><path d="M412.5 111.15C412.5 210.92 412.5 429.08 412.5 528.85C412.5 573.67 376.43 610 331.94 610C271.51 610 170.79 610 110.36 610C65.86 610 29.79 573.67 29.79 528.85C29.79 429.08 29.79 210.92 29.79 111.15C29.79 66.33 65.86 30 110.36 30C170.79 30 271.51 30 331.94 30C376.43 30 412.5 66.33 412.5 111.15Z" id="c3yGOiTCUY"></path><path d="M0 0L440 0L440 1.88L0 1.88L0 0Z" id="a2rTbeqAG6"></path><path d="M440 0L440 640L438.17 640L438.17 0L440 0Z" id="b88GAk8Zp"></path><path d="M1.83 0L1.83 640L0 640L0 0L1.83 0Z" id="b1RdvdHFb"></path><path d="M0 638.13L440 638.13L440 640L0 640L0 638.13Z" id="k6Q2fWN8CX"></path></defs><g><g><g><use xlink:href="#a4aQzbcEB" opacity="1" fill="#000000" fill-opacity="0"></use><g><use xlink:href="#a4aQzbcEB" opacity="1" fill-opacity="0" stroke="#000000" stroke-width="1" stroke-opacity="0"></use></g></g><g><use xlink:href="#a1G9aorPX7" opacity="1" fill="#000000" fill-opacity="0"></use><g><use xlink:href="#a1G9aorPX7" opacity="1" fill-opacity="0" stroke="#000000" stroke-width="1" stroke-opacity="0"></use></g></g><g><use xlink:href="#e1bMq61IYG" opacity="1" fill="#000000" fill-opacity="0"></use><g><use xlink:href="#e1bMq61IYG" opacity="1" fill-opacity="0" stroke="#000000" stroke-width="1" stroke-opacity="0"></use></g></g><g><use xlink:href="#a2fWdpVLdn" opacity="1" fill="#000000" fill-opacity="0"></use><g><use xlink:href="#a2fWdpVLdn" opacity="1" fill-opacity="0" stroke="#000000" stroke-width="1" stroke-opacity="0"></use></g></g><g><use xlink:href="#a6LNlg1MEc" opacity="1" fill="#000000" fill-opacity="0"></use><g><use xlink:href="#a6LNlg1MEc" opacity="1" fill-opacity="0" stroke="#000000" stroke-width="1" stroke-opacity="0"></use></g></g><g><use xlink:href="#bFAa5EQ0T" opacity="1" fill="#000000" fill-opacity="0"></use><g><use xlink:href="#bFAa5EQ0T" opacity="1" fill-opacity="0" stroke="#000000" stroke-width="1" stroke-opacity="0"></use></g></g><g><use xlink:href="#d4wm1ED9a0" opacity="1" fill="#000000" fill-opacity="0"></use><g><use xlink:href="#d4wm1ED9a0" opacity="1" fill-opacity="0" stroke="#000000" stroke-width="1" stroke-opacity="0"></use></g></g><g><use xlink:href="#cqlqhDQqo" opacity="1" fill="#000000" fill-opacity="0"></use><g><use xlink:href="#cqlqhDQqo" opacity="1" fill-opacity="0" stroke="#000000" stroke-width="1" stroke-opacity="0"></use></g></g><g><use xlink:href="#b3gq666W6" opacity="1" fill="#000000" fill-opacity="0"></use><g><use xlink:href="#b3gq666W6" opacity="1" fill-opacity="0" stroke="#000000" stroke-width="1" stroke-opacity="0"></use></g></g><g><use xlink:href="#agsnB9Rvc" opacity="1" fill="#000000" fill-opacity="0"></use><g><use xlink:href="#agsnB9Rvc" opacity="1" fill-opacity="0" stroke="#000000" stroke-width="1" stroke-opacity="0"></use></g></g><g><use xlink:href="#bgyz6Ij6f" opacity="1" fill="#000000" fill-opacity="0"></use><g><use xlink:href="#bgyz6Ij6f" opacity="1" fill-opacity="0" stroke="#000000" stroke-width="1" stroke-opacity="0"></use></g></g><g><use xlink:href="#a2ovX7IYpE" opacity="1" fill="#000000" fill-opacity="0"></use><g><use xlink:href="#a2ovX7IYpE" opacity="1" fill-opacity="0" stroke="#000000" stroke-width="1" stroke-opacity="0"></use></g></g><g><use xlink:href="#f1BlSkrvhw" opacity="1" fill="#000000" fill-opacity="0"></use><g><use xlink:href="#f1BlSkrvhw" opacity="1" fill-opacity="0" stroke="#000000" stroke-width="1" stroke-opacity="0"></use></g></g><g><use xlink:href="#a24uEddGZL" opacity="1" fill="#000000" fill-opacity="0"></use><g><use xlink:href="#a24uEddGZL" opacity="1" fill-opacity="0" stroke="#000000" stroke-width="1" stroke-opacity="0"></use></g></g><g><use xlink:href="#b7EHGaKMO" opacity="1" fill="#000000" fill-opacity="0"></use><g><use xlink:href="#b7EHGaKMO" opacity="1" fill-opacity="0" stroke="#000000" stroke-width="1" stroke-opacity="0"></use></g></g><g><use xlink:href="#a9PLhgt6D" opacity="1" fill="#000000" fill-opacity="0"></use><g><use xlink:href="#a9PLhgt6D" opacity="1" fill-opacity="0" stroke="#000000" stroke-width="1" stroke-opacity="0"></use></g></g><g><use xlink:href="#b2g83F0CU5" opacity="1" fill="#000000" fill-opacity="0"></use><g><use xlink:href="#b2g83F0CU5" opacity="1" fill-opacity="0" stroke="#000000" stroke-width="1" stroke-opacity="0"></use></g></g><g><use xlink:href="#byHfnnndp" opacity="1" fill="#000000" fill-opacity="0"></use><g><use xlink:href="#byHfnnndp" opacity="1" fill-opacity="0" stroke="#000000" stroke-width="1" stroke-opacity="0"></use></g></g><g><use xlink:href="#b2pCuWk5V6" opacity="1" fill="#000000" fill-opacity="0"></use><g><use xlink:href="#b2pCuWk5V6" opacity="1" fill-opacity="0" stroke="#000000" stroke-width="1" stroke-opacity="0"></use></g></g><g><use xlink:href="#e1UPYWcxkb" opacity="1" fill="#000000" fill-opacity="0"></use><g><use xlink:href="#e1UPYWcxkb" opacity="1" fill-opacity="0" stroke="#000000" stroke-width="1" stroke-opacity="0"></use></g></g><g><g><filter id="shadow7714216" x="-42" y="108" width="524" height="564" filterUnits="userSpaceOnUse" primitiveUnits="userSpaceOnUse"><feFlood></feFlood><feComposite in2="SourceAlpha" operator="in"></feComposite><feGaussianBlur stdDeviation="1.73"></feGaussianBlur><feOffset dx="0" dy="0" result="afterOffset"></feOffset><feFlood flood-color="#000000" flood-opacity="0.5"></feFlood><feComposite in2="afterOffset" operator="in"></feComposite><feMorphology operator="dilate" radius="1"></feMorphology><feComposite in2="SourceAlpha" operator="out"></feComposite></filter><path d="M157.5 660C170 660 270 660 282.5 660C282.5 577.2 282.5 531.2 282.5 522C301.25 534 320 540 345 540C413.75 540 470 486 470 420C470 354 413.75 300 345 300C338.75 300 332.5 300 326.25 300C338.75 282 345 264 345 240C345 174 288.75 120 220 120C151.25 120 95 174 95 240C95 264 101.25 282 113.75 300C107.5 300 101.25 300 95 300C26.25 300 -30 354 -30 420C-30 486 26.25 540 95 540C120 540 138.75 534 157.5 522C157.5 531.2 157.5 577.2 157.5 660Z" id="clAri5u6f" fill="white" fill-opacity="1" filter="url(#shadow7714216)"></path></g><use xlink:href="#a1lJ00Dod" opacity="1" fill="#000000" fill-opacity="1"></use><g><use xlink:href="#a1lJ00Dod" opacity="1" fill-opacity="0" stroke="#000000" stroke-width="1" stroke-opacity="0"></use></g></g><g><g><filter id="shadow10116317" x="-42" y="108" width="524" height="564" filterUnits="userSpaceOnUse" primitiveUnits="userSpaceOnUse"><feFlood></feFlood><feComposite in2="SourceAlpha" operator="in"></feComposite><feGaussianBlur stdDeviation="1.73"></feGaussianBlur><feOffset dx="0" dy="0" result="afterOffset"></feOffset><feFlood flood-color="#000000" flood-opacity="0.5"></feFlood><feComposite in2="afterOffset" operator="in"></feComposite><feMorphology operator="dilate" radius="1"></feMorphology><feComposite in2="SourceAlpha" operator="out"></feComposite></filter><path d="M157.5 660C170 660 270 660 282.5 660C282.5 577.2 282.5 531.2 282.5 522C301.25 534 320 540 345 540C413.75 540 470 486 470 420C470 354 413.75 300 345 300C338.75 300 332.5 300 326.25 300C338.75 282 345 264 345 240C345 174 288.75 120 220 120C151.25 120 95 174 95 240C95 264 101.25 282 113.75 300C107.5 300 101.25 300 95 300C26.25 300 -30 354 -30 420C-30 486 26.25 540 95 540C120 540 138.75 534 157.5 522C157.5 531.2 157.5 577.2 157.5 660Z" id="jzKAMQZC2" fill="white" fill-opacity="1" filter="url(#shadow10116317)"></path></g><use xlink:href="#c1bk1prkEs" opacity="1" fill="#000000" fill-opacity="0"></use><g><use xlink:href="#c1bk1prkEs" opacity="1" fill-opacity="0" stroke="#000000" stroke-width="1" stroke-opacity="1"></use></g></g><g><g><filter id="shadow13137823" x="8.63" y="8" width="84" height="88.8" filterUnits="userSpaceOnUse" primitiveUnits="userSpaceOnUse"><feFlood></feFlood><feComposite in2="SourceAlpha" operator="in"></feComposite><feGaussianBlur stdDeviation="1.73"></feGaussianBlur><feOffset dx="0" dy="0" result="afterOffset"></feOffset><feFlood flood-color="#000000" flood-opacity="0.5"></feFlood><feComposite in2="afterOffset" operator="in"></feComposite><feMorphology operator="dilate" radius="1"></feMorphology><feComposite in2="SourceAlpha" operator="out"></feComposite></filter><path d="M43.13 84.8C44.63 84.8 56.63 84.8 58.13 84.8C58.13 74.86 58.13 69.34 58.13 68.24C60.38 69.68 62.63 70.4 65.63 70.4C73.87 70.4 80.63 63.92 80.63 56C80.63 48.08 73.88 41.6 65.63 41.6C64.88 41.6 64.13 41.6 63.38 41.6C64.88 39.44 65.63 37.28 65.63 34.4C65.63 26.48 58.88 20 50.63 20C42.37 20 35.63 26.48 35.63 34.4C35.63 37.28 36.37 39.44 37.87 41.6C37.12 41.6 36.37 41.6 35.63 41.6C27.38 41.6 20.63 48.08 20.63 56C20.63 63.92 27.37 70.4 35.63 70.4C38.63 70.4 40.88 69.68 43.13 68.24C43.13 69.34 43.13 74.86 43.13 84.8Z" id="j1ODEG5hD" fill="white" fill-opacity="1" filter="url(#shadow13137823)"></path></g><use xlink:href="#f2iAvDVAwg" opacity="1" fill="#000000" fill-opacity="1"></use><g><use xlink:href="#f2iAvDVAwg" opacity="1" fill-opacity="0" stroke="#000000" stroke-width="1" stroke-opacity="0"></use></g></g><g><g><filter id="shadow1995833" x="8.63" y="8" width="84" height="88.8" filterUnits="userSpaceOnUse" primitiveUnits="userSpaceOnUse"><feFlood></feFlood><feComposite in2="SourceAlpha" operator="in"></feComposite><feGaussianBlur stdDeviation="1.73"></feGaussianBlur><feOffset dx="0" dy="0" result="afterOffset"></feOffset><feFlood flood-color="#000000" flood-opacity="0.5"></feFlood><feComposite in2="afterOffset" operator="in"></feComposite><feMorphology operator="dilate" radius="1"></feMorphology><feComposite in2="SourceAlpha" operator="out"></feComposite></filter><path d="M43.13 84.8C44.63 84.8 56.63 84.8 58.13 84.8C58.13 74.86 58.13 69.34 58.13 68.24C60.38 69.68 62.63 70.4 65.63 70.4C73.87 70.4 80.63 63.92 80.63 56C80.63 48.08 73.88 41.6 65.63 41.6C64.88 41.6 64.13 41.6 63.38 41.6C64.88 39.44 65.63 37.28 65.63 34.4C65.63 26.48 58.88 20 50.63 20C42.37 20 35.63 26.48 35.63 34.4C35.63 37.28 36.37 39.44 37.87 41.6C37.12 41.6 36.37 41.6 35.63 41.6C27.38 41.6 20.63 48.08 20.63 56C20.63 63.92 27.37 70.4 35.63 70.4C38.63 70.4 40.88 69.68 43.13 68.24C43.13 69.34 43.13 74.86 43.13 84.8Z" id="c1QuQtEG6y" fill="white" fill-opacity="1" filter="url(#shadow1995833)"></path></g><use xlink:href="#c2Ke7v4KNY" opacity="1" fill="#000000" fill-opacity="0"></use><g><use xlink:href="#c2Ke7v4KNY" opacity="1" fill-opacity="0" stroke="#000000" stroke-width="1" stroke-opacity="1"></use></g></g><g><g><filter id="shadow214527" x="17.79" y="18" width="406.71" height="604" filterUnits="userSpaceOnUse" primitiveUnits="userSpaceOnUse"><feFlood></feFlood><feComposite in2="SourceAlpha" operator="in"></feComposite><feGaussianBlur stdDeviation="1.73"></feGaussianBlur><feOffset dx="0" dy="0" result="afterOffset"></feOffset><feFlood flood-color="#000000" flood-opacity="0.5"></feFlood><feComposite in2="afterOffset" operator="in"></feComposite><feMorphology operator="dilate" radius="1"></feMorphology><feComposite in2="SourceAlpha" operator="out"></feComposite></filter><path d="M412.5 111.15C412.5 210.92 412.5 429.08 412.5 528.85C412.5 573.67 376.43 610 331.94 610C271.51 610 170.79 610 110.36 610C65.86 610 29.79 573.67 29.79 528.85C29.79 429.08 29.79 210.92 29.79 111.15C29.79 66.33 65.86 30 110.36 30C170.79 30 271.51 30 331.94 30C376.43 30 412.5 66.33 412.5 111.15Z" id="c1nd7Vnar2" fill="white" fill-opacity="1" filter="url(#shadow214527)"></path></g><use xlink:href="#c3yGOiTCUY" opacity="1" fill="#000000" fill-opacity="0"></use><g><use xlink:href="#c3yGOiTCUY" opacity="1" fill-opacity="0" stroke="#000000" stroke-width="2" stroke-opacity="1"></use></g><g><filter id="shadow12886973" x="17.79" y="18" width="406.71" height="604" filterUnits="userSpaceOnUse" primitiveUnits="userSpaceOnUse"><feFlood></feFlood><feComposite in2="SourceAlpha" operator="out"></feComposite><feGaussianBlur stdDeviation="1.73"></feGaussianBlur><feOffset dx="0" dy="0" result="afterOffset"></feOffset><feFlood flood-color="#000000" flood-opacity="0.5"></feFlood><feComposite in2="afterOffset" operator="in"></feComposite><feMorphology operator="dilate" radius="1"></feMorphology><feComposite in2="SourceAlpha" operator="in"></feComposite></filter><path d="M412.5 111.15C412.5 210.92 412.5 429.08 412.5 528.85C412.5 573.67 376.43 610 331.94 610C271.51 610 170.79 610 110.36 610C65.86 610 29.79 573.67 29.79 528.85C29.79 429.08 29.79 210.92 29.79 111.15C29.79 66.33 65.86 30 110.36 30C170.79 30 271.51 30 331.94 30C376.43 30 412.5 66.33 412.5 111.15Z" id="e27DJfBmcE" fill="white" fill-opacity="1" filter="url(#shadow12886973)"></path></g></g><g><g><filter id="shadow5546377" x="-12" y="-12" width="464" height="25.88" filterUnits="userSpaceOnUse" primitiveUnits="userSpaceOnUse"><feFlood></feFlood><feComposite in2="SourceAlpha" operator="in"></feComposite><feGaussianBlur stdDeviation="1.73"></feGaussianBlur><feOffset dx="0" dy="0" result="afterOffset"></feOffset><feFlood flood-color="#000000" flood-opacity="0.5"></feFlood><feComposite in2="afterOffset" operator="in"></feComposite><feMorphology operator="dilate" radius="1"></feMorphology><feComposite in2="SourceAlpha" operator="out"></feComposite></filter><path d="M0 0L440 0L440 1.88L0 1.88L0 0Z" id="f1c1T5RRg8" fill="white" fill-opacity="1" filter="url(#shadow5546377)"></path></g><use xlink:href="#a2rTbeqAG6" opacity="1" fill="#000000" fill-opacity="1"></use></g><g><g><filter id="shadow15245678" x="426.17" y="-12" width="25.83" height="664" filterUnits="userSpaceOnUse" primitiveUnits="userSpaceOnUse"><feFlood></feFlood><feComposite in2="SourceAlpha" operator="in"></feComposite><feGaussianBlur stdDeviation="1.73"></feGaussianBlur><feOffset dx="0" dy="0" result="afterOffset"></feOffset><feFlood flood-color="#000000" flood-opacity="0.5"></feFlood><feComposite in2="afterOffset" operator="in"></feComposite><feMorphology operator="dilate" radius="1"></feMorphology><feComposite in2="SourceAlpha" operator="out"></feComposite></filter><path d="M440 0L440 640L438.17 640L438.17 0L440 0Z" id="a88KAtiBNr" fill="white" fill-opacity="1" filter="url(#shadow15245678)"></path></g><use xlink:href="#b88GAk8Zp" opacity="1" fill="#000000" fill-opacity="1"></use></g><g><g><filter id="shadow4610207" x="-12" y="-12" width="25.83" height="664" filterUnits="userSpaceOnUse" primitiveUnits="userSpaceOnUse"><feFlood></feFlood><feComposite in2="SourceAlpha" operator="in"></feComposite><feGaussianBlur stdDeviation="1.73"></feGaussianBlur><feOffset dx="0" dy="0" result="afterOffset"></feOffset><feFlood flood-color="#000000" flood-opacity="0.5"></feFlood><feComposite in2="afterOffset" operator="in"></feComposite><feMorphology operator="dilate" radius="1"></feMorphology><feComposite in2="SourceAlpha" operator="out"></feComposite></filter><path d="M1.83 0L1.83 640L0 640L0 0L1.83 0Z" id="b14jCRkSHB" fill="white" fill-opacity="1" filter="url(#shadow4610207)"></path></g><use xlink:href="#b1RdvdHFb" opacity="1" fill="#000000" fill-opacity="1"></use></g><g><g><filter id="shadow7291685" x="-12" y="626.13" width="464" height="25.88" filterUnits="userSpaceOnUse" primitiveUnits="userSpaceOnUse"><feFlood></feFlood><feComposite in2="SourceAlpha" operator="in"></feComposite><feGaussianBlur stdDeviation="1.73"></feGaussianBlur><feOffset dx="0" dy="0" result="afterOffset"></feOffset><feFlood flood-color="#000000" flood-opacity="0.5"></feFlood><feComposite in2="afterOffset" operator="in"></feComposite><feMorphology operator="dilate" radius="1"></feMorphology><feComposite in2="SourceAlpha" operator="out"></feComposite></filter><path d="M0 638.13L440 638.13L440 640L0 640L0 638.13Z" id="a1GkThVRpw" fill="white" fill-opacity="1" filter="url(#shadow7291685)"></path></g><use xlink:href="#k6Q2fWN8CX" opacity="1" fill="#000000" fill-opacity="1"></use></g></g></g></svg>