<?xml version="1.0" encoding="UTF-8" standalone="no"?>
<!DOCTYPE svg PUBLIC "-//W3C//DTD SVG 1.1//EN" "http://www.w3.org/Graphics/SVG/1.1/DTD/svg11.dtd">
<svg version="1.1" xmlns="http://www.w3.org/2000/svg" xmlns:xlink="http://www.w3.org/1999/xlink" preserveAspectRatio="xMidYMid meet" viewBox="0 0 440 640" width="440" height="640"><defs><path d="M-162.63 -29.25C-182.95 -29.25 -194.24 -29.25 -196.5 -29.25C-196.5 -29.25 -196.5 -29.25 -196.5 -29.25C-196.5 -45.6 -196.5 -54.68 -196.5 -56.5C-196.5 -56.5 -196.5 -56.5 -196.5 -56.5C-176.18 -56.5 -164.89 -56.5 -162.63 -56.5C-162.63 -56.5 -162.63 -56.5 -162.63 -56.5C-162.63 -40.15 -162.63 -31.07 -162.63 -29.25C-162.63 -29.25 -162.63 -29.25 -162.63 -29.25Z" id="crgzotzyF"></path><path d="M-162.63 -29.25C-182.95 -29.25 -194.24 -29.25 -196.5 -29.25C-196.5 -29.25 -196.5 -29.25 -196.5 -29.25C-196.5 -45.6 -196.5 -54.68 -196.5 -56.5C-196.5 -56.5 -196.5 -56.5 -196.5 -56.5C-176.18 -56.5 -164.89 -56.5 -162.63 -56.5C-162.63 -56.5 -162.63 -56.5 -162.63 -56.5C-162.63 -40.15 -162.63 -31.07 -162.63 -29.25C-162.63 -29.25 -162.63 -29.25 -162.63 -29.25Z" id="c11brA5Kyp"></path><path d="M-162.63 -29.25C-182.95 -29.25 -194.24 -29.25 -196.5 -29.25C-196.5 -29.25 -196.5 -29.25 -196.5 -29.25C-196.5 -45.6 -196.5 -54.68 -196.5 -56.5C-196.5 -56.5 -196.5 -56.5 -196.5 -56.5C-176.18 -56.5 -164.89 -56.5 -162.63 -56.5C-162.63 -56.5 -162.63 -56.5 -162.63 -56.5C-162.63 -40.15 -162.63 -31.07 -162.63 -29.25C-162.63 -29.25 -162.63 -29.25 -162.63 -29.25Z" id="b17UnRaZhv"></path><path d="M-162.63 -29.25C-182.95 -29.25 -194.24 -29.25 -196.5 -29.25C-196.5 -29.25 -196.5 -29.25 -196.5 -29.25C-196.5 -45.6 -196.5 -54.68 -196.5 -56.5C-196.5 -56.5 -196.5 -56.5 -196.5 -56.5C-176.18 -56.5 -164.89 -56.5 -162.63 -56.5C-162.63 -56.5 -162.63 -56.5 -162.63 -56.5C-162.63 -40.15 -162.63 -31.07 -162.63 -29.25C-162.63 -29.25 -162.63 -29.25 -162.63 -29.25Z" id="aQWwq81a2"></path><path d="M-162.63 -29.25C-182.95 -29.25 -194.24 -29.25 -196.5 -29.25C-196.5 -29.25 -196.5 -29.25 -196.5 -29.25C-196.5 -45.6 -196.5 -54.68 -196.5 -56.5C-196.5 -56.5 -196.5 -56.5 -196.5 -56.5C-176.18 -56.5 -164.89 -56.5 -162.63 -56.5C-162.63 -56.5 -162.63 -56.5 -162.63 -56.5C-162.63 -40.15 -162.63 -31.07 -162.63 -29.25C-162.63 -29.25 -162.63 -29.25 -162.63 -29.25Z" id="a2k0F5rLjb"></path><path d="M-162.63 -29.25C-182.95 -29.25 -194.24 -29.25 -196.5 -29.25C-196.5 -29.25 -196.5 -29.25 -196.5 -29.25C-196.5 -45.6 -196.5 -54.68 -196.5 -56.5C-196.5 -56.5 -196.5 -56.5 -196.5 -56.5C-176.18 -56.5 -164.89 -56.5 -162.63 -56.5C-162.63 -56.5 -162.63 -56.5 -162.63 -56.5C-162.63 -40.15 -162.63 -31.07 -162.63 -29.25C-162.63 -29.25 -162.63 -29.25 -162.63 -29.25Z" id="b4mMNh4Rz"></path><path d="M-162.63 -29.25C-182.95 -29.25 -194.24 -29.25 -196.5 -29.25C-196.5 -29.25 -196.5 -29.25 -196.5 -29.25C-196.5 -45.6 -196.5 -54.68 -196.5 -56.5C-196.5 -56.5 -196.5 -56.5 -196.5 -56.5C-176.18 -56.5 -164.89 -56.5 -162.63 -56.5C-162.63 -56.5 -162.63 -56.5 -162.63 -56.5C-162.63 -40.15 -162.63 -31.07 -162.63 -29.25C-162.63 -29.25 -162.63 -29.25 -162.63 -29.25Z" id="bejuAd3rh"></path><path d="M-162.63 -29.25C-182.95 -29.25 -194.24 -29.25 -196.5 -29.25C-196.5 -29.25 -196.5 -29.25 -196.5 -29.25C-196.5 -45.6 -196.5 -54.68 -196.5 -56.5C-196.5 -56.5 -196.5 -56.5 -196.5 -56.5C-176.18 -56.5 -164.89 -56.5 -162.63 -56.5C-162.63 -56.5 -162.63 -56.5 -162.63 -56.5C-162.63 -40.15 -162.63 -31.07 -162.63 -29.25C-162.63 -29.25 -162.63 -29.25 -162.63 -29.25Z" id="e4N5FaGGSL"></path><path d="M-175.5 -28.22C-188.1 -28.22 -195.1 -28.22 -196.5 -28.22C-196.5 -28.22 -196.5 -28.22 -196.5 -28.22C-196.5 -45.19 -196.5 -54.61 -196.5 -56.5C-196.5 -56.5 -196.5 -56.5 -196.5 -56.5C-183.9 -56.5 -176.9 -56.5 -175.5 -56.5C-175.5 -56.5 -175.5 -56.5 -175.5 -56.5C-175.5 -39.53 -175.5 -30.1 -175.5 -28.22C-175.5 -28.22 -175.5 -28.22 -175.5 -28.22Z" id="a1flj5WZwW"></path><path d="M-175.5 -28.22C-188.1 -28.22 -195.1 -28.22 -196.5 -28.22C-196.5 -28.22 -196.5 -28.22 -196.5 -28.22C-196.5 -45.19 -196.5 -54.61 -196.5 -56.5C-196.5 -56.5 -196.5 -56.5 -196.5 -56.5C-183.9 -56.5 -176.9 -56.5 -175.5 -56.5C-175.5 -56.5 -175.5 -56.5 -175.5 -56.5C-175.5 -39.53 -175.5 -30.1 -175.5 -28.22C-175.5 -28.22 -175.5 -28.22 -175.5 -28.22Z" id="c2J0I1VM4o"></path><path d="M-175.5 -28.22C-188.1 -28.22 -195.1 -28.22 -196.5 -28.22C-196.5 -28.22 -196.5 -28.22 -196.5 -28.22C-196.5 -45.19 -196.5 -54.61 -196.5 -56.5C-196.5 -56.5 -196.5 -56.5 -196.5 -56.5C-183.9 -56.5 -176.9 -56.5 -175.5 -56.5C-175.5 -56.5 -175.5 -56.5 -175.5 -56.5C-175.5 -39.53 -175.5 -30.1 -175.5 -28.22C-175.5 -28.22 -175.5 -28.22 -175.5 -28.22Z" id="g2dP3J9wah"></path><path d="M-175.5 -28.22C-188.1 -28.22 -195.1 -28.22 -196.5 -28.22C-196.5 -28.22 -196.5 -28.22 -196.5 -28.22C-196.5 -45.19 -196.5 -54.61 -196.5 -56.5C-196.5 -56.5 -196.5 -56.5 -196.5 -56.5C-183.9 -56.5 -176.9 -56.5 -175.5 -56.5C-175.5 -56.5 -175.5 -56.5 -175.5 -56.5C-175.5 -39.53 -175.5 -30.1 -175.5 -28.22C-175.5 -28.22 -175.5 -28.22 -175.5 -28.22Z" id="b2SFtruDqm"></path><path d="M-175.5 -28.22C-188.1 -28.22 -195.1 -28.22 -196.5 -28.22C-196.5 -28.22 -196.5 -28.22 -196.5 -28.22C-196.5 -45.19 -196.5 -54.61 -196.5 -56.5C-196.5 -56.5 -196.5 -56.5 -196.5 -56.5C-183.9 -56.5 -176.9 -56.5 -175.5 -56.5C-175.5 -56.5 -175.5 -56.5 -175.5 -56.5C-175.5 -39.53 -175.5 -30.1 -175.5 -28.22C-175.5 -28.22 -175.5 -28.22 -175.5 -28.22Z" id="d9zYVyn8u"></path><path d="M-175.5 -28.22C-188.1 -28.22 -195.1 -28.22 -196.5 -28.22C-196.5 -28.22 -196.5 -28.22 -196.5 -28.22C-196.5 -45.19 -196.5 -54.61 -196.5 -56.5C-196.5 -56.5 -196.5 -56.5 -196.5 -56.5C-183.9 -56.5 -176.9 -56.5 -175.5 -56.5C-175.5 -56.5 -175.5 -56.5 -175.5 -56.5C-175.5 -39.53 -175.5 -30.1 -175.5 -28.22C-175.5 -28.22 -175.5 -28.22 -175.5 -28.22Z" id="e7pUK6v9TN"></path><path d="M-175.5 -28.22C-188.1 -28.22 -195.1 -28.22 -196.5 -28.22C-196.5 -28.22 -196.5 -28.22 -196.5 -28.22C-196.5 -45.19 -196.5 -54.61 -196.5 -56.5C-196.5 -56.5 -196.5 -56.5 -196.5 -56.5C-183.9 -56.5 -176.9 -56.5 -175.5 -56.5C-175.5 -56.5 -175.5 -56.5 -175.5 -56.5C-175.5 -39.53 -175.5 -30.1 -175.5 -28.22C-175.5 -28.22 -175.5 -28.22 -175.5 -28.22Z" id="bb3lxXSQ7"></path><path d="M-175.5 -28.22C-188.1 -28.22 -195.1 -28.22 -196.5 -28.22C-196.5 -28.22 -196.5 -28.22 -196.5 -28.22C-196.5 -45.19 -196.5 -54.61 -196.5 -56.5C-196.5 -56.5 -196.5 -56.5 -196.5 -56.5C-183.9 -56.5 -176.9 -56.5 -175.5 -56.5C-175.5 -56.5 -175.5 -56.5 -175.5 -56.5C-175.5 -39.53 -175.5 -30.1 -175.5 -28.22C-175.5 -28.22 -175.5 -28.22 -175.5 -28.22Z" id="e2oN2tKVua"></path><path d="M-196.5 -29.25C-196.5 -29.25 -196.5 -29.25 -196.5 -29.25C-196.5 -45.6 -196.5 -54.68 -196.5 -56.5C-196.5 -56.5 -196.5 -56.5 -196.5 -56.5C-176.18 -56.5 -164.89 -56.5 -162.63 -56.5C-162.63 -56.5 -162.63 -56.5 -162.63 -56.5C-162.63 -40.15 -162.63 -31.07 -162.63 -29.25C-162.63 -29.25 -162.63 -29.25 -162.63 -29.25C-182.95 -29.25 -194.24 -29.25 -196.5 -29.25Z" id="bfeEgK3M2"></path><path d="M-196.5 -29.25C-196.5 -29.25 -196.5 -29.25 -196.5 -29.25C-196.5 -45.6 -196.5 -54.68 -196.5 -56.5C-196.5 -56.5 -196.5 -56.5 -196.5 -56.5C-176.18 -56.5 -164.89 -56.5 -162.63 -56.5C-162.63 -56.5 -162.63 -56.5 -162.63 -56.5C-162.63 -40.15 -162.63 -31.07 -162.63 -29.25C-162.63 -29.25 -162.63 -29.25 -162.63 -29.25C-182.95 -29.25 -194.24 -29.25 -196.5 -29.25Z" id="aY3vaG8Wx"></path><path d="M-196.5 -29.25C-196.5 -29.25 -196.5 -29.25 -196.5 -29.25C-196.5 -45.6 -196.5 -54.68 -196.5 -56.5C-196.5 -56.5 -196.5 -56.5 -196.5 -56.5C-176.18 -56.5 -164.89 -56.5 -162.63 -56.5C-162.63 -56.5 -162.63 -56.5 -162.63 -56.5C-162.63 -40.15 -162.63 -31.07 -162.63 -29.25C-162.63 -29.25 -162.63 -29.25 -162.63 -29.25C-182.95 -29.25 -194.24 -29.25 -196.5 -29.25Z" id="b4B62ISYO"></path><path d="M-196.5 -29.25C-196.5 -29.25 -196.5 -29.25 -196.5 -29.25C-196.5 -45.6 -196.5 -54.68 -196.5 -56.5C-196.5 -56.5 -196.5 -56.5 -196.5 -56.5C-176.18 -56.5 -164.89 -56.5 -162.63 -56.5C-162.63 -56.5 -162.63 -56.5 -162.63 -56.5C-162.63 -40.15 -162.63 -31.07 -162.63 -29.25C-162.63 -29.25 -162.63 -29.25 -162.63 -29.25C-182.95 -29.25 -194.24 -29.25 -196.5 -29.25Z" id="e1a4yDgUQC"></path><path d="M-196.5 -29.25C-196.5 -29.25 -196.5 -29.25 -196.5 -29.25C-196.5 -45.6 -196.5 -54.68 -196.5 -56.5C-196.5 -56.5 -196.5 -56.5 -196.5 -56.5C-176.18 -56.5 -164.89 -56.5 -162.63 -56.5C-162.63 -56.5 -162.63 -56.5 -162.63 -56.5C-162.63 -40.15 -162.63 -31.07 -162.63 -29.25C-162.63 -29.25 -162.63 -29.25 -162.63 -29.25C-182.95 -29.25 -194.24 -29.25 -196.5 -29.25Z" id="fkSkzJg0Q"></path><path d="M-196.5 -29.25C-196.5 -29.25 -196.5 -29.25 -196.5 -29.25C-196.5 -45.6 -196.5 -54.68 -196.5 -56.5C-196.5 -56.5 -196.5 -56.5 -196.5 -56.5C-176.18 -56.5 -164.89 -56.5 -162.63 -56.5C-162.63 -56.5 -162.63 -56.5 -162.63 -56.5C-162.63 -40.15 -162.63 -31.07 -162.63 -29.25C-162.63 -29.25 -162.63 -29.25 -162.63 -29.25C-182.95 -29.25 -194.24 -29.25 -196.5 -29.25Z" id="c2rRE3htpS"></path><path d="M-196.5 -29.25C-196.5 -29.25 -196.5 -29.25 -196.5 -29.25C-196.5 -45.6 -196.5 -54.68 -196.5 -56.5C-196.5 -56.5 -196.5 -56.5 -196.5 -56.5C-176.18 -56.5 -164.89 -56.5 -162.63 -56.5C-162.63 -56.5 -162.63 -56.5 -162.63 -56.5C-162.63 -40.15 -162.63 -31.07 -162.63 -29.25C-162.63 -29.25 -162.63 -29.25 -162.63 -29.25C-182.95 -29.25 -194.24 -29.25 -196.5 -29.25Z" id="bcbo44sb3"></path><path d="M-196.5 -29.25C-196.5 -29.25 -196.5 -29.25 -196.5 -29.25C-196.5 -45.6 -196.5 -54.68 -196.5 -56.5C-196.5 -56.5 -196.5 -56.5 -196.5 -56.5C-176.18 -56.5 -164.89 -56.5 -162.63 -56.5C-162.63 -56.5 -162.63 -56.5 -162.63 -56.5C-162.63 -40.15 -162.63 -31.07 -162.63 -29.25C-162.63 -29.25 -162.63 -29.25 -162.63 -29.25C-182.95 -29.25 -194.24 -29.25 -196.5 -29.25Z" id="aINdxIzlW"></path><path d="M-196.5 -29.25C-196.5 -29.25 -196.5 -29.25 -196.5 -29.25C-196.5 -45.6 -196.5 -54.68 -196.5 -56.5C-196.5 -56.5 -196.5 -56.5 -196.5 -56.5C-176.18 -56.5 -164.89 -56.5 -162.63 -56.5C-162.63 -56.5 -162.63 -56.5 -162.63 -56.5C-162.63 -40.15 -162.63 -31.07 -162.63 -29.25C-162.63 -29.25 -162.63 -29.25 -162.63 -29.25C-182.95 -29.25 -194.24 -29.25 -196.5 -29.25Z" id="a1WzapUamT"></path><path d="M-196.5 -29.25C-196.5 -29.25 -196.5 -29.25 -196.5 -29.25C-196.5 -45.6 -196.5 -54.68 -196.5 -56.5C-196.5 -56.5 -196.5 -56.5 -196.5 -56.5C-176.18 -56.5 -164.89 -56.5 -162.63 -56.5C-162.63 -56.5 -162.63 -56.5 -162.63 -56.5C-162.63 -40.15 -162.63 -31.07 -162.63 -29.25C-162.63 -29.25 -162.63 -29.25 -162.63 -29.25C-182.95 -29.25 -194.24 -29.25 -196.5 -29.25Z" id="g1pIIGTz1r"></path><path d="M-196.5 -29.25C-196.5 -29.25 -196.5 -29.25 -196.5 -29.25C-196.5 -45.6 -196.5 -54.68 -196.5 -56.5C-196.5 -56.5 -196.5 -56.5 -196.5 -56.5C-176.18 -56.5 -164.89 -56.5 -162.63 -56.5C-162.63 -56.5 -162.63 -56.5 -162.63 -56.5C-162.63 -40.15 -162.63 -31.07 -162.63 -29.25C-162.63 -29.25 -162.63 -29.25 -162.63 -29.25C-182.95 -29.25 -194.24 -29.25 -196.5 -29.25Z" id="aqB6FzIxn"></path><path d="M-196.5 -29.25C-196.5 -29.25 -196.5 -29.25 -196.5 -29.25C-196.5 -45.6 -196.5 -54.68 -196.5 -56.5C-196.5 -56.5 -196.5 -56.5 -196.5 -56.5C-176.18 -56.5 -164.89 -56.5 -162.63 -56.5C-162.63 -56.5 -162.63 -56.5 -162.63 -56.5C-162.63 -40.15 -162.63 -31.07 -162.63 -29.25C-162.63 -29.25 -162.63 -29.25 -162.63 -29.25C-182.95 -29.25 -194.24 -29.25 -196.5 -29.25Z" id="e2loTsGv9"></path><path d="M-196.5 -29.25C-196.5 -29.25 -196.5 -29.25 -196.5 -29.25C-196.5 -45.6 -196.5 -54.68 -196.5 -56.5C-196.5 -56.5 -196.5 -56.5 -196.5 -56.5C-176.18 -56.5 -164.89 -56.5 -162.63 -56.5C-162.63 -56.5 -162.63 -56.5 -162.63 -56.5C-162.63 -40.15 -162.63 -31.07 -162.63 -29.25C-162.63 -29.25 -162.63 -29.25 -162.63 -29.25C-182.95 -29.25 -194.24 -29.25 -196.5 -29.25Z" id="bbuv12zrr"></path><path d="M-196.5 -29.25C-196.5 -29.25 -196.5 -29.25 -196.5 -29.25C-196.5 -45.6 -196.5 -54.68 -196.5 -56.5C-196.5 -56.5 -196.5 -56.5 -196.5 -56.5C-176.18 -56.5 -164.89 -56.5 -162.63 -56.5C-162.63 -56.5 -162.63 -56.5 -162.63 -56.5C-162.63 -40.15 -162.63 -31.07 -162.63 -29.25C-162.63 -29.25 -162.63 -29.25 -162.63 -29.25C-182.95 -29.25 -194.24 -29.25 -196.5 -29.25Z" id="d1uNfXTZNU"></path><path d="M-196.5 -29.25C-196.5 -29.25 -196.5 -29.25 -196.5 -29.25C-196.5 -45.6 -196.5 -54.68 -196.5 -56.5C-196.5 -56.5 -196.5 -56.5 -196.5 -56.5C-176.18 -56.5 -164.89 -56.5 -162.63 -56.5C-162.63 -56.5 -162.63 -56.5 -162.63 -56.5C-162.63 -40.15 -162.63 -31.07 -162.63 -29.25C-162.63 -29.25 -162.63 -29.25 -162.63 -29.25C-182.95 -29.25 -194.24 -29.25 -196.5 -29.25Z" id="aSV3whBo6"></path><path d="M-196.5 -29.25C-196.5 -29.25 -196.5 -29.25 -196.5 -29.25C-196.5 -45.6 -196.5 -54.68 -196.5 -56.5C-196.5 -56.5 -196.5 -56.5 -196.5 -56.5C-176.18 -56.5 -164.89 -56.5 -162.63 -56.5C-162.63 -56.5 -162.63 -56.5 -162.63 -56.5C-162.63 -40.15 -162.63 -31.07 -162.63 -29.25C-162.63 -29.25 -162.63 -29.25 -162.63 -29.25C-182.95 -29.25 -194.24 -29.25 -196.5 -29.25Z" id="b1RerOdo3t"></path><path d="M-171.1 -35.5C-186.34 -35.5 -194.81 -35.5 -196.5 -35.5C-196.5 -35.5 -196.5 -35.5 -196.5 -35.5C-196.5 -48.1 -196.5 -55.1 -196.5 -56.5C-196.5 -56.5 -196.5 -56.5 -196.5 -56.5C-181.26 -56.5 -172.8 -56.5 -171.1 -56.5C-171.1 -56.5 -171.1 -56.5 -171.1 -56.5C-171.1 -43.9 -171.1 -36.9 -171.1 -35.5C-171.1 -35.5 -171.1 -35.5 -171.1 -35.5Z" id="c2VcxQPapl"></path><path d="M-171.1 -35.5C-186.34 -35.5 -194.81 -35.5 -196.5 -35.5C-196.5 -35.5 -196.5 -35.5 -196.5 -35.5C-196.5 -48.1 -196.5 -55.1 -196.5 -56.5C-196.5 -56.5 -196.5 -56.5 -196.5 -56.5C-181.26 -56.5 -172.8 -56.5 -171.1 -56.5C-171.1 -56.5 -171.1 -56.5 -171.1 -56.5C-171.1 -43.9 -171.1 -36.9 -171.1 -35.5C-171.1 -35.5 -171.1 -35.5 -171.1 -35.5Z" id="bm00qSqTz"></path><path d="M-171.1 -35.5C-186.34 -35.5 -194.81 -35.5 -196.5 -35.5C-196.5 -35.5 -196.5 -35.5 -196.5 -35.5C-196.5 -48.1 -196.5 -55.1 -196.5 -56.5C-196.5 -56.5 -196.5 -56.5 -196.5 -56.5C-181.26 -56.5 -172.8 -56.5 -171.1 -56.5C-171.1 -56.5 -171.1 -56.5 -171.1 -56.5C-171.1 -43.9 -171.1 -36.9 -171.1 -35.5C-171.1 -35.5 -171.1 -35.5 -171.1 -35.5Z" id="aSTVxEUW"></path><path d="M-171.1 -35.5C-186.34 -35.5 -194.81 -35.5 -196.5 -35.5C-196.5 -35.5 -196.5 -35.5 -196.5 -35.5C-196.5 -48.1 -196.5 -55.1 -196.5 -56.5C-196.5 -56.5 -196.5 -56.5 -196.5 -56.5C-181.26 -56.5 -172.8 -56.5 -171.1 -56.5C-171.1 -56.5 -171.1 -56.5 -171.1 -56.5C-171.1 -43.9 -171.1 -36.9 -171.1 -35.5C-171.1 -35.5 -171.1 -35.5 -171.1 -35.5Z" id="e1A5rAH1rM"></path><path d="M-171.1 -35.5C-186.34 -35.5 -194.81 -35.5 -196.5 -35.5C-196.5 -35.5 -196.5 -35.5 -196.5 -35.5C-196.5 -48.1 -196.5 -55.1 -196.5 -56.5C-196.5 -56.5 -196.5 -56.5 -196.5 -56.5C-181.26 -56.5 -172.8 -56.5 -171.1 -56.5C-171.1 -56.5 -171.1 -56.5 -171.1 -56.5C-171.1 -43.9 -171.1 -36.9 -171.1 -35.5C-171.1 -35.5 -171.1 -35.5 -171.1 -35.5Z" id="c2nRN7UToi"></path><path d="M-171.1 -35.5C-186.34 -35.5 -194.81 -35.5 -196.5 -35.5C-196.5 -35.5 -196.5 -35.5 -196.5 -35.5C-196.5 -48.1 -196.5 -55.1 -196.5 -56.5C-196.5 -56.5 -196.5 -56.5 -196.5 -56.5C-181.26 -56.5 -172.8 -56.5 -171.1 -56.5C-171.1 -56.5 -171.1 -56.5 -171.1 -56.5C-171.1 -43.9 -171.1 -36.9 -171.1 -35.5C-171.1 -35.5 -171.1 -35.5 -171.1 -35.5Z" id="e3WnuY5FNJ"></path><path d="M-171.1 -35.5C-186.34 -35.5 -194.81 -35.5 -196.5 -35.5C-196.5 -35.5 -196.5 -35.5 -196.5 -35.5C-196.5 -48.1 -196.5 -55.1 -196.5 -56.5C-196.5 -56.5 -196.5 -56.5 -196.5 -56.5C-181.26 -56.5 -172.8 -56.5 -171.1 -56.5C-171.1 -56.5 -171.1 -56.5 -171.1 -56.5C-171.1 -43.9 -171.1 -36.9 -171.1 -35.5C-171.1 -35.5 -171.1 -35.5 -171.1 -35.5Z" id="c3fUt94zwA"></path><path d="M-171.1 -35.5C-186.34 -35.5 -194.81 -35.5 -196.5 -35.5C-196.5 -35.5 -196.5 -35.5 -196.5 -35.5C-196.5 -48.1 -196.5 -55.1 -196.5 -56.5C-196.5 -56.5 -196.5 -56.5 -196.5 -56.5C-181.26 -56.5 -172.8 -56.5 -171.1 -56.5C-171.1 -56.5 -171.1 -56.5 -171.1 -56.5C-171.1 -43.9 -171.1 -36.9 -171.1 -35.5C-171.1 -35.5 -171.1 -35.5 -171.1 -35.5Z" id="brKMjUHxt"></path><path d="M0 0L440 0L440 640L0 640L0 0Z" id="b247ejLTS3"></path><path d="M411.36 528.85C411.36 573.67 375.29 610 330.8 610C270.37 610 169.65 610 109.22 610C64.72 610 28.65 573.67 28.65 528.85C28.65 429.08 28.65 210.92 28.65 111.15C28.65 66.33 64.72 30 109.22 30C169.65 30 270.37 30 330.8 30C375.29 30 411.36 66.33 411.36 111.15C411.36 210.92 411.36 429.08 411.36 528.85Z" id="bz3NMMD1C"></path><path d="M282.5 660L157.5 660L157.5 640L0 640L0 497.77L-2.88 494.42L-5.8 490.75L-8.58 486.97L-11.2 483.09L-11.2 483.09L-13.68 479.11L-15.99 475.03L-18.15 470.85L-20.14 466.59L-21.96 462.25L-23.6 457.82L-25.07 453.32L-26.35 448.75L-27.45 444.11L-28.36 439.4L-29.07 434.63L-29.58 429.8L-29.9 424.93L-30 420L-29.9 415.07L-29.58 410.2L-29.07 405.37L-28.36 400.6L-27.45 395.89L-26.35 391.25L-25.07 386.68L-23.6 382.18L-21.96 377.75L-20.14 373.41L-18.15 369.15L-15.99 364.97L-13.68 360.89L-11.2 356.91L-8.58 353.03L-5.8 349.25L-2.88 345.58L0 342.23L0 0L440 0L440 342.23L442.88 345.58L445.8 349.25L448.58 353.03L451.2 356.91L453.68 360.89L455.99 364.97L458.15 369.15L460.14 373.41L461.96 377.75L463.6 382.18L465.07 386.68L466.35 391.25L467.45 395.89L468.36 400.6L469.07 405.37L469.58 410.2L469.9 415.07L470 420L469.9 424.93L469.58 429.8L469.07 434.63L468.36 439.4L467.45 444.11L466.35 448.75L465.07 453.32L463.6 457.82L461.96 462.25L460.14 466.59L458.15 470.85L455.99 475.03L453.68 479.11L451.2 483.09L448.58 486.97L445.8 490.75L442.88 494.42L440 497.77L440 640L282.5 640L282.5 660ZM157.5 638.13L157.5 522L156.09 522.89L154.69 523.76L153.28 524.6L151.87 525.42L150.46 526.22L149.04 527L147.62 527.75L146.2 528.48L144.77 529.19L143.34 529.88L141.9 530.54L140.46 531.18L139 531.8L137.54 532.4L136.08 532.97L134.6 533.52L133.11 534.05L131.62 534.56L130.11 535.04L128.59 535.5L127.06 535.94L125.52 536.36L123.97 536.75L122.4 537.12L120.82 537.47L119.22 537.79L117.61 538.1L115.98 538.38L114.34 538.64L112.68 538.88L111 539.09L109.3 539.28L107.58 539.45L105.85 539.59L104.09 539.72L102.32 539.82L100.52 539.9L98.7 539.95L96.86 539.99L95 540L89.87 539.9L84.79 539.6L79.76 539.11L74.79 538.42L69.89 537.55L65.05 536.5L60.29 535.26L55.6 533.86L50.99 532.28L46.46 530.53L42.03 528.62L37.68 526.55L33.43 524.33L29.28 521.96L25.24 519.43L21.3 516.77L17.48 513.96L13.77 511.02L10.18 507.95L6.72 504.75L3.39 501.43L1.83 499.75L1.83 638.13L157.5 638.13ZM433.28 504.75L429.82 507.95L426.23 511.02L422.52 513.96L418.7 516.77L414.76 519.43L410.72 521.96L406.57 524.33L402.32 526.55L397.97 528.62L393.54 530.53L389.01 532.28L384.4 533.86L379.71 535.26L374.95 536.5L370.11 537.55L365.21 538.42L360.24 539.11L355.21 539.6L350.13 539.9L345 540L343.14 539.99L341.3 539.96L339.48 539.9L339.48 539.9L337.68 539.82L337.68 539.82L335.91 539.72L334.15 539.59L332.42 539.45L330.7 539.28L329 539.09L327.32 538.88L325.66 538.64L324.02 538.38L322.39 538.1L320.78 537.8L319.18 537.47L317.6 537.12L316.03 536.75L314.48 536.36L312.94 535.94L311.41 535.5L309.89 535.04L308.38 534.56L306.89 534.05L305.4 533.52L303.92 532.97L302.46 532.4L301 531.8L299.54 531.18L298.1 530.54L298.1 530.54L296.66 529.88L295.23 529.19L293.8 528.48L292.38 527.75L290.96 527L289.54 526.22L288.13 525.42L286.72 524.6L285.31 523.75L283.91 522.89L282.5 522L282.5 638.13L438.17 638.13L438.17 499.75L436.61 501.43L433.28 504.75ZM1.83 340.25L3.39 338.57L3.39 338.57L6.72 335.25L10.18 332.05L13.77 328.98L17.48 326.04L21.3 323.23L25.24 320.57L29.28 318.04L33.43 315.67L37.68 313.45L42.03 311.38L46.46 309.47L50.99 307.72L55.6 306.14L60.29 304.74L65.05 303.5L69.89 302.45L74.79 301.58L79.76 300.89L84.79 300.4L89.87 300.1L95 300L113.75 300L112.82 298.65L111.92 297.3L111.04 295.95L110.19 294.59L109.36 293.24L108.55 291.88L107.76 290.52L107 289.15L106.26 287.78L105.55 286.41L104.86 285.03L104.19 283.64L103.54 282.24L102.92 280.84L102.32 279.43L101.75 278.02L101.2 276.59L100.67 275.15L100.17 273.71L99.69 272.25L99.23 270.78L98.8 269.3L98.39 267.81L98 266.3L97.64 264.79L97.3 263.25L96.98 261.7L96.69 260.14L96.42 258.56L96.17 256.97L95.95 255.36L95.75 253.73L95.57 252.08L95.42 250.42L95.29 248.73L95.19 247.03L95.11 245.3L95.05 243.56L95.05 243.56L95.01 241.79L95 240L95.1 235.07L95.42 230.2L95.93 225.37L96.64 220.6L97.55 215.89L98.65 211.25L98.65 211.25L99.93 206.68L101.4 202.18L101.4 202.18L103.04 197.75L104.86 193.41L106.85 189.15L109.01 184.97L111.32 180.89L113.8 176.91L116.42 173.03L119.2 169.25L122.12 165.58L125.19 162.02L128.39 158.57L131.72 155.25L135.18 152.05L138.77 148.98L142.48 146.04L146.3 143.23L150.24 140.57L154.28 138.04L158.43 135.67L162.68 133.45L167.03 131.38L171.46 129.47L175.99 127.72L180.6 126.14L185.29 124.74L190.05 123.5L194.89 122.45L199.79 121.58L199.79 121.58L204.76 120.89L209.79 120.4L214.87 120.1L220 120L225.13 120.1L230.21 120.4L235.24 120.89L240.21 121.58L245.11 122.45L249.95 123.5L254.71 124.74L259.4 126.14L264.01 127.72L268.54 129.47L272.97 131.38L277.32 133.45L281.57 135.67L285.72 138.04L289.76 140.57L293.7 143.23L297.52 146.04L301.23 148.98L304.82 152.05L308.28 155.25L311.61 158.57L314.81 162.02L317.88 165.58L320.8 169.25L323.58 173.03L326.2 176.91L328.68 180.89L330.99 184.97L333.15 189.15L335.14 193.41L336.96 197.75L338.6 202.18L340.07 206.68L341.35 211.25L342.45 215.89L343.36 220.6L344.07 225.37L344.58 230.2L344.58 230.2L344.9 235.07L345 240L344.99 241.79L344.95 243.56L344.95 243.56L344.89 245.3L344.89 245.3L344.81 247.03L344.71 248.73L344.58 250.42L344.43 252.08L344.25 253.73L344.05 255.36L343.83 256.97L343.58 258.56L343.31 260.14L343.02 261.7L342.7 263.25L342.36 264.79L342 266.3L341.61 267.81L341.2 269.3L340.77 270.78L340.31 272.25L339.83 273.71L339.33 275.15L338.8 276.59L338.25 278.02L337.68 279.43L337.08 280.84L336.46 282.24L335.81 283.64L335.14 285.03L334.45 286.41L333.74 287.78L333 289.15L332.24 290.52L331.45 291.88L330.64 293.24L329.81 294.59L328.96 295.95L328.08 297.3L327.18 298.65L326.25 300L345 300L350.13 300.1L355.21 300.4L360.24 300.89L365.21 301.58L370.11 302.45L374.95 303.5L379.71 304.74L384.4 306.14L389.01 307.72L393.54 309.47L397.97 311.38L402.32 313.45L406.57 315.67L406.57 315.67L410.72 318.04L410.72 318.04L414.76 320.57L418.7 323.23L422.52 326.04L426.23 328.98L429.82 332.05L433.28 335.25L436.61 338.57L438.17 340.25L438.17 1.88L1.83 1.88L1.83 340.25ZM51.86 20.05L52.46 20.11L53.05 20.19L53.64 20.29L54.22 20.42L54.8 20.57L55.36 20.74L55.91 20.93L56.45 21.14L56.99 21.37L57.51 21.61L58.02 21.88L58.52 22.17L59 22.47L59.47 22.79L59.93 23.12L60.38 23.48L60.81 23.85L61.22 24.23L61.62 24.63L62.01 25.04L62.38 25.47L62.73 25.91L63.06 26.36L63.37 26.83L63.67 27.31L63.95 27.8L64.21 28.3L64.45 28.81L64.66 29.33L64.86 29.86L65.04 30.4L65.19 30.95L65.32 31.51L65.43 32.07L65.52 32.64L65.58 33.22L65.62 33.81L65.63 34.4L65.63 34.61L65.62 34.83L65.62 35.04L65.61 35.24L65.59 35.45L65.58 35.65L65.56 35.85L65.54 36.05L65.52 36.24L65.49 36.44L65.46 36.63L65.43 36.82L65.39 37L65.35 37.19L65.31 37.37L65.27 37.56L65.22 37.74L65.17 37.92L65.12 38.09L65.07 38.27L65.01 38.44L64.95 38.62L64.89 38.79L64.82 38.96L64.75 39.13L64.68 39.3L64.6 39.47L64.53 39.64L64.45 39.8L64.36 39.97L64.28 40.13L64.19 40.3L64.1 40.46L64 40.63L63.91 40.79L63.81 40.95L63.7 41.11L63.6 41.28L63.49 41.44L63.49 41.44L63.38 41.6L65.63 41.6L66.25 41.61L66.86 41.65L67.46 41.71L68.05 41.79L68.64 41.89L69.22 42.02L69.8 42.17L70.36 42.34L70.91 42.53L71.45 42.74L71.99 42.97L72.51 43.21L73.02 43.48L73.52 43.77L74 44.07L74.47 44.39L74.93 44.72L75.38 45.08L75.81 45.45L76.22 45.83L76.62 46.23L77.01 46.64L77.38 47.07L77.73 47.51L78.06 47.96L78.37 48.43L78.67 48.91L78.95 49.4L79.21 49.9L79.45 50.41L79.66 50.93L79.86 51.46L80.04 52L80.19 52.55L80.32 53.11L80.43 53.67L80.52 54.24L80.58 54.82L80.62 55.41L80.63 56L80.62 56.59L80.58 57.18L80.52 57.76L80.43 58.33L80.32 58.89L80.19 59.45L80.04 60L79.86 60.54L79.66 61.07L79.45 61.59L79.21 62.1L78.95 62.6L78.67 63.09L78.37 63.57L78.06 64.04L77.72 64.49L77.37 64.93L77 65.36L76.62 65.77L76.22 66.17L75.8 66.55L75.37 66.92L74.93 67.28L74.47 67.61L74 67.93L73.51 68.23L73.01 68.52L72.5 68.79L71.98 69.03L71.45 69.26L70.91 69.47L70.35 69.66L69.79 69.83L69.22 69.98L69.22 69.98L69.08 70.01L68.64 70.11L68.05 70.21L67.46 70.29L66.85 70.35L66.25 70.39L65.63 70.4L65.41 70.4L65.19 70.39L64.97 70.39L64.97 70.39L64.75 70.38L64.54 70.37L64.33 70.35L64.12 70.33L63.91 70.31L63.71 70.29L63.51 70.27L63.31 70.24L63.11 70.21L62.92 70.17L62.72 70.14L62.53 70.1L62.34 70.05L62.15 70.01L61.97 69.96L61.78 69.91L61.6 69.86L61.51 69.83L61.42 69.81L61.42 69.8L61.24 69.75L61.06 69.69L60.88 69.62L60.7 69.56L60.52 69.49L60.35 69.42L60.18 69.34L60 69.26L59.83 69.19L59.66 69.1L59.49 69.02L59.49 69.02L59.32 68.93L59.15 68.84L58.98 68.75L58.81 68.65L58.64 68.55L58.47 68.45L58.3 68.35L58.13 68.24L58.13 84.8L43.13 84.8L43.13 68.24L42.96 68.35L42.79 68.45L42.62 68.55L42.45 68.65L42.28 68.75L42.11 68.84L41.94 68.93L41.77 69.02L41.6 69.1L41.43 69.19L41.26 69.26L41.08 69.34L40.91 69.42L40.74 69.49L40.56 69.56L40.38 69.62L40.2 69.69L40.02 69.75L39.84 69.8L39.66 69.86L39.48 69.91L39.29 69.96L39.11 70.01L38.92 70.05L38.73 70.1L38.54 70.14L38.34 70.17L38.15 70.21L37.95 70.24L37.75 70.27L37.55 70.29L37.35 70.31L37.14 70.33L36.93 70.35L36.72 70.37L36.51 70.38L36.29 70.39L36.07 70.39L35.85 70.4L35.63 70.4L35.01 70.39L34.4 70.35L33.8 70.29L33.2 70.21L32.61 70.11L32.03 69.98L31.46 69.83L30.9 69.66L30.34 69.47L29.8 69.26L29.27 69.03L28.75 68.79L28.24 68.52L27.74 68.23L27.25 67.93L26.78 67.61L26.32 67.28L25.88 66.92L25.45 66.55L25.03 66.17L24.63 65.77L24.25 65.36L23.88 64.93L23.53 64.49L23.2 64.04L22.88 63.57L22.59 63.09L22.31 62.6L22.05 62.1L21.81 61.59L21.59 61.07L21.4 60.54L21.22 60L21.07 59.45L20.94 58.89L20.83 58.33L20.74 57.76L20.68 57.18L20.64 56.59L20.63 56L20.64 55.41L20.68 54.82L20.74 54.24L20.74 54.24L20.83 53.67L20.94 53.11L21.07 52.55L21.22 52L21.4 51.46L21.6 50.93L21.81 50.41L22.05 49.9L22.31 49.4L22.59 48.91L22.89 48.43L23.2 47.96L23.53 47.51L23.88 47.07L24.25 46.64L24.64 46.23L25.04 45.83L25.45 45.45L25.88 45.08L26.33 44.72L26.79 44.39L27.26 44.07L27.74 43.77L28.24 43.48L28.75 43.21L29.27 42.97L29.81 42.74L30.35 42.53L30.9 42.34L31.46 42.17L32.04 42.02L32.62 41.89L33.21 41.79L33.8 41.71L34.4 41.65L35.01 41.61L35.63 41.6L37.87 41.6L37.76 41.44L37.65 41.28L37.55 41.11L37.44 40.95L37.34 40.79L37.25 40.63L37.15 40.46L37.06 40.3L36.97 40.13L36.89 39.97L36.8 39.8L36.72 39.64L36.65 39.47L36.57 39.3L36.5 39.13L36.43 38.96L36.37 38.79L36.3 38.62L36.24 38.44L36.19 38.27L36.13 38.09L36.08 37.92L36.03 37.74L35.99 37.56L35.94 37.37L35.9 37.19L35.87 37L35.83 36.82L35.8 36.63L35.8 36.63L35.77 36.44L35.74 36.24L35.72 36.05L35.7 35.85L35.68 35.65L35.66 35.45L35.65 35.24L35.64 35.04L35.64 34.83L35.63 34.61L35.63 34.4L35.64 33.81L35.68 33.22L35.74 32.64L35.83 32.07L35.94 31.51L35.94 31.51L36.07 30.95L36.22 30.4L36.4 29.86L36.59 29.33L36.81 28.81L37.05 28.3L37.31 27.8L37.59 27.31L37.88 26.83L38.2 26.36L38.53 25.91L38.88 25.47L39.25 25.04L39.63 24.63L40.03 24.23L40.45 23.85L40.88 23.48L41.32 23.12L41.78 22.79L42.25 22.47L42.74 22.17L43.24 21.88L43.75 21.61L44.27 21.37L44.8 21.14L45.34 20.93L45.9 20.74L46.46 20.57L47.03 20.42L47.61 20.29L48.2 20.19L48.8 20.11L49.4 20.05L50.01 20.01L50.63 20L51.25 20.01L51.86 20.05Z" id="b1JeX6NdO8"></path></defs><g><g><g><use xlink:href="#crgzotzyF" opacity="1" fill="#000000" fill-opacity="0"></use><g><use xlink:href="#crgzotzyF" opacity="1" fill-opacity="0" stroke="#000000" stroke-width="1" stroke-opacity="0"></use></g></g><g><use xlink:href="#c11brA5Kyp" opacity="1" fill="#000000" fill-opacity="0"></use><g><use xlink:href="#c11brA5Kyp" opacity="1" fill-opacity="0" stroke="#000000" stroke-width="1" stroke-opacity="0"></use></g></g><g><use xlink:href="#b17UnRaZhv" opacity="1" fill="#000000" fill-opacity="0"></use><g><use xlink:href="#b17UnRaZhv" opacity="1" fill-opacity="0" stroke="#000000" stroke-width="1" stroke-opacity="0"></use></g></g><g><use xlink:href="#aQWwq81a2" opacity="1" fill="#000000" fill-opacity="0"></use><g><use xlink:href="#aQWwq81a2" opacity="1" fill-opacity="0" stroke="#000000" stroke-width="1" stroke-opacity="0"></use></g></g><g><use xlink:href="#a2k0F5rLjb" opacity="1" fill="#000000" fill-opacity="0"></use><g><use xlink:href="#a2k0F5rLjb" opacity="1" fill-opacity="0" stroke="#000000" stroke-width="1" stroke-opacity="0"></use></g></g><g><use xlink:href="#b4mMNh4Rz" opacity="1" fill="#000000" fill-opacity="0"></use><g><use xlink:href="#b4mMNh4Rz" opacity="1" fill-opacity="0" stroke="#000000" stroke-width="1" stroke-opacity="0"></use></g></g><g><use xlink:href="#bejuAd3rh" opacity="1" fill="#000000" fill-opacity="0"></use><g><use xlink:href="#bejuAd3rh" opacity="1" fill-opacity="0" stroke="#000000" stroke-width="1" stroke-opacity="0"></use></g></g><g><use xlink:href="#e4N5FaGGSL" opacity="1" fill="#000000" fill-opacity="0"></use><g><use xlink:href="#e4N5FaGGSL" opacity="1" fill-opacity="0" stroke="#000000" stroke-width="1" stroke-opacity="0"></use></g></g><g><use xlink:href="#a1flj5WZwW" opacity="1" fill="#000000" fill-opacity="0"></use><g><use xlink:href="#a1flj5WZwW" opacity="1" fill-opacity="0" stroke="#000000" stroke-width="1" stroke-opacity="0"></use></g></g><g><use xlink:href="#c2J0I1VM4o" opacity="1" fill="#000000" fill-opacity="0"></use><g><use xlink:href="#c2J0I1VM4o" opacity="1" fill-opacity="0" stroke="#000000" stroke-width="1" stroke-opacity="0"></use></g></g><g><use xlink:href="#g2dP3J9wah" opacity="1" fill="#000000" fill-opacity="0"></use><g><use xlink:href="#g2dP3J9wah" opacity="1" fill-opacity="0" stroke="#000000" stroke-width="1" stroke-opacity="0"></use></g></g><g><use xlink:href="#b2SFtruDqm" opacity="1" fill="#000000" fill-opacity="0"></use><g><use xlink:href="#b2SFtruDqm" opacity="1" fill-opacity="0" stroke="#000000" stroke-width="1" stroke-opacity="0"></use></g></g><g><use xlink:href="#d9zYVyn8u" opacity="1" fill="#000000" fill-opacity="0"></use><g><use xlink:href="#d9zYVyn8u" opacity="1" fill-opacity="0" stroke="#000000" stroke-width="1" stroke-opacity="0"></use></g></g><g><use xlink:href="#e7pUK6v9TN" opacity="1" fill="#000000" fill-opacity="0"></use><g><use xlink:href="#e7pUK6v9TN" opacity="1" fill-opacity="0" stroke="#000000" stroke-width="1" stroke-opacity="0"></use></g></g><g><use xlink:href="#bb3lxXSQ7" opacity="1" fill="#000000" fill-opacity="0"></use><g><use xlink:href="#bb3lxXSQ7" opacity="1" fill-opacity="0" stroke="#000000" stroke-width="1" stroke-opacity="0"></use></g></g><g><use xlink:href="#e2oN2tKVua" opacity="1" fill="#000000" fill-opacity="0"></use><g><use xlink:href="#e2oN2tKVua" opacity="1" fill-opacity="0" stroke="#000000" stroke-width="1" stroke-opacity="0"></use></g></g><g><use xlink:href="#bfeEgK3M2" opacity="1" fill="#000000" fill-opacity="0"></use><g><use xlink:href="#bfeEgK3M2" opacity="1" fill-opacity="0" stroke="#000000" stroke-width="1" stroke-opacity="0"></use></g></g><g><use xlink:href="#aY3vaG8Wx" opacity="1" fill="#000000" fill-opacity="0"></use><g><use xlink:href="#aY3vaG8Wx" opacity="1" fill-opacity="0" stroke="#000000" stroke-width="1" stroke-opacity="0"></use></g></g><g><use xlink:href="#b4B62ISYO" opacity="1" fill="#000000" fill-opacity="0"></use><g><use xlink:href="#b4B62ISYO" opacity="1" fill-opacity="0" stroke="#000000" stroke-width="1" stroke-opacity="0"></use></g></g><g><use xlink:href="#e1a4yDgUQC" opacity="1" fill="#000000" fill-opacity="0"></use><g><use xlink:href="#e1a4yDgUQC" opacity="1" fill-opacity="0" stroke="#000000" stroke-width="1" stroke-opacity="0"></use></g></g><g><use xlink:href="#fkSkzJg0Q" opacity="1" fill="#000000" fill-opacity="0"></use><g><use xlink:href="#fkSkzJg0Q" opacity="1" fill-opacity="0" stroke="#000000" stroke-width="1" stroke-opacity="0"></use></g></g><g><use xlink:href="#c2rRE3htpS" opacity="1" fill="#000000" fill-opacity="0"></use><g><use xlink:href="#c2rRE3htpS" opacity="1" fill-opacity="0" stroke="#000000" stroke-width="1" stroke-opacity="0"></use></g></g><g><use xlink:href="#bcbo44sb3" opacity="1" fill="#000000" fill-opacity="0"></use><g><use xlink:href="#bcbo44sb3" opacity="1" fill-opacity="0" stroke="#000000" stroke-width="1" stroke-opacity="0"></use></g></g><g><use xlink:href="#aINdxIzlW" opacity="1" fill="#000000" fill-opacity="0"></use><g><use xlink:href="#aINdxIzlW" opacity="1" fill-opacity="0" stroke="#000000" stroke-width="1" stroke-opacity="0"></use></g></g><g><use xlink:href="#a1WzapUamT" opacity="1" fill="#000000" fill-opacity="0"></use><g><use xlink:href="#a1WzapUamT" opacity="1" fill-opacity="0" stroke="#000000" stroke-width="1" stroke-opacity="0"></use></g></g><g><use xlink:href="#g1pIIGTz1r" opacity="1" fill="#000000" fill-opacity="0"></use><g><use xlink:href="#g1pIIGTz1r" opacity="1" fill-opacity="0" stroke="#000000" stroke-width="1" stroke-opacity="0"></use></g></g><g><use xlink:href="#aqB6FzIxn" opacity="1" fill="#000000" fill-opacity="0"></use><g><use xlink:href="#aqB6FzIxn" opacity="1" fill-opacity="0" stroke="#000000" stroke-width="1" stroke-opacity="0"></use></g></g><g><use xlink:href="#e2loTsGv9" opacity="1" fill="#000000" fill-opacity="0"></use><g><use xlink:href="#e2loTsGv9" opacity="1" fill-opacity="0" stroke="#000000" stroke-width="1" stroke-opacity="0"></use></g></g><g><use xlink:href="#bbuv12zrr" opacity="1" fill="#000000" fill-opacity="0"></use><g><use xlink:href="#bbuv12zrr" opacity="1" fill-opacity="0" stroke="#000000" stroke-width="1" stroke-opacity="0"></use></g></g><g><use xlink:href="#d1uNfXTZNU" opacity="1" fill="#000000" fill-opacity="0"></use><g><use xlink:href="#d1uNfXTZNU" opacity="1" fill-opacity="0" stroke="#000000" stroke-width="1" stroke-opacity="0"></use></g></g><g><use xlink:href="#aSV3whBo6" opacity="1" fill="#000000" fill-opacity="0"></use><g><use xlink:href="#aSV3whBo6" opacity="1" fill-opacity="0" stroke="#000000" stroke-width="1" stroke-opacity="0"></use></g></g><g><use xlink:href="#b1RerOdo3t" opacity="1" fill="#000000" fill-opacity="0"></use><g><use xlink:href="#b1RerOdo3t" opacity="1" fill-opacity="0" stroke="#000000" stroke-width="1" stroke-opacity="0"></use></g></g><g><use xlink:href="#c2VcxQPapl" opacity="1" fill="#000000" fill-opacity="0"></use><g><use xlink:href="#c2VcxQPapl" opacity="1" fill-opacity="0" stroke="#000000" stroke-width="1" stroke-opacity="0"></use></g></g><g><use xlink:href="#bm00qSqTz" opacity="1" fill="#000000" fill-opacity="0"></use><g><use xlink:href="#bm00qSqTz" opacity="1" fill-opacity="0" stroke="#000000" stroke-width="1" stroke-opacity="0"></use></g></g><g><use xlink:href="#aSTVxEUW" opacity="1" fill="#000000" fill-opacity="0"></use><g><use xlink:href="#aSTVxEUW" opacity="1" fill-opacity="0" stroke="#000000" stroke-width="1" stroke-opacity="0"></use></g></g><g><use xlink:href="#e1A5rAH1rM" opacity="1" fill="#000000" fill-opacity="0"></use><g><use xlink:href="#e1A5rAH1rM" opacity="1" fill-opacity="0" stroke="#000000" stroke-width="1" stroke-opacity="0"></use></g></g><g><use xlink:href="#c2nRN7UToi" opacity="1" fill="#000000" fill-opacity="0"></use><g><use xlink:href="#c2nRN7UToi" opacity="1" fill-opacity="0" stroke="#000000" stroke-width="1" stroke-opacity="0"></use></g></g><g><use xlink:href="#e3WnuY5FNJ" opacity="1" fill="#000000" fill-opacity="0"></use><g><use xlink:href="#e3WnuY5FNJ" opacity="1" fill-opacity="0" stroke="#000000" stroke-width="1" stroke-opacity="0"></use></g></g><g><use xlink:href="#c3fUt94zwA" opacity="1" fill="#000000" fill-opacity="0"></use><g><use xlink:href="#c3fUt94zwA" opacity="1" fill-opacity="0" stroke="#000000" stroke-width="1" stroke-opacity="0"></use></g></g><g><use xlink:href="#brKMjUHxt" opacity="1" fill="#000000" fill-opacity="0"></use><g><use xlink:href="#brKMjUHxt" opacity="1" fill-opacity="0" stroke="#000000" stroke-width="1" stroke-opacity="0"></use></g></g><g><use xlink:href="#b247ejLTS3" opacity="1" fill="#ffffff" fill-opacity="1"></use></g><g><g><filter id="shadow1228440" x="16.65" y="18" width="406.71" height="604" filterUnits="userSpaceOnUse" primitiveUnits="userSpaceOnUse"><feFlood></feFlood><feComposite in2="SourceAlpha" operator="in"></feComposite><feGaussianBlur stdDeviation="1.73"></feGaussianBlur><feOffset dx="0" dy="0" result="afterOffset"></feOffset><feFlood flood-color="#000000" flood-opacity="0.5"></feFlood><feComposite in2="afterOffset" operator="in"></feComposite><feMorphology operator="dilate" radius="1"></feMorphology><feComposite in2="SourceAlpha" operator="out"></feComposite></filter><path d="M411.36 528.85C411.36 573.67 375.29 610 330.8 610C270.37 610 169.65 610 109.22 610C64.72 610 28.65 573.67 28.65 528.85C28.65 429.08 28.65 210.92 28.65 111.15C28.65 66.33 64.72 30 109.22 30C169.65 30 270.37 30 330.8 30C375.29 30 411.36 66.33 411.36 111.15C411.36 210.92 411.36 429.08 411.36 528.85Z" id="a36wI5FLnK" fill="white" fill-opacity="1" filter="url(#shadow1228440)"></path></g><g><use xlink:href="#bz3NMMD1C" opacity="1" fill-opacity="0" stroke="#000000" stroke-width="2" stroke-opacity="1"></use></g><g><filter id="shadow2221475" x="16.65" y="18" width="406.71" height="604" filterUnits="userSpaceOnUse" primitiveUnits="userSpaceOnUse"><feFlood></feFlood><feComposite in2="SourceAlpha" operator="out"></feComposite><feGaussianBlur stdDeviation="1.73"></feGaussianBlur><feOffset dx="0" dy="0" result="afterOffset"></feOffset><feFlood flood-color="#000000" flood-opacity="0.5"></feFlood><feComposite in2="afterOffset" operator="in"></feComposite><feMorphology operator="dilate" radius="1"></feMorphology><feComposite in2="SourceAlpha" operator="in"></feComposite></filter><path d="M411.36 528.85C411.36 573.67 375.29 610 330.8 610C270.37 610 169.65 610 109.22 610C64.72 610 28.65 573.67 28.65 528.85C28.65 429.08 28.65 210.92 28.65 111.15C28.65 66.33 64.72 30 109.22 30C169.65 30 270.37 30 330.8 30C375.29 30 411.36 66.33 411.36 111.15C411.36 210.92 411.36 429.08 411.36 528.85Z" id="d4JE74VJ81" fill="white" fill-opacity="1" filter="url(#shadow2221475)"></path></g></g><g><g><filter id="shadow8208888" x="-42" y="-12" width="524" height="684" filterUnits="userSpaceOnUse" primitiveUnits="userSpaceOnUse"><feFlood></feFlood><feComposite in2="SourceAlpha" operator="in"></feComposite><feGaussianBlur stdDeviation="1.73"></feGaussianBlur><feOffset dx="0" dy="0" result="afterOffset"></feOffset><feFlood flood-color="#000000" flood-opacity="0.5"></feFlood><feComposite in2="afterOffset" operator="in"></feComposite><feMorphology operator="dilate" radius="1"></feMorphology><feComposite in2="SourceAlpha" operator="out"></feComposite></filter><path d="M282.5 660L157.5 660L157.5 640L0 640L0 497.77L-2.88 494.42L-5.8 490.75L-8.58 486.97L-11.2 483.09L-11.2 483.09L-13.68 479.11L-15.99 475.03L-18.15 470.85L-20.14 466.59L-21.96 462.25L-23.6 457.82L-25.07 453.32L-26.35 448.75L-27.45 444.11L-28.36 439.4L-29.07 434.63L-29.58 429.8L-29.9 424.93L-30 420L-29.9 415.07L-29.58 410.2L-29.07 405.37L-28.36 400.6L-27.45 395.89L-26.35 391.25L-25.07 386.68L-23.6 382.18L-21.96 377.75L-20.14 373.41L-18.15 369.15L-15.99 364.97L-13.68 360.89L-11.2 356.91L-8.58 353.03L-5.8 349.25L-2.88 345.58L0 342.23L0 0L440 0L440 342.23L442.88 345.58L445.8 349.25L448.58 353.03L451.2 356.91L453.68 360.89L455.99 364.97L458.15 369.15L460.14 373.41L461.96 377.75L463.6 382.18L465.07 386.68L466.35 391.25L467.45 395.89L468.36 400.6L469.07 405.37L469.58 410.2L469.9 415.07L470 420L469.9 424.93L469.58 429.8L469.07 434.63L468.36 439.4L467.45 444.11L466.35 448.75L465.07 453.32L463.6 457.82L461.96 462.25L460.14 466.59L458.15 470.85L455.99 475.03L453.68 479.11L451.2 483.09L448.58 486.97L445.8 490.75L442.88 494.42L440 497.77L440 640L282.5 640L282.5 660ZM157.5 638.13L157.5 522L156.09 522.89L154.69 523.76L153.28 524.6L151.87 525.42L150.46 526.22L149.04 527L147.62 527.75L146.2 528.48L144.77 529.19L143.34 529.88L141.9 530.54L140.46 531.18L139 531.8L137.54 532.4L136.08 532.97L134.6 533.52L133.11 534.05L131.62 534.56L130.11 535.04L128.59 535.5L127.06 535.94L125.52 536.36L123.97 536.75L122.4 537.12L120.82 537.47L119.22 537.79L117.61 538.1L115.98 538.38L114.34 538.64L112.68 538.88L111 539.09L109.3 539.28L107.58 539.45L105.85 539.59L104.09 539.72L102.32 539.82L100.52 539.9L98.7 539.95L96.86 539.99L95 540L89.87 539.9L84.79 539.6L79.76 539.11L74.79 538.42L69.89 537.55L65.05 536.5L60.29 535.26L55.6 533.86L50.99 532.28L46.46 530.53L42.03 528.62L37.68 526.55L33.43 524.33L29.28 521.96L25.24 519.43L21.3 516.77L17.48 513.96L13.77 511.02L10.18 507.95L6.72 504.75L3.39 501.43L1.83 499.75L1.83 638.13L157.5 638.13ZM433.28 504.75L429.82 507.95L426.23 511.02L422.52 513.96L418.7 516.77L414.76 519.43L410.72 521.96L406.57 524.33L402.32 526.55L397.97 528.62L393.54 530.53L389.01 532.28L384.4 533.86L379.71 535.26L374.95 536.5L370.11 537.55L365.21 538.42L360.24 539.11L355.21 539.6L350.13 539.9L345 540L343.14 539.99L341.3 539.96L339.48 539.9L339.48 539.9L337.68 539.82L337.68 539.82L335.91 539.72L334.15 539.59L332.42 539.45L330.7 539.28L329 539.09L327.32 538.88L325.66 538.64L324.02 538.38L322.39 538.1L320.78 537.8L319.18 537.47L317.6 537.12L316.03 536.75L314.48 536.36L312.94 535.94L311.41 535.5L309.89 535.04L308.38 534.56L306.89 534.05L305.4 533.52L303.92 532.97L302.46 532.4L301 531.8L299.54 531.18L298.1 530.54L298.1 530.54L296.66 529.88L295.23 529.19L293.8 528.48L292.38 527.75L290.96 527L289.54 526.22L288.13 525.42L286.72 524.6L285.31 523.75L283.91 522.89L282.5 522L282.5 638.13L438.17 638.13L438.17 499.75L436.61 501.43L433.28 504.75ZM1.83 340.25L3.39 338.57L3.39 338.57L6.72 335.25L10.18 332.05L13.77 328.98L17.48 326.04L21.3 323.23L25.24 320.57L29.28 318.04L33.43 315.67L37.68 313.45L42.03 311.38L46.46 309.47L50.99 307.72L55.6 306.14L60.29 304.74L65.05 303.5L69.89 302.45L74.79 301.58L79.76 300.89L84.79 300.4L89.87 300.1L95 300L113.75 300L112.82 298.65L111.92 297.3L111.04 295.95L110.19 294.59L109.36 293.24L108.55 291.88L107.76 290.52L107 289.15L106.26 287.78L105.55 286.41L104.86 285.03L104.19 283.64L103.54 282.24L102.92 280.84L102.32 279.43L101.75 278.02L101.2 276.59L100.67 275.15L100.17 273.71L99.69 272.25L99.23 270.78L98.8 269.3L98.39 267.81L98 266.3L97.64 264.79L97.3 263.25L96.98 261.7L96.69 260.14L96.42 258.56L96.17 256.97L95.95 255.36L95.75 253.73L95.57 252.08L95.42 250.42L95.29 248.73L95.19 247.03L95.11 245.3L95.05 243.56L95.05 243.56L95.01 241.79L95 240L95.1 235.07L95.42 230.2L95.93 225.37L96.64 220.6L97.55 215.89L98.65 211.25L98.65 211.25L99.93 206.68L101.4 202.18L101.4 202.18L103.04 197.75L104.86 193.41L106.85 189.15L109.01 184.97L111.32 180.89L113.8 176.91L116.42 173.03L119.2 169.25L122.12 165.58L125.19 162.02L128.39 158.57L131.72 155.25L135.18 152.05L138.77 148.98L142.48 146.04L146.3 143.23L150.24 140.57L154.28 138.04L158.43 135.67L162.68 133.45L167.03 131.38L171.46 129.47L175.99 127.72L180.6 126.14L185.29 124.74L190.05 123.5L194.89 122.45L199.79 121.58L199.79 121.58L204.76 120.89L209.79 120.4L214.87 120.1L220 120L225.13 120.1L230.21 120.4L235.24 120.89L240.21 121.58L245.11 122.45L249.95 123.5L254.71 124.74L259.4 126.14L264.01 127.72L268.54 129.47L272.97 131.38L277.32 133.45L281.57 135.67L285.72 138.04L289.76 140.57L293.7 143.23L297.52 146.04L301.23 148.98L304.82 152.05L308.28 155.25L311.61 158.57L314.81 162.02L317.88 165.58L320.8 169.25L323.58 173.03L326.2 176.91L328.68 180.89L330.99 184.97L333.15 189.15L335.14 193.41L336.96 197.75L338.6 202.18L340.07 206.68L341.35 211.25L342.45 215.89L343.36 220.6L344.07 225.37L344.58 230.2L344.58 230.2L344.9 235.07L345 240L344.99 241.79L344.95 243.56L344.95 243.56L344.89 245.3L344.89 245.3L344.81 247.03L344.71 248.73L344.58 250.42L344.43 252.08L344.25 253.73L344.05 255.36L343.83 256.97L343.58 258.56L343.31 260.14L343.02 261.7L342.7 263.25L342.36 264.79L342 266.3L341.61 267.81L341.2 269.3L340.77 270.78L340.31 272.25L339.83 273.71L339.33 275.15L338.8 276.59L338.25 278.02L337.68 279.43L337.08 280.84L336.46 282.24L335.81 283.64L335.14 285.03L334.45 286.41L333.74 287.78L333 289.15L332.24 290.52L331.45 291.88L330.64 293.24L329.81 294.59L328.96 295.95L328.08 297.3L327.18 298.65L326.25 300L345 300L350.13 300.1L355.21 300.4L360.24 300.89L365.21 301.58L370.11 302.45L374.95 303.5L379.71 304.74L384.4 306.14L389.01 307.72L393.54 309.47L397.97 311.38L402.32 313.45L406.57 315.67L406.57 315.67L410.72 318.04L410.72 318.04L414.76 320.57L418.7 323.23L422.52 326.04L426.23 328.98L429.82 332.05L433.28 335.25L436.61 338.57L438.17 340.25L438.17 1.88L1.83 1.88L1.83 340.25ZM51.86 20.05L52.46 20.11L53.05 20.19L53.64 20.29L54.22 20.42L54.8 20.57L55.36 20.74L55.91 20.93L56.45 21.14L56.99 21.37L57.51 21.61L58.02 21.88L58.52 22.17L59 22.47L59.47 22.79L59.93 23.12L60.38 23.48L60.81 23.85L61.22 24.23L61.62 24.63L62.01 25.04L62.38 25.47L62.73 25.91L63.06 26.36L63.37 26.83L63.67 27.31L63.95 27.8L64.21 28.3L64.45 28.81L64.66 29.33L64.86 29.86L65.04 30.4L65.19 30.95L65.32 31.51L65.43 32.07L65.52 32.64L65.58 33.22L65.62 33.81L65.63 34.4L65.63 34.61L65.62 34.83L65.62 35.04L65.61 35.24L65.59 35.45L65.58 35.65L65.56 35.85L65.54 36.05L65.52 36.24L65.49 36.44L65.46 36.63L65.43 36.82L65.39 37L65.35 37.19L65.31 37.37L65.27 37.56L65.22 37.74L65.17 37.92L65.12 38.09L65.07 38.27L65.01 38.44L64.95 38.62L64.89 38.79L64.82 38.96L64.75 39.13L64.68 39.3L64.6 39.47L64.53 39.64L64.45 39.8L64.36 39.97L64.28 40.13L64.19 40.3L64.1 40.46L64 40.63L63.91 40.79L63.81 40.95L63.7 41.11L63.6 41.28L63.49 41.44L63.49 41.44L63.38 41.6L65.63 41.6L66.25 41.61L66.86 41.65L67.46 41.71L68.05 41.79L68.64 41.89L69.22 42.02L69.8 42.17L70.36 42.34L70.91 42.53L71.45 42.74L71.99 42.97L72.51 43.21L73.02 43.48L73.52 43.77L74 44.07L74.47 44.39L74.93 44.72L75.38 45.08L75.81 45.45L76.22 45.83L76.62 46.23L77.01 46.64L77.38 47.07L77.73 47.51L78.06 47.96L78.37 48.43L78.67 48.91L78.95 49.4L79.21 49.9L79.45 50.41L79.66 50.93L79.86 51.46L80.04 52L80.19 52.55L80.32 53.11L80.43 53.67L80.52 54.24L80.58 54.82L80.62 55.41L80.63 56L80.62 56.59L80.58 57.18L80.52 57.76L80.43 58.33L80.32 58.89L80.19 59.45L80.04 60L79.86 60.54L79.66 61.07L79.45 61.59L79.21 62.1L78.95 62.6L78.67 63.09L78.37 63.57L78.06 64.04L77.72 64.49L77.37 64.93L77 65.36L76.62 65.77L76.22 66.17L75.8 66.55L75.37 66.92L74.93 67.28L74.47 67.61L74 67.93L73.51 68.23L73.01 68.52L72.5 68.79L71.98 69.03L71.45 69.26L70.91 69.47L70.35 69.66L69.79 69.83L69.22 69.98L69.22 69.98L69.08 70.01L68.64 70.11L68.05 70.21L67.46 70.29L66.85 70.35L66.25 70.39L65.63 70.4L65.41 70.4L65.19 70.39L64.97 70.39L64.97 70.39L64.75 70.38L64.54 70.37L64.33 70.35L64.12 70.33L63.91 70.31L63.71 70.29L63.51 70.27L63.31 70.24L63.11 70.21L62.92 70.17L62.72 70.14L62.53 70.1L62.34 70.05L62.15 70.01L61.97 69.96L61.78 69.91L61.6 69.86L61.51 69.83L61.42 69.81L61.42 69.8L61.24 69.75L61.06 69.69L60.88 69.62L60.7 69.56L60.52 69.49L60.35 69.42L60.18 69.34L60 69.26L59.83 69.19L59.66 69.1L59.49 69.02L59.49 69.02L59.32 68.93L59.15 68.84L58.98 68.75L58.81 68.65L58.64 68.55L58.47 68.45L58.3 68.35L58.13 68.24L58.13 84.8L43.13 84.8L43.13 68.24L42.96 68.35L42.79 68.45L42.62 68.55L42.45 68.65L42.28 68.75L42.11 68.84L41.94 68.93L41.77 69.02L41.6 69.1L41.43 69.19L41.26 69.26L41.08 69.34L40.91 69.42L40.74 69.49L40.56 69.56L40.38 69.62L40.2 69.69L40.02 69.75L39.84 69.8L39.66 69.86L39.48 69.91L39.29 69.96L39.11 70.01L38.92 70.05L38.73 70.1L38.54 70.14L38.34 70.17L38.15 70.21L37.95 70.24L37.75 70.27L37.55 70.29L37.35 70.31L37.14 70.33L36.93 70.35L36.72 70.37L36.51 70.38L36.29 70.39L36.07 70.39L35.85 70.4L35.63 70.4L35.01 70.39L34.4 70.35L33.8 70.29L33.2 70.21L32.61 70.11L32.03 69.98L31.46 69.83L30.9 69.66L30.34 69.47L29.8 69.26L29.27 69.03L28.75 68.79L28.24 68.52L27.74 68.23L27.25 67.93L26.78 67.61L26.32 67.28L25.88 66.92L25.45 66.55L25.03 66.17L24.63 65.77L24.25 65.36L23.88 64.93L23.53 64.49L23.2 64.04L22.88 63.57L22.59 63.09L22.31 62.6L22.05 62.1L21.81 61.59L21.59 61.07L21.4 60.54L21.22 60L21.07 59.45L20.94 58.89L20.83 58.33L20.74 57.76L20.68 57.18L20.64 56.59L20.63 56L20.64 55.41L20.68 54.82L20.74 54.24L20.74 54.24L20.83 53.67L20.94 53.11L21.07 52.55L21.22 52L21.4 51.46L21.6 50.93L21.81 50.41L22.05 49.9L22.31 49.4L22.59 48.91L22.89 48.43L23.2 47.96L23.53 47.51L23.88 47.07L24.25 46.64L24.64 46.23L25.04 45.83L25.45 45.45L25.88 45.08L26.33 44.72L26.79 44.39L27.26 44.07L27.74 43.77L28.24 43.48L28.75 43.21L29.27 42.97L29.81 42.74L30.35 42.53L30.9 42.34L31.46 42.17L32.04 42.02L32.62 41.89L33.21 41.79L33.8 41.71L34.4 41.65L35.01 41.61L35.63 41.6L37.87 41.6L37.76 41.44L37.65 41.28L37.55 41.11L37.44 40.95L37.34 40.79L37.25 40.63L37.15 40.46L37.06 40.3L36.97 40.13L36.89 39.97L36.8 39.8L36.72 39.64L36.65 39.47L36.57 39.3L36.5 39.13L36.43 38.96L36.37 38.79L36.3 38.62L36.24 38.44L36.19 38.27L36.13 38.09L36.08 37.92L36.03 37.74L35.99 37.56L35.94 37.37L35.9 37.19L35.87 37L35.83 36.82L35.8 36.63L35.8 36.63L35.77 36.44L35.74 36.24L35.72 36.05L35.7 35.85L35.68 35.65L35.66 35.45L35.65 35.24L35.64 35.04L35.64 34.83L35.63 34.61L35.63 34.4L35.64 33.81L35.68 33.22L35.74 32.64L35.83 32.07L35.94 31.51L35.94 31.51L36.07 30.95L36.22 30.4L36.4 29.86L36.59 29.33L36.81 28.81L37.05 28.3L37.31 27.8L37.59 27.31L37.88 26.83L38.2 26.36L38.53 25.91L38.88 25.47L39.25 25.04L39.63 24.63L40.03 24.23L40.45 23.85L40.88 23.48L41.32 23.12L41.78 22.79L42.25 22.47L42.74 22.17L43.24 21.88L43.75 21.61L44.27 21.37L44.8 21.14L45.34 20.93L45.9 20.74L46.46 20.57L47.03 20.42L47.61 20.29L48.2 20.19L48.8 20.11L49.4 20.05L50.01 20.01L50.63 20L51.25 20.01L51.86 20.05Z" id="c4TFxCvqYZ" fill="white" fill-opacity="1" filter="url(#shadow8208888)"></path></g><use xlink:href="#b1JeX6NdO8" opacity="1" fill="#000000" fill-opacity="1"></use><g><use xlink:href="#b1JeX6NdO8" opacity="1" fill-opacity="0" stroke="#000000" stroke-width="1" stroke-opacity="0"></use></g></g></g></g></svg>