<?xml version="1.0" encoding="UTF-8" standalone="no"?>
<!DOCTYPE svg PUBLIC "-//W3C//DTD SVG 1.1//EN" "http://www.w3.org/Graphics/SVG/1.1/DTD/svg11.dtd">
<svg version="1.1" xmlns="http://www.w3.org/2000/svg" xmlns:xlink="http://www.w3.org/1999/xlink" preserveAspectRatio="xMidYMid meet" viewBox="0 0 440 640" width="440" height="640"><defs><path d="M-162.63 -29.25C-162.63 -29.25 -162.63 -29.25 -162.63 -29.25C-182.95 -29.25 -194.24 -29.25 -196.5 -29.25C-196.5 -29.25 -196.5 -29.25 -196.5 -29.25C-196.5 -45.6 -196.5 -54.68 -196.5 -56.5C-196.5 -56.5 -196.5 -56.5 -196.5 -56.5C-176.18 -56.5 -164.89 -56.5 -162.63 -56.5C-162.63 -56.5 -162.63 -56.5 -162.63 -56.5C-162.63 -40.15 -162.63 -31.07 -162.63 -29.25Z" id="a4aQzbcEB"></path><path d="M-162.63 -29.25C-162.63 -29.25 -162.63 -29.25 -162.63 -29.25C-182.95 -29.25 -194.24 -29.25 -196.5 -29.25C-196.5 -29.25 -196.5 -29.25 -196.5 -29.25C-196.5 -45.6 -196.5 -54.68 -196.5 -56.5C-196.5 -56.5 -196.5 -56.5 -196.5 -56.5C-176.18 -56.5 -164.89 -56.5 -162.63 -56.5C-162.63 -56.5 -162.63 -56.5 -162.63 -56.5C-162.63 -40.15 -162.63 -31.07 -162.63 -29.25Z" id="a1G9aorPX7"></path><path d="M-162.63 -29.25C-162.63 -29.25 -162.63 -29.25 -162.63 -29.25C-182.95 -29.25 -194.24 -29.25 -196.5 -29.25C-196.5 -29.25 -196.5 -29.25 -196.5 -29.25C-196.5 -45.6 -196.5 -54.68 -196.5 -56.5C-196.5 -56.5 -196.5 -56.5 -196.5 -56.5C-176.18 -56.5 -164.89 -56.5 -162.63 -56.5C-162.63 -56.5 -162.63 -56.5 -162.63 -56.5C-162.63 -40.15 -162.63 -31.07 -162.63 -29.25Z" id="e1bMq61IYG"></path><path d="M-162.63 -29.25C-162.63 -29.25 -162.63 -29.25 -162.63 -29.25C-182.95 -29.25 -194.24 -29.25 -196.5 -29.25C-196.5 -29.25 -196.5 -29.25 -196.5 -29.25C-196.5 -45.6 -196.5 -54.68 -196.5 -56.5C-196.5 -56.5 -196.5 -56.5 -196.5 -56.5C-176.18 -56.5 -164.89 -56.5 -162.63 -56.5C-162.63 -56.5 -162.63 -56.5 -162.63 -56.5C-162.63 -40.15 -162.63 -31.07 -162.63 -29.25Z" id="a2fWdpVLdn"></path><path d="M-175.5 -28.22C-175.5 -28.22 -175.5 -28.22 -175.5 -28.22C-188.1 -28.22 -195.1 -28.22 -196.5 -28.22C-196.5 -28.22 -196.5 -28.22 -196.5 -28.22C-196.5 -45.19 -196.5 -54.61 -196.5 -56.5C-196.5 -56.5 -196.5 -56.5 -196.5 -56.5C-183.9 -56.5 -176.9 -56.5 -175.5 -56.5C-175.5 -56.5 -175.5 -56.5 -175.5 -56.5C-175.5 -39.53 -175.5 -30.1 -175.5 -28.22Z" id="a6LNlg1MEc"></path><path d="M-175.5 -28.22C-175.5 -28.22 -175.5 -28.22 -175.5 -28.22C-188.1 -28.22 -195.1 -28.22 -196.5 -28.22C-196.5 -28.22 -196.5 -28.22 -196.5 -28.22C-196.5 -45.19 -196.5 -54.61 -196.5 -56.5C-196.5 -56.5 -196.5 -56.5 -196.5 -56.5C-183.9 -56.5 -176.9 -56.5 -175.5 -56.5C-175.5 -56.5 -175.5 -56.5 -175.5 -56.5C-175.5 -39.53 -175.5 -30.1 -175.5 -28.22Z" id="bFAa5EQ0T"></path><path d="M-175.5 -28.22C-175.5 -28.22 -175.5 -28.22 -175.5 -28.22C-188.1 -28.22 -195.1 -28.22 -196.5 -28.22C-196.5 -28.22 -196.5 -28.22 -196.5 -28.22C-196.5 -45.19 -196.5 -54.61 -196.5 -56.5C-196.5 -56.5 -196.5 -56.5 -196.5 -56.5C-183.9 -56.5 -176.9 -56.5 -175.5 -56.5C-175.5 -56.5 -175.5 -56.5 -175.5 -56.5C-175.5 -39.53 -175.5 -30.1 -175.5 -28.22Z" id="d4wm1ED9a0"></path><path d="M-175.5 -28.22C-175.5 -28.22 -175.5 -28.22 -175.5 -28.22C-188.1 -28.22 -195.1 -28.22 -196.5 -28.22C-196.5 -28.22 -196.5 -28.22 -196.5 -28.22C-196.5 -45.19 -196.5 -54.61 -196.5 -56.5C-196.5 -56.5 -196.5 -56.5 -196.5 -56.5C-183.9 -56.5 -176.9 -56.5 -175.5 -56.5C-175.5 -56.5 -175.5 -56.5 -175.5 -56.5C-175.5 -39.53 -175.5 -30.1 -175.5 -28.22Z" id="cqlqhDQqo"></path><path d="M-162.63 -29.25C-182.95 -29.25 -194.24 -29.25 -196.5 -29.25C-196.5 -29.25 -196.5 -29.25 -196.5 -29.25C-196.5 -45.6 -196.5 -54.68 -196.5 -56.5C-196.5 -56.5 -196.5 -56.5 -196.5 -56.5C-176.18 -56.5 -164.89 -56.5 -162.63 -56.5C-162.63 -56.5 -162.63 -56.5 -162.63 -56.5C-162.63 -40.15 -162.63 -31.07 -162.63 -29.25C-162.63 -29.25 -162.63 -29.25 -162.63 -29.25Z" id="b3gq666W6"></path><path d="M-162.63 -29.25C-182.95 -29.25 -194.24 -29.25 -196.5 -29.25C-196.5 -29.25 -196.5 -29.25 -196.5 -29.25C-196.5 -45.6 -196.5 -54.68 -196.5 -56.5C-196.5 -56.5 -196.5 -56.5 -196.5 -56.5C-176.18 -56.5 -164.89 -56.5 -162.63 -56.5C-162.63 -56.5 -162.63 -56.5 -162.63 -56.5C-162.63 -40.15 -162.63 -31.07 -162.63 -29.25C-162.63 -29.25 -162.63 -29.25 -162.63 -29.25Z" id="agsnB9Rvc"></path><path d="M-162.63 -29.25C-182.95 -29.25 -194.24 -29.25 -196.5 -29.25C-196.5 -29.25 -196.5 -29.25 -196.5 -29.25C-196.5 -45.6 -196.5 -54.68 -196.5 -56.5C-196.5 -56.5 -196.5 -56.5 -196.5 -56.5C-176.18 -56.5 -164.89 -56.5 -162.63 -56.5C-162.63 -56.5 -162.63 -56.5 -162.63 -56.5C-162.63 -40.15 -162.63 -31.07 -162.63 -29.25C-162.63 -29.25 -162.63 -29.25 -162.63 -29.25Z" id="bgyz6Ij6f"></path><path d="M-162.63 -29.25C-182.95 -29.25 -194.24 -29.25 -196.5 -29.25C-196.5 -29.25 -196.5 -29.25 -196.5 -29.25C-196.5 -45.6 -196.5 -54.68 -196.5 -56.5C-196.5 -56.5 -196.5 -56.5 -196.5 -56.5C-176.18 -56.5 -164.89 -56.5 -162.63 -56.5C-162.63 -56.5 -162.63 -56.5 -162.63 -56.5C-162.63 -40.15 -162.63 -31.07 -162.63 -29.25C-162.63 -29.25 -162.63 -29.25 -162.63 -29.25Z" id="a2ovX7IYpE"></path><path d="M-162.63 -29.25C-182.95 -29.25 -194.24 -29.25 -196.5 -29.25C-196.5 -29.25 -196.5 -29.25 -196.5 -29.25C-196.5 -45.6 -196.5 -54.68 -196.5 -56.5C-196.5 -56.5 -196.5 -56.5 -196.5 -56.5C-176.18 -56.5 -164.89 -56.5 -162.63 -56.5C-162.63 -56.5 -162.63 -56.5 -162.63 -56.5C-162.63 -40.15 -162.63 -31.07 -162.63 -29.25C-162.63 -29.25 -162.63 -29.25 -162.63 -29.25Z" id="f1BlSkrvhw"></path><path d="M-162.63 -29.25C-182.95 -29.25 -194.24 -29.25 -196.5 -29.25C-196.5 -29.25 -196.5 -29.25 -196.5 -29.25C-196.5 -45.6 -196.5 -54.68 -196.5 -56.5C-196.5 -56.5 -196.5 -56.5 -196.5 -56.5C-176.18 -56.5 -164.89 -56.5 -162.63 -56.5C-162.63 -56.5 -162.63 -56.5 -162.63 -56.5C-162.63 -40.15 -162.63 -31.07 -162.63 -29.25C-162.63 -29.25 -162.63 -29.25 -162.63 -29.25Z" id="a24uEddGZL"></path><path d="M-162.63 -29.25C-182.95 -29.25 -194.24 -29.25 -196.5 -29.25C-196.5 -29.25 -196.5 -29.25 -196.5 -29.25C-196.5 -45.6 -196.5 -54.68 -196.5 -56.5C-196.5 -56.5 -196.5 -56.5 -196.5 -56.5C-176.18 -56.5 -164.89 -56.5 -162.63 -56.5C-162.63 -56.5 -162.63 -56.5 -162.63 -56.5C-162.63 -40.15 -162.63 -31.07 -162.63 -29.25C-162.63 -29.25 -162.63 -29.25 -162.63 -29.25Z" id="b7EHGaKMO"></path><path d="M-162.63 -29.25C-182.95 -29.25 -194.24 -29.25 -196.5 -29.25C-196.5 -29.25 -196.5 -29.25 -196.5 -29.25C-196.5 -45.6 -196.5 -54.68 -196.5 -56.5C-196.5 -56.5 -196.5 -56.5 -196.5 -56.5C-176.18 -56.5 -164.89 -56.5 -162.63 -56.5C-162.63 -56.5 -162.63 -56.5 -162.63 -56.5C-162.63 -40.15 -162.63 -31.07 -162.63 -29.25C-162.63 -29.25 -162.63 -29.25 -162.63 -29.25Z" id="a9PLhgt6D"></path><path d="M-171.1 -35.5C-171.1 -35.5 -171.1 -35.5 -171.1 -35.5C-186.34 -35.5 -194.81 -35.5 -196.5 -35.5C-196.5 -35.5 -196.5 -35.5 -196.5 -35.5C-196.5 -48.1 -196.5 -55.1 -196.5 -56.5C-196.5 -56.5 -196.5 -56.5 -196.5 -56.5C-181.26 -56.5 -172.8 -56.5 -171.1 -56.5C-171.1 -56.5 -171.1 -56.5 -171.1 -56.5C-171.1 -43.9 -171.1 -36.9 -171.1 -35.5Z" id="b2g83F0CU5"></path><path d="M-171.1 -35.5C-171.1 -35.5 -171.1 -35.5 -171.1 -35.5C-186.34 -35.5 -194.81 -35.5 -196.5 -35.5C-196.5 -35.5 -196.5 -35.5 -196.5 -35.5C-196.5 -48.1 -196.5 -55.1 -196.5 -56.5C-196.5 -56.5 -196.5 -56.5 -196.5 -56.5C-181.26 -56.5 -172.8 -56.5 -171.1 -56.5C-171.1 -56.5 -171.1 -56.5 -171.1 -56.5C-171.1 -43.9 -171.1 -36.9 -171.1 -35.5Z" id="byHfnnndp"></path><path d="M-171.1 -35.5C-171.1 -35.5 -171.1 -35.5 -171.1 -35.5C-186.34 -35.5 -194.81 -35.5 -196.5 -35.5C-196.5 -35.5 -196.5 -35.5 -196.5 -35.5C-196.5 -48.1 -196.5 -55.1 -196.5 -56.5C-196.5 -56.5 -196.5 -56.5 -196.5 -56.5C-181.26 -56.5 -172.8 -56.5 -171.1 -56.5C-171.1 -56.5 -171.1 -56.5 -171.1 -56.5C-171.1 -43.9 -171.1 -36.9 -171.1 -35.5Z" id="b2pCuWk5V6"></path><path d="M-171.1 -35.5C-171.1 -35.5 -171.1 -35.5 -171.1 -35.5C-186.34 -35.5 -194.81 -35.5 -196.5 -35.5C-196.5 -35.5 -196.5 -35.5 -196.5 -35.5C-196.5 -48.1 -196.5 -55.1 -196.5 -56.5C-196.5 -56.5 -196.5 -56.5 -196.5 -56.5C-181.26 -56.5 -172.8 -56.5 -171.1 -56.5C-171.1 -56.5 -171.1 -56.5 -171.1 -56.5C-171.1 -43.9 -171.1 -36.9 -171.1 -35.5Z" id="e1UPYWcxkb"></path><path d="M412.5 111.15C412.5 210.92 412.5 429.08 412.5 528.85C412.5 573.67 376.43 610 331.94 610C271.51 610 170.79 610 110.36 610C65.86 610 29.79 573.67 29.79 528.85C29.79 429.08 29.79 210.92 29.79 111.15C29.79 66.33 65.86 30 110.36 30C170.79 30 271.51 30 331.94 30C376.43 30 412.5 66.33 412.5 111.15Z" id="be3WD1LLr"></path><path d="M0 0L440 0L440 1.88L0 1.88L0 0Z" id="bd7K2CeW6"></path><path d="M440 0L440 640L438.17 640L438.17 0L440 0Z" id="h4GofDRFG"></path><path d="M1.83 0L1.83 640L0 640L0 0L1.83 0Z" id="a2gML94IEp"></path><path d="M0 638.13L440 638.13L440 640L0 640L0 638.13Z" id="ankYBV9f"></path><path d="M-162.63 -29.25C-162.63 -29.25 -162.63 -29.25 -162.63 -29.25C-182.95 -29.25 -194.24 -29.25 -196.5 -29.25C-196.5 -29.25 -196.5 -29.25 -196.5 -29.25C-196.5 -45.6 -196.5 -54.68 -196.5 -56.5C-196.5 -56.5 -196.5 -56.5 -196.5 -56.5C-176.18 -56.5 -164.89 -56.5 -162.63 -56.5C-162.63 -56.5 -162.63 -56.5 -162.63 -56.5C-162.63 -40.15 -162.63 -31.07 -162.63 -29.25Z" id="a1BlUpMbi4"></path><path d="M-162.63 -29.25C-162.63 -29.25 -162.63 -29.25 -162.63 -29.25C-182.95 -29.25 -194.24 -29.25 -196.5 -29.25C-196.5 -29.25 -196.5 -29.25 -196.5 -29.25C-196.5 -45.6 -196.5 -54.68 -196.5 -56.5C-196.5 -56.5 -196.5 -56.5 -196.5 -56.5C-176.18 -56.5 -164.89 -56.5 -162.63 -56.5C-162.63 -56.5 -162.63 -56.5 -162.63 -56.5C-162.63 -40.15 -162.63 -31.07 -162.63 -29.25Z" id="fvYjZf7MM"></path><path d="M-162.63 -29.25C-162.63 -29.25 -162.63 -29.25 -162.63 -29.25C-182.95 -29.25 -194.24 -29.25 -196.5 -29.25C-196.5 -29.25 -196.5 -29.25 -196.5 -29.25C-196.5 -45.6 -196.5 -54.68 -196.5 -56.5C-196.5 -56.5 -196.5 -56.5 -196.5 -56.5C-176.18 -56.5 -164.89 -56.5 -162.63 -56.5C-162.63 -56.5 -162.63 -56.5 -162.63 -56.5C-162.63 -40.15 -162.63 -31.07 -162.63 -29.25Z" id="a2Sa553Y"></path><path d="M-162.63 -29.25C-162.63 -29.25 -162.63 -29.25 -162.63 -29.25C-182.95 -29.25 -194.24 -29.25 -196.5 -29.25C-196.5 -29.25 -196.5 -29.25 -196.5 -29.25C-196.5 -45.6 -196.5 -54.68 -196.5 -56.5C-196.5 -56.5 -196.5 -56.5 -196.5 -56.5C-176.18 -56.5 -164.89 -56.5 -162.63 -56.5C-162.63 -56.5 -162.63 -56.5 -162.63 -56.5C-162.63 -40.15 -162.63 -31.07 -162.63 -29.25Z" id="ai7iks86w"></path><path d="M-175.5 -28.22C-175.5 -28.22 -175.5 -28.22 -175.5 -28.22C-188.1 -28.22 -195.1 -28.22 -196.5 -28.22C-196.5 -28.22 -196.5 -28.22 -196.5 -28.22C-196.5 -45.19 -196.5 -54.61 -196.5 -56.5C-196.5 -56.5 -196.5 -56.5 -196.5 -56.5C-183.9 -56.5 -176.9 -56.5 -175.5 -56.5C-175.5 -56.5 -175.5 -56.5 -175.5 -56.5C-175.5 -39.53 -175.5 -30.1 -175.5 -28.22Z" id="a1mI0m3PL8"></path><path d="M-175.5 -28.22C-175.5 -28.22 -175.5 -28.22 -175.5 -28.22C-188.1 -28.22 -195.1 -28.22 -196.5 -28.22C-196.5 -28.22 -196.5 -28.22 -196.5 -28.22C-196.5 -45.19 -196.5 -54.61 -196.5 -56.5C-196.5 -56.5 -196.5 -56.5 -196.5 -56.5C-183.9 -56.5 -176.9 -56.5 -175.5 -56.5C-175.5 -56.5 -175.5 -56.5 -175.5 -56.5C-175.5 -39.53 -175.5 -30.1 -175.5 -28.22Z" id="f896SM6alh"></path><path d="M-175.5 -28.22C-175.5 -28.22 -175.5 -28.22 -175.5 -28.22C-188.1 -28.22 -195.1 -28.22 -196.5 -28.22C-196.5 -28.22 -196.5 -28.22 -196.5 -28.22C-196.5 -45.19 -196.5 -54.61 -196.5 -56.5C-196.5 -56.5 -196.5 -56.5 -196.5 -56.5C-183.9 -56.5 -176.9 -56.5 -175.5 -56.5C-175.5 -56.5 -175.5 -56.5 -175.5 -56.5C-175.5 -39.53 -175.5 -30.1 -175.5 -28.22Z" id="b2V1EbQkTK"></path><path d="M-175.5 -28.22C-175.5 -28.22 -175.5 -28.22 -175.5 -28.22C-188.1 -28.22 -195.1 -28.22 -196.5 -28.22C-196.5 -28.22 -196.5 -28.22 -196.5 -28.22C-196.5 -45.19 -196.5 -54.61 -196.5 -56.5C-196.5 -56.5 -196.5 -56.5 -196.5 -56.5C-183.9 -56.5 -176.9 -56.5 -175.5 -56.5C-175.5 -56.5 -175.5 -56.5 -175.5 -56.5C-175.5 -39.53 -175.5 -30.1 -175.5 -28.22Z" id="a1jsrTnWYQ"></path><path d="M-162.63 -29.25C-182.95 -29.25 -194.24 -29.25 -196.5 -29.25C-196.5 -29.25 -196.5 -29.25 -196.5 -29.25C-196.5 -45.6 -196.5 -54.68 -196.5 -56.5C-196.5 -56.5 -196.5 -56.5 -196.5 -56.5C-176.18 -56.5 -164.89 -56.5 -162.63 -56.5C-162.63 -56.5 -162.63 -56.5 -162.63 -56.5C-162.63 -40.15 -162.63 -31.07 -162.63 -29.25C-162.63 -29.25 -162.63 -29.25 -162.63 -29.25Z" id="b2bUQM9cZ2"></path><path d="M-162.63 -29.25C-182.95 -29.25 -194.24 -29.25 -196.5 -29.25C-196.5 -29.25 -196.5 -29.25 -196.5 -29.25C-196.5 -45.6 -196.5 -54.68 -196.5 -56.5C-196.5 -56.5 -196.5 -56.5 -196.5 -56.5C-176.18 -56.5 -164.89 -56.5 -162.63 -56.5C-162.63 -56.5 -162.63 -56.5 -162.63 -56.5C-162.63 -40.15 -162.63 -31.07 -162.63 -29.25C-162.63 -29.25 -162.63 -29.25 -162.63 -29.25Z" id="l2KfXBuqu"></path><path d="M-162.63 -29.25C-182.95 -29.25 -194.24 -29.25 -196.5 -29.25C-196.5 -29.25 -196.5 -29.25 -196.5 -29.25C-196.5 -45.6 -196.5 -54.68 -196.5 -56.5C-196.5 -56.5 -196.5 -56.5 -196.5 -56.5C-176.18 -56.5 -164.89 -56.5 -162.63 -56.5C-162.63 -56.5 -162.63 -56.5 -162.63 -56.5C-162.63 -40.15 -162.63 -31.07 -162.63 -29.25C-162.63 -29.25 -162.63 -29.25 -162.63 -29.25Z" id="h1Xi4YZLVd"></path><path d="M-162.63 -29.25C-182.95 -29.25 -194.24 -29.25 -196.5 -29.25C-196.5 -29.25 -196.5 -29.25 -196.5 -29.25C-196.5 -45.6 -196.5 -54.68 -196.5 -56.5C-196.5 -56.5 -196.5 -56.5 -196.5 -56.5C-176.18 -56.5 -164.89 -56.5 -162.63 -56.5C-162.63 -56.5 -162.63 -56.5 -162.63 -56.5C-162.63 -40.15 -162.63 -31.07 -162.63 -29.25C-162.63 -29.25 -162.63 -29.25 -162.63 -29.25Z" id="e14nkwqWJz"></path><path d="M-162.63 -29.25C-182.95 -29.25 -194.24 -29.25 -196.5 -29.25C-196.5 -29.25 -196.5 -29.25 -196.5 -29.25C-196.5 -45.6 -196.5 -54.68 -196.5 -56.5C-196.5 -56.5 -196.5 -56.5 -196.5 -56.5C-176.18 -56.5 -164.89 -56.5 -162.63 -56.5C-162.63 -56.5 -162.63 -56.5 -162.63 -56.5C-162.63 -40.15 -162.63 -31.07 -162.63 -29.25C-162.63 -29.25 -162.63 -29.25 -162.63 -29.25Z" id="a1TFbiTnVW"></path><path d="M-162.63 -29.25C-182.95 -29.25 -194.24 -29.25 -196.5 -29.25C-196.5 -29.25 -196.5 -29.25 -196.5 -29.25C-196.5 -45.6 -196.5 -54.68 -196.5 -56.5C-196.5 -56.5 -196.5 -56.5 -196.5 -56.5C-176.18 -56.5 -164.89 -56.5 -162.63 -56.5C-162.63 -56.5 -162.63 -56.5 -162.63 -56.5C-162.63 -40.15 -162.63 -31.07 -162.63 -29.25C-162.63 -29.25 -162.63 -29.25 -162.63 -29.25Z" id="g4RjcimZ3z"></path><path d="M-162.63 -29.25C-182.95 -29.25 -194.24 -29.25 -196.5 -29.25C-196.5 -29.25 -196.5 -29.25 -196.5 -29.25C-196.5 -45.6 -196.5 -54.68 -196.5 -56.5C-196.5 -56.5 -196.5 -56.5 -196.5 -56.5C-176.18 -56.5 -164.89 -56.5 -162.63 -56.5C-162.63 -56.5 -162.63 -56.5 -162.63 -56.5C-162.63 -40.15 -162.63 -31.07 -162.63 -29.25C-162.63 -29.25 -162.63 -29.25 -162.63 -29.25Z" id="b19zAq2JuX"></path><path d="M-162.63 -29.25C-182.95 -29.25 -194.24 -29.25 -196.5 -29.25C-196.5 -29.25 -196.5 -29.25 -196.5 -29.25C-196.5 -45.6 -196.5 -54.68 -196.5 -56.5C-196.5 -56.5 -196.5 -56.5 -196.5 -56.5C-176.18 -56.5 -164.89 -56.5 -162.63 -56.5C-162.63 -56.5 -162.63 -56.5 -162.63 -56.5C-162.63 -40.15 -162.63 -31.07 -162.63 -29.25C-162.63 -29.25 -162.63 -29.25 -162.63 -29.25Z" id="a5fhnmYzTg"></path><path d="M-171.1 -35.5C-171.1 -35.5 -171.1 -35.5 -171.1 -35.5C-186.34 -35.5 -194.81 -35.5 -196.5 -35.5C-196.5 -35.5 -196.5 -35.5 -196.5 -35.5C-196.5 -48.1 -196.5 -55.1 -196.5 -56.5C-196.5 -56.5 -196.5 -56.5 -196.5 -56.5C-181.26 -56.5 -172.8 -56.5 -171.1 -56.5C-171.1 -56.5 -171.1 -56.5 -171.1 -56.5C-171.1 -43.9 -171.1 -36.9 -171.1 -35.5Z" id="hfZ9Z4tHa"></path><path d="M-171.1 -35.5C-171.1 -35.5 -171.1 -35.5 -171.1 -35.5C-186.34 -35.5 -194.81 -35.5 -196.5 -35.5C-196.5 -35.5 -196.5 -35.5 -196.5 -35.5C-196.5 -48.1 -196.5 -55.1 -196.5 -56.5C-196.5 -56.5 -196.5 -56.5 -196.5 -56.5C-181.26 -56.5 -172.8 -56.5 -171.1 -56.5C-171.1 -56.5 -171.1 -56.5 -171.1 -56.5C-171.1 -43.9 -171.1 -36.9 -171.1 -35.5Z" id="g1VxXqhgFu"></path><path d="M-171.1 -35.5C-171.1 -35.5 -171.1 -35.5 -171.1 -35.5C-186.34 -35.5 -194.81 -35.5 -196.5 -35.5C-196.5 -35.5 -196.5 -35.5 -196.5 -35.5C-196.5 -48.1 -196.5 -55.1 -196.5 -56.5C-196.5 -56.5 -196.5 -56.5 -196.5 -56.5C-181.26 -56.5 -172.8 -56.5 -171.1 -56.5C-171.1 -56.5 -171.1 -56.5 -171.1 -56.5C-171.1 -43.9 -171.1 -36.9 -171.1 -35.5Z" id="auM6Hgowi"></path><path d="M-171.1 -35.5C-171.1 -35.5 -171.1 -35.5 -171.1 -35.5C-186.34 -35.5 -194.81 -35.5 -196.5 -35.5C-196.5 -35.5 -196.5 -35.5 -196.5 -35.5C-196.5 -48.1 -196.5 -55.1 -196.5 -56.5C-196.5 -56.5 -196.5 -56.5 -196.5 -56.5C-181.26 -56.5 -172.8 -56.5 -171.1 -56.5C-171.1 -56.5 -171.1 -56.5 -171.1 -56.5C-171.1 -43.9 -171.1 -36.9 -171.1 -35.5Z" id="e1wR0eWHET"></path><path d="M-162.63 -29.25C-162.63 -29.25 -162.63 -29.25 -162.63 -29.25C-182.95 -29.25 -194.24 -29.25 -196.5 -29.25C-196.5 -29.25 -196.5 -29.25 -196.5 -29.25C-196.5 -45.6 -196.5 -54.68 -196.5 -56.5C-196.5 -56.5 -196.5 -56.5 -196.5 -56.5C-176.18 -56.5 -164.89 -56.5 -162.63 -56.5C-162.63 -56.5 -162.63 -56.5 -162.63 -56.5C-162.63 -40.15 -162.63 -31.07 -162.63 -29.25Z" id="a2RKrTZgOi"></path><path d="M-162.63 -29.25C-162.63 -29.25 -162.63 -29.25 -162.63 -29.25C-182.95 -29.25 -194.24 -29.25 -196.5 -29.25C-196.5 -29.25 -196.5 -29.25 -196.5 -29.25C-196.5 -45.6 -196.5 -54.68 -196.5 -56.5C-196.5 -56.5 -196.5 -56.5 -196.5 -56.5C-176.18 -56.5 -164.89 -56.5 -162.63 -56.5C-162.63 -56.5 -162.63 -56.5 -162.63 -56.5C-162.63 -40.15 -162.63 -31.07 -162.63 -29.25Z" id="eFv6FIwB3"></path><path d="M-162.63 -29.25C-162.63 -29.25 -162.63 -29.25 -162.63 -29.25C-182.95 -29.25 -194.24 -29.25 -196.5 -29.25C-196.5 -29.25 -196.5 -29.25 -196.5 -29.25C-196.5 -45.6 -196.5 -54.68 -196.5 -56.5C-196.5 -56.5 -196.5 -56.5 -196.5 -56.5C-176.18 -56.5 -164.89 -56.5 -162.63 -56.5C-162.63 -56.5 -162.63 -56.5 -162.63 -56.5C-162.63 -40.15 -162.63 -31.07 -162.63 -29.25Z" id="b4lKhwUYsQ"></path><path d="M-162.63 -29.25C-162.63 -29.25 -162.63 -29.25 -162.63 -29.25C-182.95 -29.25 -194.24 -29.25 -196.5 -29.25C-196.5 -29.25 -196.5 -29.25 -196.5 -29.25C-196.5 -45.6 -196.5 -54.68 -196.5 -56.5C-196.5 -56.5 -196.5 -56.5 -196.5 -56.5C-176.18 -56.5 -164.89 -56.5 -162.63 -56.5C-162.63 -56.5 -162.63 -56.5 -162.63 -56.5C-162.63 -40.15 -162.63 -31.07 -162.63 -29.25Z" id="b1swZemahU"></path><path d="M-175.5 -28.22C-175.5 -28.22 -175.5 -28.22 -175.5 -28.22C-188.1 -28.22 -195.1 -28.22 -196.5 -28.22C-196.5 -28.22 -196.5 -28.22 -196.5 -28.22C-196.5 -45.19 -196.5 -54.61 -196.5 -56.5C-196.5 -56.5 -196.5 -56.5 -196.5 -56.5C-183.9 -56.5 -176.9 -56.5 -175.5 -56.5C-175.5 -56.5 -175.5 -56.5 -175.5 -56.5C-175.5 -39.53 -175.5 -30.1 -175.5 -28.22Z" id="azjvm8EXo"></path><path d="M-175.5 -28.22C-175.5 -28.22 -175.5 -28.22 -175.5 -28.22C-188.1 -28.22 -195.1 -28.22 -196.5 -28.22C-196.5 -28.22 -196.5 -28.22 -196.5 -28.22C-196.5 -45.19 -196.5 -54.61 -196.5 -56.5C-196.5 -56.5 -196.5 -56.5 -196.5 -56.5C-183.9 -56.5 -176.9 -56.5 -175.5 -56.5C-175.5 -56.5 -175.5 -56.5 -175.5 -56.5C-175.5 -39.53 -175.5 -30.1 -175.5 -28.22Z" id="aezi8NwZ0"></path><path d="M-175.5 -28.22C-175.5 -28.22 -175.5 -28.22 -175.5 -28.22C-188.1 -28.22 -195.1 -28.22 -196.5 -28.22C-196.5 -28.22 -196.5 -28.22 -196.5 -28.22C-196.5 -45.19 -196.5 -54.61 -196.5 -56.5C-196.5 -56.5 -196.5 -56.5 -196.5 -56.5C-183.9 -56.5 -176.9 -56.5 -175.5 -56.5C-175.5 -56.5 -175.5 -56.5 -175.5 -56.5C-175.5 -39.53 -175.5 -30.1 -175.5 -28.22Z" id="c2cjeCzovX"></path><path d="M-175.5 -28.22C-175.5 -28.22 -175.5 -28.22 -175.5 -28.22C-188.1 -28.22 -195.1 -28.22 -196.5 -28.22C-196.5 -28.22 -196.5 -28.22 -196.5 -28.22C-196.5 -45.19 -196.5 -54.61 -196.5 -56.5C-196.5 -56.5 -196.5 -56.5 -196.5 -56.5C-183.9 -56.5 -176.9 -56.5 -175.5 -56.5C-175.5 -56.5 -175.5 -56.5 -175.5 -56.5C-175.5 -39.53 -175.5 -30.1 -175.5 -28.22Z" id="bF0J1B5M4"></path><path d="M-162.63 -29.25C-182.95 -29.25 -194.24 -29.25 -196.5 -29.25C-196.5 -29.25 -196.5 -29.25 -196.5 -29.25C-196.5 -45.6 -196.5 -54.68 -196.5 -56.5C-196.5 -56.5 -196.5 -56.5 -196.5 -56.5C-176.18 -56.5 -164.89 -56.5 -162.63 -56.5C-162.63 -56.5 -162.63 -56.5 -162.63 -56.5C-162.63 -40.15 -162.63 -31.07 -162.63 -29.25C-162.63 -29.25 -162.63 -29.25 -162.63 -29.25Z" id="d9JCYc8Xr"></path><path d="M-162.63 -29.25C-182.95 -29.25 -194.24 -29.25 -196.5 -29.25C-196.5 -29.25 -196.5 -29.25 -196.5 -29.25C-196.5 -45.6 -196.5 -54.68 -196.5 -56.5C-196.5 -56.5 -196.5 -56.5 -196.5 -56.5C-176.18 -56.5 -164.89 -56.5 -162.63 -56.5C-162.63 -56.5 -162.63 -56.5 -162.63 -56.5C-162.63 -40.15 -162.63 -31.07 -162.63 -29.25C-162.63 -29.25 -162.63 -29.25 -162.63 -29.25Z" id="a1ZwzkDZyB"></path><path d="M-162.63 -29.25C-182.95 -29.25 -194.24 -29.25 -196.5 -29.25C-196.5 -29.25 -196.5 -29.25 -196.5 -29.25C-196.5 -45.6 -196.5 -54.68 -196.5 -56.5C-196.5 -56.5 -196.5 -56.5 -196.5 -56.5C-176.18 -56.5 -164.89 -56.5 -162.63 -56.5C-162.63 -56.5 -162.63 -56.5 -162.63 -56.5C-162.63 -40.15 -162.63 -31.07 -162.63 -29.25C-162.63 -29.25 -162.63 -29.25 -162.63 -29.25Z" id="clQQ2vVCN"></path><path d="M-162.63 -29.25C-182.95 -29.25 -194.24 -29.25 -196.5 -29.25C-196.5 -29.25 -196.5 -29.25 -196.5 -29.25C-196.5 -45.6 -196.5 -54.68 -196.5 -56.5C-196.5 -56.5 -196.5 -56.5 -196.5 -56.5C-176.18 -56.5 -164.89 -56.5 -162.63 -56.5C-162.63 -56.5 -162.63 -56.5 -162.63 -56.5C-162.63 -40.15 -162.63 -31.07 -162.63 -29.25C-162.63 -29.25 -162.63 -29.25 -162.63 -29.25Z" id="h5nCzrheyk"></path><path d="M-162.63 -29.25C-182.95 -29.25 -194.24 -29.25 -196.5 -29.25C-196.5 -29.25 -196.5 -29.25 -196.5 -29.25C-196.5 -45.6 -196.5 -54.68 -196.5 -56.5C-196.5 -56.5 -196.5 -56.5 -196.5 -56.5C-176.18 -56.5 -164.89 -56.5 -162.63 -56.5C-162.63 -56.5 -162.63 -56.5 -162.63 -56.5C-162.63 -40.15 -162.63 -31.07 -162.63 -29.25C-162.63 -29.25 -162.63 -29.25 -162.63 -29.25Z" id="axzwrDIkn"></path><path d="M-162.63 -29.25C-182.95 -29.25 -194.24 -29.25 -196.5 -29.25C-196.5 -29.25 -196.5 -29.25 -196.5 -29.25C-196.5 -45.6 -196.5 -54.68 -196.5 -56.5C-196.5 -56.5 -196.5 -56.5 -196.5 -56.5C-176.18 -56.5 -164.89 -56.5 -162.63 -56.5C-162.63 -56.5 -162.63 -56.5 -162.63 -56.5C-162.63 -40.15 -162.63 -31.07 -162.63 -29.25C-162.63 -29.25 -162.63 -29.25 -162.63 -29.25Z" id="a2hWTCZOIr"></path><path d="M-162.63 -29.25C-182.95 -29.25 -194.24 -29.25 -196.5 -29.25C-196.5 -29.25 -196.5 -29.25 -196.5 -29.25C-196.5 -45.6 -196.5 -54.68 -196.5 -56.5C-196.5 -56.5 -196.5 -56.5 -196.5 -56.5C-176.18 -56.5 -164.89 -56.5 -162.63 -56.5C-162.63 -56.5 -162.63 -56.5 -162.63 -56.5C-162.63 -40.15 -162.63 -31.07 -162.63 -29.25C-162.63 -29.25 -162.63 -29.25 -162.63 -29.25Z" id="aNGMaj5GZ"></path><path d="M-162.63 -29.25C-182.95 -29.25 -194.24 -29.25 -196.5 -29.25C-196.5 -29.25 -196.5 -29.25 -196.5 -29.25C-196.5 -45.6 -196.5 -54.68 -196.5 -56.5C-196.5 -56.5 -196.5 -56.5 -196.5 -56.5C-176.18 -56.5 -164.89 -56.5 -162.63 -56.5C-162.63 -56.5 -162.63 -56.5 -162.63 -56.5C-162.63 -40.15 -162.63 -31.07 -162.63 -29.25C-162.63 -29.25 -162.63 -29.25 -162.63 -29.25Z" id="aWinNN2ui"></path><path d="M-171.1 -35.5C-171.1 -35.5 -171.1 -35.5 -171.1 -35.5C-186.34 -35.5 -194.81 -35.5 -196.5 -35.5C-196.5 -35.5 -196.5 -35.5 -196.5 -35.5C-196.5 -48.1 -196.5 -55.1 -196.5 -56.5C-196.5 -56.5 -196.5 -56.5 -196.5 -56.5C-181.26 -56.5 -172.8 -56.5 -171.1 -56.5C-171.1 -56.5 -171.1 -56.5 -171.1 -56.5C-171.1 -43.9 -171.1 -36.9 -171.1 -35.5Z" id="b3g08C0vj8"></path><path d="M-171.1 -35.5C-171.1 -35.5 -171.1 -35.5 -171.1 -35.5C-186.34 -35.5 -194.81 -35.5 -196.5 -35.5C-196.5 -35.5 -196.5 -35.5 -196.5 -35.5C-196.5 -48.1 -196.5 -55.1 -196.5 -56.5C-196.5 -56.5 -196.5 -56.5 -196.5 -56.5C-181.26 -56.5 -172.8 -56.5 -171.1 -56.5C-171.1 -56.5 -171.1 -56.5 -171.1 -56.5C-171.1 -43.9 -171.1 -36.9 -171.1 -35.5Z" id="a1Fn0lw55Q"></path><path d="M-171.1 -35.5C-171.1 -35.5 -171.1 -35.5 -171.1 -35.5C-186.34 -35.5 -194.81 -35.5 -196.5 -35.5C-196.5 -35.5 -196.5 -35.5 -196.5 -35.5C-196.5 -48.1 -196.5 -55.1 -196.5 -56.5C-196.5 -56.5 -196.5 -56.5 -196.5 -56.5C-181.26 -56.5 -172.8 -56.5 -171.1 -56.5C-171.1 -56.5 -171.1 -56.5 -171.1 -56.5C-171.1 -43.9 -171.1 -36.9 -171.1 -35.5Z" id="aFa2y9Z20"></path><path d="M-171.1 -35.5C-171.1 -35.5 -171.1 -35.5 -171.1 -35.5C-186.34 -35.5 -194.81 -35.5 -196.5 -35.5C-196.5 -35.5 -196.5 -35.5 -196.5 -35.5C-196.5 -48.1 -196.5 -55.1 -196.5 -56.5C-196.5 -56.5 -196.5 -56.5 -196.5 -56.5C-181.26 -56.5 -172.8 -56.5 -171.1 -56.5C-171.1 -56.5 -171.1 -56.5 -171.1 -56.5C-171.1 -43.9 -171.1 -36.9 -171.1 -35.5Z" id="b6JHKZf"></path><path d="M320 120C282.5 120 245 140.25 220 167.25C195 140.25 157.5 120 120 120C38.75 120 -30 201 -30 302.25C-30 396.75 70 538.5 220 660C370 538.5 470 396.75 470 302.25C470 201 401.25 120 320 120Z" id="aoVINEk3T"></path><path d="M320 120C282.5 120 245 140.25 220 167.25C195 140.25 157.5 120 120 120C38.75 120 -30 201 -30 302.25C-30 396.75 70 538.5 220 660C370 538.5 470 396.75 470 302.25C470 201 401.25 120 320 120Z" id="a4tsdSAiFA"></path><path d="M62.63 20C58.13 20 53.63 22.43 50.63 25.67C47.63 22.43 43.13 20 38.63 20C28.88 20 20.63 29.72 20.63 41.87C20.63 53.21 32.63 70.22 50.62 84.8C68.63 70.22 80.63 53.21 80.63 41.87C80.63 29.72 72.38 20 62.63 20Z" id="a3e7MDy7Lg"></path><path d="M62.63 20C58.13 20 53.63 22.43 50.63 25.67C47.63 22.43 43.13 20 38.63 20C28.88 20 20.63 29.72 20.63 41.87C20.63 53.21 32.63 70.22 50.62 84.8C68.63 70.22 80.63 53.21 80.63 41.87C80.63 29.72 72.38 20 62.63 20Z" id="b19n5nngWo"></path></defs><g><g><g><use xlink:href="#a4aQzbcEB" opacity="1" fill="#000000" fill-opacity="0"></use><g><use xlink:href="#a4aQzbcEB" opacity="1" fill-opacity="0" stroke="#000000" stroke-width="1" stroke-opacity="0"></use></g></g><g><use xlink:href="#a1G9aorPX7" opacity="1" fill="#000000" fill-opacity="0"></use><g><use xlink:href="#a1G9aorPX7" opacity="1" fill-opacity="0" stroke="#000000" stroke-width="1" stroke-opacity="0"></use></g></g><g><use xlink:href="#e1bMq61IYG" opacity="1" fill="#000000" fill-opacity="0"></use><g><use xlink:href="#e1bMq61IYG" opacity="1" fill-opacity="0" stroke="#000000" stroke-width="1" stroke-opacity="0"></use></g></g><g><use xlink:href="#a2fWdpVLdn" opacity="1" fill="#000000" fill-opacity="0"></use><g><use xlink:href="#a2fWdpVLdn" opacity="1" fill-opacity="0" stroke="#000000" stroke-width="1" stroke-opacity="0"></use></g></g><g><use xlink:href="#a6LNlg1MEc" opacity="1" fill="#000000" fill-opacity="0"></use><g><use xlink:href="#a6LNlg1MEc" opacity="1" fill-opacity="0" stroke="#000000" stroke-width="1" stroke-opacity="0"></use></g></g><g><use xlink:href="#bFAa5EQ0T" opacity="1" fill="#000000" fill-opacity="0"></use><g><use xlink:href="#bFAa5EQ0T" opacity="1" fill-opacity="0" stroke="#000000" stroke-width="1" stroke-opacity="0"></use></g></g><g><use xlink:href="#d4wm1ED9a0" opacity="1" fill="#000000" fill-opacity="0"></use><g><use xlink:href="#d4wm1ED9a0" opacity="1" fill-opacity="0" stroke="#000000" stroke-width="1" stroke-opacity="0"></use></g></g><g><use xlink:href="#cqlqhDQqo" opacity="1" fill="#000000" fill-opacity="0"></use><g><use xlink:href="#cqlqhDQqo" opacity="1" fill-opacity="0" stroke="#000000" stroke-width="1" stroke-opacity="0"></use></g></g><g><use xlink:href="#b3gq666W6" opacity="1" fill="#000000" fill-opacity="0"></use><g><use xlink:href="#b3gq666W6" opacity="1" fill-opacity="0" stroke="#000000" stroke-width="1" stroke-opacity="0"></use></g></g><g><use xlink:href="#agsnB9Rvc" opacity="1" fill="#000000" fill-opacity="0"></use><g><use xlink:href="#agsnB9Rvc" opacity="1" fill-opacity="0" stroke="#000000" stroke-width="1" stroke-opacity="0"></use></g></g><g><use xlink:href="#bgyz6Ij6f" opacity="1" fill="#000000" fill-opacity="0"></use><g><use xlink:href="#bgyz6Ij6f" opacity="1" fill-opacity="0" stroke="#000000" stroke-width="1" stroke-opacity="0"></use></g></g><g><use xlink:href="#a2ovX7IYpE" opacity="1" fill="#000000" fill-opacity="0"></use><g><use xlink:href="#a2ovX7IYpE" opacity="1" fill-opacity="0" stroke="#000000" stroke-width="1" stroke-opacity="0"></use></g></g><g><use xlink:href="#f1BlSkrvhw" opacity="1" fill="#000000" fill-opacity="0"></use><g><use xlink:href="#f1BlSkrvhw" opacity="1" fill-opacity="0" stroke="#000000" stroke-width="1" stroke-opacity="0"></use></g></g><g><use xlink:href="#a24uEddGZL" opacity="1" fill="#000000" fill-opacity="0"></use><g><use xlink:href="#a24uEddGZL" opacity="1" fill-opacity="0" stroke="#000000" stroke-width="1" stroke-opacity="0"></use></g></g><g><use xlink:href="#b7EHGaKMO" opacity="1" fill="#000000" fill-opacity="0"></use><g><use xlink:href="#b7EHGaKMO" opacity="1" fill-opacity="0" stroke="#000000" stroke-width="1" stroke-opacity="0"></use></g></g><g><use xlink:href="#a9PLhgt6D" opacity="1" fill="#000000" fill-opacity="0"></use><g><use xlink:href="#a9PLhgt6D" opacity="1" fill-opacity="0" stroke="#000000" stroke-width="1" stroke-opacity="0"></use></g></g><g><use xlink:href="#b2g83F0CU5" opacity="1" fill="#000000" fill-opacity="0"></use><g><use xlink:href="#b2g83F0CU5" opacity="1" fill-opacity="0" stroke="#000000" stroke-width="1" stroke-opacity="0"></use></g></g><g><use xlink:href="#byHfnnndp" opacity="1" fill="#000000" fill-opacity="0"></use><g><use xlink:href="#byHfnnndp" opacity="1" fill-opacity="0" stroke="#000000" stroke-width="1" stroke-opacity="0"></use></g></g><g><use xlink:href="#b2pCuWk5V6" opacity="1" fill="#000000" fill-opacity="0"></use><g><use xlink:href="#b2pCuWk5V6" opacity="1" fill-opacity="0" stroke="#000000" stroke-width="1" stroke-opacity="0"></use></g></g><g><use xlink:href="#e1UPYWcxkb" opacity="1" fill="#000000" fill-opacity="0"></use><g><use xlink:href="#e1UPYWcxkb" opacity="1" fill-opacity="0" stroke="#000000" stroke-width="1" stroke-opacity="0"></use></g></g><g><g><filter id="shadow1437651" x="17.79" y="18" width="406.71" height="604" filterUnits="userSpaceOnUse" primitiveUnits="userSpaceOnUse"><feFlood></feFlood><feComposite in2="SourceAlpha" operator="in"></feComposite><feGaussianBlur stdDeviation="1.73"></feGaussianBlur><feOffset dx="0" dy="0" result="afterOffset"></feOffset><feFlood flood-color="#b71c1c" flood-opacity="0.5"></feFlood><feComposite in2="afterOffset" operator="in"></feComposite><feMorphology operator="dilate" radius="1"></feMorphology><feComposite in2="SourceAlpha" operator="out"></feComposite></filter><path d="M412.5 111.15C412.5 210.92 412.5 429.08 412.5 528.85C412.5 573.67 376.43 610 331.94 610C271.51 610 170.79 610 110.36 610C65.86 610 29.79 573.67 29.79 528.85C29.79 429.08 29.79 210.92 29.79 111.15C29.79 66.33 65.86 30 110.36 30C170.79 30 271.51 30 331.94 30C376.43 30 412.5 66.33 412.5 111.15Z" id="a6QD9kujR" fill="white" fill-opacity="1" filter="url(#shadow1437651)"></path></g><g><use xlink:href="#be3WD1LLr" opacity="1" fill-opacity="0" stroke="#b71c1c" stroke-width="2" stroke-opacity="1"></use></g><g><filter id="shadow14351194" x="17.79" y="18" width="406.71" height="604" filterUnits="userSpaceOnUse" primitiveUnits="userSpaceOnUse"><feFlood></feFlood><feComposite in2="SourceAlpha" operator="out"></feComposite><feGaussianBlur stdDeviation="1.73"></feGaussianBlur><feOffset dx="0" dy="0" result="afterOffset"></feOffset><feFlood flood-color="#b71c1c" flood-opacity="0.5"></feFlood><feComposite in2="afterOffset" operator="in"></feComposite><feMorphology operator="dilate" radius="1"></feMorphology><feComposite in2="SourceAlpha" operator="in"></feComposite></filter><path d="M412.5 111.15C412.5 210.92 412.5 429.08 412.5 528.85C412.5 573.67 376.43 610 331.94 610C271.51 610 170.79 610 110.36 610C65.86 610 29.79 573.67 29.79 528.85C29.79 429.08 29.79 210.92 29.79 111.15C29.79 66.33 65.86 30 110.36 30C170.79 30 271.51 30 331.94 30C376.43 30 412.5 66.33 412.5 111.15Z" id="d3rxlyudMw" fill="white" fill-opacity="1" filter="url(#shadow14351194)"></path></g></g><g><g><filter id="shadow9114620" x="-12" y="-12" width="464" height="25.88" filterUnits="userSpaceOnUse" primitiveUnits="userSpaceOnUse"><feFlood></feFlood><feComposite in2="SourceAlpha" operator="in"></feComposite><feGaussianBlur stdDeviation="1.73"></feGaussianBlur><feOffset dx="0" dy="0" result="afterOffset"></feOffset><feFlood flood-color="#000000" flood-opacity="0.5"></feFlood><feComposite in2="afterOffset" operator="in"></feComposite><feMorphology operator="dilate" radius="1"></feMorphology><feComposite in2="SourceAlpha" operator="out"></feComposite></filter><path d="M0 0L440 0L440 1.88L0 1.88L0 0Z" id="essC86nQ3" fill="white" fill-opacity="1" filter="url(#shadow9114620)"></path></g><use xlink:href="#bd7K2CeW6" opacity="1" fill="#b71c1c" fill-opacity="1"></use></g><g><g><filter id="shadow6434798" x="426.17" y="-12" width="25.83" height="664" filterUnits="userSpaceOnUse" primitiveUnits="userSpaceOnUse"><feFlood></feFlood><feComposite in2="SourceAlpha" operator="in"></feComposite><feGaussianBlur stdDeviation="1.73"></feGaussianBlur><feOffset dx="0" dy="0" result="afterOffset"></feOffset><feFlood flood-color="#000000" flood-opacity="0.5"></feFlood><feComposite in2="afterOffset" operator="in"></feComposite><feMorphology operator="dilate" radius="1"></feMorphology><feComposite in2="SourceAlpha" operator="out"></feComposite></filter><path d="M440 0L440 640L438.17 640L438.17 0L440 0Z" id="gaL3MORM" fill="white" fill-opacity="1" filter="url(#shadow6434798)"></path></g><use xlink:href="#h4GofDRFG" opacity="1" fill="#b71c1c" fill-opacity="1"></use></g><g><g><filter id="shadow14591478" x="-12" y="-12" width="25.83" height="664" filterUnits="userSpaceOnUse" primitiveUnits="userSpaceOnUse"><feFlood></feFlood><feComposite in2="SourceAlpha" operator="in"></feComposite><feGaussianBlur stdDeviation="1.73"></feGaussianBlur><feOffset dx="0" dy="0" result="afterOffset"></feOffset><feFlood flood-color="#000000" flood-opacity="0.5"></feFlood><feComposite in2="afterOffset" operator="in"></feComposite><feMorphology operator="dilate" radius="1"></feMorphology><feComposite in2="SourceAlpha" operator="out"></feComposite></filter><path d="M1.83 0L1.83 640L0 640L0 0L1.83 0Z" id="e4iqhctPu" fill="white" fill-opacity="1" filter="url(#shadow14591478)"></path></g><use xlink:href="#a2gML94IEp" opacity="1" fill="#b71c1c" fill-opacity="1"></use></g><g><g><filter id="shadow13692664" x="-12" y="626.13" width="464" height="25.88" filterUnits="userSpaceOnUse" primitiveUnits="userSpaceOnUse"><feFlood></feFlood><feComposite in2="SourceAlpha" operator="in"></feComposite><feGaussianBlur stdDeviation="1.73"></feGaussianBlur><feOffset dx="0" dy="0" result="afterOffset"></feOffset><feFlood flood-color="#000000" flood-opacity="0.5"></feFlood><feComposite in2="afterOffset" operator="in"></feComposite><feMorphology operator="dilate" radius="1"></feMorphology><feComposite in2="SourceAlpha" operator="out"></feComposite></filter><path d="M0 638.13L440 638.13L440 640L0 640L0 638.13Z" id="g1lRf6UOYK" fill="white" fill-opacity="1" filter="url(#shadow13692664)"></path></g><use xlink:href="#ankYBV9f" opacity="1" fill="#b71c1c" fill-opacity="1"></use></g><g><use xlink:href="#a1BlUpMbi4" opacity="1" fill="#000000" fill-opacity="0"></use><g><use xlink:href="#a1BlUpMbi4" opacity="1" fill-opacity="0" stroke="#000000" stroke-width="1" stroke-opacity="0"></use></g></g><g><use xlink:href="#fvYjZf7MM" opacity="1" fill="#000000" fill-opacity="0"></use><g><use xlink:href="#fvYjZf7MM" opacity="1" fill-opacity="0" stroke="#000000" stroke-width="1" stroke-opacity="0"></use></g></g><g><use xlink:href="#a2Sa553Y" opacity="1" fill="#000000" fill-opacity="0"></use><g><use xlink:href="#a2Sa553Y" opacity="1" fill-opacity="0" stroke="#000000" stroke-width="1" stroke-opacity="0"></use></g></g><g><use xlink:href="#ai7iks86w" opacity="1" fill="#000000" fill-opacity="0"></use><g><use xlink:href="#ai7iks86w" opacity="1" fill-opacity="0" stroke="#000000" stroke-width="1" stroke-opacity="0"></use></g></g><g><use xlink:href="#a1mI0m3PL8" opacity="1" fill="#000000" fill-opacity="0"></use><g><use xlink:href="#a1mI0m3PL8" opacity="1" fill-opacity="0" stroke="#000000" stroke-width="1" stroke-opacity="0"></use></g></g><g><use xlink:href="#f896SM6alh" opacity="1" fill="#000000" fill-opacity="0"></use><g><use xlink:href="#f896SM6alh" opacity="1" fill-opacity="0" stroke="#000000" stroke-width="1" stroke-opacity="0"></use></g></g><g><use xlink:href="#b2V1EbQkTK" opacity="1" fill="#000000" fill-opacity="0"></use><g><use xlink:href="#b2V1EbQkTK" opacity="1" fill-opacity="0" stroke="#000000" stroke-width="1" stroke-opacity="0"></use></g></g><g><use xlink:href="#a1jsrTnWYQ" opacity="1" fill="#000000" fill-opacity="0"></use><g><use xlink:href="#a1jsrTnWYQ" opacity="1" fill-opacity="0" stroke="#000000" stroke-width="1" stroke-opacity="0"></use></g></g><g><use xlink:href="#b2bUQM9cZ2" opacity="1" fill="#000000" fill-opacity="0"></use><g><use xlink:href="#b2bUQM9cZ2" opacity="1" fill-opacity="0" stroke="#000000" stroke-width="1" stroke-opacity="0"></use></g></g><g><use xlink:href="#l2KfXBuqu" opacity="1" fill="#000000" fill-opacity="0"></use><g><use xlink:href="#l2KfXBuqu" opacity="1" fill-opacity="0" stroke="#000000" stroke-width="1" stroke-opacity="0"></use></g></g><g><use xlink:href="#h1Xi4YZLVd" opacity="1" fill="#000000" fill-opacity="0"></use><g><use xlink:href="#h1Xi4YZLVd" opacity="1" fill-opacity="0" stroke="#000000" stroke-width="1" stroke-opacity="0"></use></g></g><g><use xlink:href="#e14nkwqWJz" opacity="1" fill="#000000" fill-opacity="0"></use><g><use xlink:href="#e14nkwqWJz" opacity="1" fill-opacity="0" stroke="#000000" stroke-width="1" stroke-opacity="0"></use></g></g><g><use xlink:href="#a1TFbiTnVW" opacity="1" fill="#000000" fill-opacity="0"></use><g><use xlink:href="#a1TFbiTnVW" opacity="1" fill-opacity="0" stroke="#000000" stroke-width="1" stroke-opacity="0"></use></g></g><g><use xlink:href="#g4RjcimZ3z" opacity="1" fill="#000000" fill-opacity="0"></use><g><use xlink:href="#g4RjcimZ3z" opacity="1" fill-opacity="0" stroke="#000000" stroke-width="1" stroke-opacity="0"></use></g></g><g><use xlink:href="#b19zAq2JuX" opacity="1" fill="#000000" fill-opacity="0"></use><g><use xlink:href="#b19zAq2JuX" opacity="1" fill-opacity="0" stroke="#000000" stroke-width="1" stroke-opacity="0"></use></g></g><g><use xlink:href="#a5fhnmYzTg" opacity="1" fill="#000000" fill-opacity="0"></use><g><use xlink:href="#a5fhnmYzTg" opacity="1" fill-opacity="0" stroke="#000000" stroke-width="1" stroke-opacity="0"></use></g></g><g><use xlink:href="#hfZ9Z4tHa" opacity="1" fill="#000000" fill-opacity="0"></use><g><use xlink:href="#hfZ9Z4tHa" opacity="1" fill-opacity="0" stroke="#000000" stroke-width="1" stroke-opacity="0"></use></g></g><g><use xlink:href="#g1VxXqhgFu" opacity="1" fill="#000000" fill-opacity="0"></use><g><use xlink:href="#g1VxXqhgFu" opacity="1" fill-opacity="0" stroke="#000000" stroke-width="1" stroke-opacity="0"></use></g></g><g><use xlink:href="#auM6Hgowi" opacity="1" fill="#000000" fill-opacity="0"></use><g><use xlink:href="#auM6Hgowi" opacity="1" fill-opacity="0" stroke="#000000" stroke-width="1" stroke-opacity="0"></use></g></g><g><use xlink:href="#e1wR0eWHET" opacity="1" fill="#000000" fill-opacity="0"></use><g><use xlink:href="#e1wR0eWHET" opacity="1" fill-opacity="0" stroke="#000000" stroke-width="1" stroke-opacity="0"></use></g></g><g><use xlink:href="#a2RKrTZgOi" opacity="1" fill="#000000" fill-opacity="0"></use><g><use xlink:href="#a2RKrTZgOi" opacity="1" fill-opacity="0" stroke="#000000" stroke-width="1" stroke-opacity="0"></use></g></g><g><use xlink:href="#eFv6FIwB3" opacity="1" fill="#000000" fill-opacity="0"></use><g><use xlink:href="#eFv6FIwB3" opacity="1" fill-opacity="0" stroke="#000000" stroke-width="1" stroke-opacity="0"></use></g></g><g><use xlink:href="#b4lKhwUYsQ" opacity="1" fill="#000000" fill-opacity="0"></use><g><use xlink:href="#b4lKhwUYsQ" opacity="1" fill-opacity="0" stroke="#000000" stroke-width="1" stroke-opacity="0"></use></g></g><g><use xlink:href="#b1swZemahU" opacity="1" fill="#000000" fill-opacity="0"></use><g><use xlink:href="#b1swZemahU" opacity="1" fill-opacity="0" stroke="#000000" stroke-width="1" stroke-opacity="0"></use></g></g><g><use xlink:href="#azjvm8EXo" opacity="1" fill="#000000" fill-opacity="0"></use><g><use xlink:href="#azjvm8EXo" opacity="1" fill-opacity="0" stroke="#000000" stroke-width="1" stroke-opacity="0"></use></g></g><g><use xlink:href="#aezi8NwZ0" opacity="1" fill="#000000" fill-opacity="0"></use><g><use xlink:href="#aezi8NwZ0" opacity="1" fill-opacity="0" stroke="#000000" stroke-width="1" stroke-opacity="0"></use></g></g><g><use xlink:href="#c2cjeCzovX" opacity="1" fill="#000000" fill-opacity="0"></use><g><use xlink:href="#c2cjeCzovX" opacity="1" fill-opacity="0" stroke="#000000" stroke-width="1" stroke-opacity="0"></use></g></g><g><use xlink:href="#bF0J1B5M4" opacity="1" fill="#000000" fill-opacity="0"></use><g><use xlink:href="#bF0J1B5M4" opacity="1" fill-opacity="0" stroke="#000000" stroke-width="1" stroke-opacity="0"></use></g></g><g><use xlink:href="#d9JCYc8Xr" opacity="1" fill="#000000" fill-opacity="0"></use><g><use xlink:href="#d9JCYc8Xr" opacity="1" fill-opacity="0" stroke="#000000" stroke-width="1" stroke-opacity="0"></use></g></g><g><use xlink:href="#a1ZwzkDZyB" opacity="1" fill="#000000" fill-opacity="0"></use><g><use xlink:href="#a1ZwzkDZyB" opacity="1" fill-opacity="0" stroke="#000000" stroke-width="1" stroke-opacity="0"></use></g></g><g><use xlink:href="#clQQ2vVCN" opacity="1" fill="#000000" fill-opacity="0"></use><g><use xlink:href="#clQQ2vVCN" opacity="1" fill-opacity="0" stroke="#000000" stroke-width="1" stroke-opacity="0"></use></g></g><g><use xlink:href="#h5nCzrheyk" opacity="1" fill="#000000" fill-opacity="0"></use><g><use xlink:href="#h5nCzrheyk" opacity="1" fill-opacity="0" stroke="#000000" stroke-width="1" stroke-opacity="0"></use></g></g><g><use xlink:href="#axzwrDIkn" opacity="1" fill="#000000" fill-opacity="0"></use><g><use xlink:href="#axzwrDIkn" opacity="1" fill-opacity="0" stroke="#000000" stroke-width="1" stroke-opacity="0"></use></g></g><g><use xlink:href="#a2hWTCZOIr" opacity="1" fill="#000000" fill-opacity="0"></use><g><use xlink:href="#a2hWTCZOIr" opacity="1" fill-opacity="0" stroke="#000000" stroke-width="1" stroke-opacity="0"></use></g></g><g><use xlink:href="#aNGMaj5GZ" opacity="1" fill="#000000" fill-opacity="0"></use><g><use xlink:href="#aNGMaj5GZ" opacity="1" fill-opacity="0" stroke="#000000" stroke-width="1" stroke-opacity="0"></use></g></g><g><use xlink:href="#aWinNN2ui" opacity="1" fill="#000000" fill-opacity="0"></use><g><use xlink:href="#aWinNN2ui" opacity="1" fill-opacity="0" stroke="#000000" stroke-width="1" stroke-opacity="0"></use></g></g><g><use xlink:href="#b3g08C0vj8" opacity="1" fill="#000000" fill-opacity="0"></use><g><use xlink:href="#b3g08C0vj8" opacity="1" fill-opacity="0" stroke="#000000" stroke-width="1" stroke-opacity="0"></use></g></g><g><use xlink:href="#a1Fn0lw55Q" opacity="1" fill="#000000" fill-opacity="0"></use><g><use xlink:href="#a1Fn0lw55Q" opacity="1" fill-opacity="0" stroke="#000000" stroke-width="1" stroke-opacity="0"></use></g></g><g><use xlink:href="#aFa2y9Z20" opacity="1" fill="#000000" fill-opacity="0"></use><g><use xlink:href="#aFa2y9Z20" opacity="1" fill-opacity="0" stroke="#000000" stroke-width="1" stroke-opacity="0"></use></g></g><g><use xlink:href="#b6JHKZf" opacity="1" fill="#000000" fill-opacity="0"></use><g><use xlink:href="#b6JHKZf" opacity="1" fill-opacity="0" stroke="#000000" stroke-width="1" stroke-opacity="0"></use></g></g><g><use xlink:href="#aoVINEk3T" opacity="1" fill="#b71c1c" fill-opacity="1"></use><g><use xlink:href="#aoVINEk3T" opacity="1" fill-opacity="0" stroke="#000000" stroke-width="1" stroke-opacity="0"></use></g></g><g><g><filter id="shadow5149448" x="-42" y="108" width="524" height="564" filterUnits="userSpaceOnUse" primitiveUnits="userSpaceOnUse"><feFlood></feFlood><feComposite in2="SourceAlpha" operator="in"></feComposite><feGaussianBlur stdDeviation="1.73"></feGaussianBlur><feOffset dx="0" dy="0" result="afterOffset"></feOffset><feFlood flood-color="#b71c1c" flood-opacity="0.5"></feFlood><feComposite in2="afterOffset" operator="in"></feComposite><feMorphology operator="dilate" radius="1"></feMorphology><feComposite in2="SourceAlpha" operator="out"></feComposite></filter><path d="M320 120C282.5 120 245 140.25 220 167.25C195 140.25 157.5 120 120 120C38.75 120 -30 201 -30 302.25C-30 396.75 70 538.5 220 660C370 538.5 470 396.75 470 302.25C470 201 401.25 120 320 120Z" id="a2l62Osm4G" fill="white" fill-opacity="1" filter="url(#shadow5149448)"></path></g><use xlink:href="#a4tsdSAiFA" opacity="1" fill="#b71c1c" fill-opacity="1"></use><g><use xlink:href="#a4tsdSAiFA" opacity="1" fill-opacity="0" stroke="#000000" stroke-width="0" stroke-opacity="1"></use></g></g><g><use xlink:href="#a3e7MDy7Lg" opacity="1" fill="#b71c1c" fill-opacity="1"></use><g><use xlink:href="#a3e7MDy7Lg" opacity="1" fill-opacity="0" stroke="#000000" stroke-width="1" stroke-opacity="0"></use></g></g><g><g><filter id="shadow13141339" x="8.63" y="8" width="84" height="88.8" filterUnits="userSpaceOnUse" primitiveUnits="userSpaceOnUse"><feFlood></feFlood><feComposite in2="SourceAlpha" operator="in"></feComposite><feGaussianBlur stdDeviation="1.73"></feGaussianBlur><feOffset dx="0" dy="0" result="afterOffset"></feOffset><feFlood flood-color="#b71c1c" flood-opacity="0.5"></feFlood><feComposite in2="afterOffset" operator="in"></feComposite><feMorphology operator="dilate" radius="1"></feMorphology><feComposite in2="SourceAlpha" operator="out"></feComposite></filter><path d="M62.63 20C58.13 20 53.63 22.43 50.63 25.67C47.63 22.43 43.13 20 38.63 20C28.88 20 20.63 29.72 20.63 41.87C20.63 53.21 32.63 70.22 50.62 84.8C68.63 70.22 80.63 53.21 80.63 41.87C80.63 29.72 72.38 20 62.63 20Z" id="d56Hy326L" fill="white" fill-opacity="1" filter="url(#shadow13141339)"></path></g><use xlink:href="#b19n5nngWo" opacity="1" fill="#b71c1c" fill-opacity="1"></use><g><use xlink:href="#b19n5nngWo" opacity="1" fill-opacity="0" stroke="#000000" stroke-width="0" stroke-opacity="1"></use></g></g></g></g></svg>