<?xml version="1.0" encoding="UTF-8" standalone="no"?>
<!DOCTYPE svg PUBLIC "-//W3C//DTD SVG 1.1//EN" "http://www.w3.org/Graphics/SVG/1.1/DTD/svg11.dtd">
<svg version="1.1" xmlns="http://www.w3.org/2000/svg" xmlns:xlink="http://www.w3.org/1999/xlink" preserveAspectRatio="xMidYMid meet" viewBox="0 0 640 640" width="640" height="640"><defs><path d="M0 50L640 50L640 590L0 590L0 50Z" id="a1Dha6LtF2"></path><path d="M100 48.65C100 75.5 77.6 97.3 50 97.3C22.4 97.3 0 75.5 0 48.65C0 21.8 22.4 0 50 0C77.6 0 100 21.8 100 48.65Z" id="d3go1Ezsul"></path><path d="M171.51 320L254 402.49L320 336.5L369.5 386L303.5 451.99L369.49 517.99L319.99 567.49L204.5 451.99L204.5 451.99L122.01 369.49L122.01 369.49L72.51 319.99L72.51 319.99L320.01 72.51L369.5 122.01L171.51 320ZM320 204.51L320 204.51L386 138.51L386 138.51L435.5 188.01L517.99 270.51L517.99 270.51L567.47 319.99L567.49 320.01L550.99 336.5L518 369.49L517.99 369.5L385.99 501.49L336.5 451.99L402.49 386L320 303.5L254 369.5L204.51 320L270.51 254L270.51 254L287 237.51L320 204.51ZM451.99 336.5L468.49 320.01L386 237.51L369.5 254.01L451.99 336.5Z" id="a4M27qvcRv"></path><path d="M100 590C100 617.6 77.6 640 50 640C22.4 640 0 617.6 0 590C0 562.4 22.4 540 50 540C77.6 540 100 562.4 100 590Z" id="b5lEflPrV"></path><path d="M50 585L590 585L590 640L50 640L50 585Z" id="ajnokDp5R"></path><path d="M640 590C640 617.6 617.6 640 590 640C562.4 640 540 617.6 540 590C540 562.4 562.4 540 590 540C617.6 540 640 562.4 640 590Z" id="dvRL09KK9"></path><path d="M640 50C640 77.6 617.6 100 590 100C562.4 100 540 77.6 540 50C540 22.4 562.4 0 590 0C617.6 0 640 22.4 640 50Z" id="e3l0bLq820"></path><path d="M50 0L590 0L590 55L50 55L50 0Z" id="c4WI3mUTlO"></path></defs><g><g><g><use xlink:href="#a1Dha6LtF2" opacity="1" fill="#cc0000" fill-opacity="1"></use></g><g><use xlink:href="#d3go1Ezsul" opacity="1" fill="#cc0000" fill-opacity="1"></use></g><g><use xlink:href="#a4M27qvcRv" opacity="1" fill="#ffffff" fill-opacity="1"></use></g><g><use xlink:href="#b5lEflPrV" opacity="1" fill="#cc0000" fill-opacity="1"></use></g><g><use xlink:href="#ajnokDp5R" opacity="1" fill="#cc0000" fill-opacity="1"></use></g><g><use xlink:href="#dvRL09KK9" opacity="1" fill="#cc0000" fill-opacity="1"></use></g><g><use xlink:href="#e3l0bLq820" opacity="1" fill="#cc0000" fill-opacity="1"></use></g><g><use xlink:href="#c4WI3mUTlO" opacity="1" fill="#cc0000" fill-opacity="1"></use></g></g></g></svg>