<?xml version="1.0" encoding="UTF-8" standalone="no"?>
<!DOCTYPE svg PUBLIC "-//W3C//DTD SVG 1.1//EN" "http://www.w3.org/Graphics/SVG/1.1/DTD/svg11.dtd">
<svg version="1.1" xmlns="http://www.w3.org/2000/svg" xmlns:xlink="http://www.w3.org/1999/xlink" preserveAspectRatio="xMidYMid meet" viewBox="0 0 640 640" width="640" height="640"><defs><path d="M640 320C640 496.61 496.61 640 320 640C143.39 640 0 496.61 0 320C0 143.39 143.39 0 320 0C496.61 0 640 143.39 640 320Z" id="a1aklHU4Qg"></path><path d="M342.55 45.91L353.65 47.04L364.6 48.6L375.42 50.59L386.08 53L396.58 55.81L406.92 59.02L417.07 62.63L427.04 66.62L436.81 70.98L446.37 75.71L455.72 80.79L464.85 86.21L473.75 91.98L482.41 98.07L490.81 104.49L498.96 111.22L506.84 118.24L514.45 125.57L521.77 133.17L528.8 141.06L535.52 149.2L541.94 157.61L548.03 166.27L553.8 175.17L559.22 184.29L564.3 193.65L569.03 203.21L573.39 212.98L577.37 222.95L580.98 233.1L584.19 243.43L587.01 253.93L589.41 264.59L591.4 275.41L592.96 286.36L594.09 297.45L594.77 308.67L595 320L594.77 331.34L594.09 342.56L592.96 353.65L591.4 364.61L589.41 375.43L587.01 386.1L584.19 396.6L580.98 406.93L577.37 417.09L573.39 427.06L569.03 436.83L564.3 446.39L559.22 455.74L553.8 464.87L548.03 473.77L541.94 482.43L535.52 490.83L528.8 498.98L521.77 506.86L514.45 514.47L506.84 521.79L498.96 528.81L490.81 535.54L482.41 541.95L473.75 548.04L464.85 553.81L455.72 559.23L446.37 564.31L436.81 569.03L427.04 573.39L417.07 577.38L406.92 580.98L396.58 584.2L386.08 587.01L375.42 589.41L364.6 591.4L353.65 592.96L342.55 594.09L331.33 594.77L320 595L308.67 594.77L297.45 594.09L286.35 592.96L275.4 591.4L264.58 589.41L253.92 587.01L243.42 584.2L233.08 580.98L222.93 577.38L212.96 573.39L203.19 569.03L193.63 564.31L184.28 559.23L175.15 553.81L166.25 548.04L157.59 541.95L149.19 535.54L141.04 528.81L133.16 521.79L125.55 514.47L118.23 506.86L111.2 498.98L104.48 490.83L98.06 482.43L91.97 473.77L86.2 464.87L80.78 455.74L75.7 446.39L70.97 436.83L66.61 427.06L62.63 417.09L59.02 406.93L55.81 396.6L52.99 386.1L50.59 375.43L48.6 364.61L47.04 353.65L45.91 342.56L45.23 331.34L45 320L45.23 308.67L45.91 297.45L47.04 286.36L48.6 275.41L50.59 264.59L52.99 253.93L55.81 243.43L59.02 233.1L62.63 222.95L66.61 212.98L70.97 203.21L75.7 193.65L80.78 184.29L86.2 175.17L91.97 166.27L98.06 157.61L104.48 149.2L111.2 141.06L118.23 133.17L125.55 125.57L133.16 118.24L141.04 111.22L149.19 104.49L157.59 98.07L166.25 91.98L175.15 86.21L184.28 80.79L193.63 75.71L203.19 70.98L212.96 66.62L222.93 62.63L233.08 59.02L243.42 55.81L253.92 53L264.58 50.59L275.4 48.6L286.35 47.04L297.45 45.91L308.67 45.23L320 45L331.33 45.23L342.55 45.91ZM270.66 284.53L270.12 284.56L269.58 284.61L269.05 284.69L268.53 284.79L268.01 284.9L267.5 285.04L267 285.19L266.51 285.37L266.03 285.56L265.56 285.77L265.09 286L264.64 286.25L264.2 286.51L263.77 286.79L263.35 287.08L262.94 287.39L262.55 287.72L262.17 288.06L261.8 288.41L261.45 288.78L261.11 289.16L260.78 289.56L260.47 289.96L260.18 290.38L259.9 290.81L259.63 291.26L259.39 291.71L259.16 292.17L258.95 292.64L258.76 293.13L258.58 293.62L258.43 294.12L258.29 294.63L258.17 295.14L258.08 295.66L258 296.19L257.95 296.73L257.91 297.27L257.9 297.82L257.9 324.44L257.91 324.98L257.95 325.53L258 326.06L258.08 326.59L258.17 327.12L258.29 327.63L258.43 328.14L258.58 328.64L258.76 329.13L258.95 329.61L259.16 330.09L259.39 330.55L259.63 331L259.9 331.44L260.18 331.88L260.47 332.29L260.78 332.7L261.11 333.09L261.45 333.48L261.8 333.84L262.17 334.2L262.55 334.54L262.94 334.86L263.35 335.17L263.77 335.47L264.2 335.75L264.64 336.01L265.09 336.26L265.56 336.49L266.03 336.7L266.51 336.89L267 337.06L267.5 337.22L268.01 337.36L268.53 337.47L269.05 337.57L269.58 337.64L270.12 337.7L270.66 337.73L271.21 337.74L284.52 337.74L284.52 408.71L271.21 408.71L270.66 408.72L270.12 408.75L269.58 408.81L269.05 408.88L268.53 408.98L268.01 409.1L267.5 409.23L267 409.39L266.51 409.56L266.03 409.76L265.56 409.97L265.09 410.2L264.64 410.44L264.2 410.7L263.77 410.98L263.35 411.28L262.94 411.59L262.55 411.91L262.17 412.25L261.8 412.61L261.45 412.98L261.11 413.36L260.78 413.75L260.47 414.16L260.18 414.58L259.9 415.01L259.63 415.45L259.39 415.9L259.16 416.36L258.95 416.84L258.76 417.32L258.58 417.81L258.43 418.31L258.29 418.82L258.17 419.33L258.08 419.86L258 420.39L257.95 420.92L257.91 421.47L257.9 422.02L257.9 448.63L257.91 449.18L257.95 449.72L258 450.26L258.08 450.79L258.17 451.31L258.29 451.83L258.43 452.33L258.58 452.83L258.76 453.33L258.95 453.81L259.16 454.28L259.39 454.74L259.63 455.2L259.9 455.64L260.18 456.07L260.47 456.49L260.78 456.89L261.11 457.29L261.45 457.67L261.8 458.04L262.17 458.39L262.55 458.73L262.94 459.06L263.35 459.37L263.77 459.66L264.2 459.94L264.64 460.2L265.09 460.45L265.56 460.68L266.03 460.89L266.51 461.08L267 461.26L267.5 461.41L268.01 461.55L268.53 461.67L269.05 461.76L269.58 461.84L270.12 461.89L270.66 461.92L271.21 461.94L368.79 461.94L369.16 461.93L369.52 461.9L369.88 461.86L370.25 461.8L370.61 461.73L370.96 461.64L371.32 461.53L371.67 461.4L372.03 461.26L372.38 461.1L372.73 460.93L373.07 460.74L373.42 460.53L373.76 460.31L374.11 460.06L374.45 459.81L374.79 459.53L375.12 459.24L375.46 458.93L375.79 458.61L376.12 458.27L376.45 457.91L376.78 457.54L377.11 457.15L377.43 456.74L377.76 456.31L378.08 455.87L378.4 455.42L378.71 454.94L379.03 454.45L379.35 453.94L379.66 453.42L379.97 452.88L380.28 452.32L380.59 451.75L380.89 451.16L381.2 450.55L381.5 449.93L381.8 449.29L382.1 448.63L382.1 422.02L382.09 421.47L382.05 420.92L382 420.39L381.92 419.86L381.83 419.33L381.71 418.82L381.57 418.31L381.42 417.81L381.24 417.32L381.05 416.84L380.84 416.36L380.61 415.9L380.37 415.45L380.1 415.01L379.82 414.58L379.53 414.16L379.22 413.75L378.89 413.36L378.55 412.98L378.2 412.61L377.83 412.25L377.45 411.91L377.06 411.59L376.65 411.28L376.23 410.98L375.8 410.7L375.36 410.44L374.91 410.2L374.44 409.97L373.97 409.76L373.49 409.56L373 409.39L372.5 409.23L371.99 409.1L371.47 408.98L370.95 408.88L370.42 408.81L369.88 408.75L369.34 408.72L368.79 408.71L355.48 408.71L355.48 297.82L355.47 297.27L355.44 296.73L355.39 296.19L355.31 295.66L355.21 295.14L355.1 294.63L354.96 294.12L354.81 293.62L354.63 293.13L354.44 292.64L354.23 292.17L354 291.71L353.75 291.26L353.49 290.81L353.21 290.38L352.92 289.96L352.61 289.56L352.28 289.16L351.94 288.78L351.59 288.41L351.22 288.06L350.84 287.72L350.44 287.39L350.04 287.08L349.62 286.79L349.19 286.51L348.74 286.25L348.29 286L347.83 285.77L347.36 285.56L346.87 285.37L346.38 285.19L345.88 285.04L345.37 284.9L344.86 284.79L344.34 284.69L343.81 284.61L343.27 284.56L342.73 284.53L342.18 284.52L271.21 284.52L270.66 284.53ZM316.18 167.13L314.3 167.32L312.45 167.59L310.61 167.92L308.81 168.33L307.03 168.81L305.28 169.35L303.56 169.96L301.87 170.64L300.22 171.37L298.6 172.17L297.01 173.03L295.47 173.95L293.96 174.93L292.49 175.96L291.07 177.05L289.69 178.19L288.36 179.38L287.07 180.62L285.83 181.9L284.64 183.24L283.5 184.62L282.41 186.04L281.38 187.51L280.41 189.02L279.49 190.56L278.63 192.15L277.83 193.77L277.09 195.42L276.41 197.11L275.8 198.83L275.26 200.58L274.78 202.36L274.37 204.16L274.04 205.99L273.77 207.85L273.58 209.73L273.47 211.63L273.43 213.55L273.47 215.47L273.58 217.37L273.77 219.25L274.04 221.1L274.37 222.93L274.78 224.74L275.26 226.52L275.8 228.27L276.41 229.99L277.09 231.68L277.83 233.33L278.63 234.95L279.49 236.53L280.41 238.08L281.38 239.59L282.41 241.05L283.5 242.48L284.64 243.86L285.83 245.19L287.07 246.48L288.36 247.72L289.69 248.91L291.07 250.05L292.49 251.14L293.96 252.17L295.47 253.14L297.01 254.06L298.6 254.92L300.22 255.72L301.87 256.46L303.56 257.14L305.28 257.75L307.03 258.29L308.81 258.77L310.61 259.17L312.45 259.51L314.3 259.78L316.18 259.97L318.08 260.08L320 260.12L321.92 260.08L323.82 259.97L325.7 259.78L327.55 259.51L329.39 259.17L331.19 258.77L332.97 258.29L334.72 257.75L336.44 257.14L338.13 256.46L339.78 255.72L341.4 254.92L342.99 254.06L344.53 253.14L346.04 252.17L347.51 251.14L348.93 250.05L350.31 248.91L351.64 247.72L352.93 246.48L354.17 245.19L355.36 243.86L356.5 242.48L357.59 241.05L358.62 239.59L359.59 238.08L360.51 236.53L361.37 234.95L362.17 233.33L362.91 231.68L363.59 229.99L364.2 228.27L364.74 226.52L365.22 224.74L365.63 222.93L365.96 221.1L366.23 219.25L366.42 217.37L366.53 215.47L366.57 213.55L366.53 211.63L366.42 209.73L366.23 207.85L365.96 205.99L365.63 204.16L365.22 202.36L364.74 200.58L364.2 198.83L363.59 197.11L362.91 195.42L362.17 193.77L361.37 192.15L360.51 190.56L359.59 189.02L358.62 187.51L357.59 186.04L356.5 184.62L355.36 183.24L354.17 181.9L352.93 180.62L351.64 179.38L350.31 178.19L348.93 177.05L347.51 175.96L346.04 174.93L344.53 173.95L342.99 173.03L341.4 172.17L339.78 171.37L338.13 170.64L336.44 169.96L334.72 169.35L332.97 168.81L331.19 168.33L329.39 167.92L327.55 167.59L325.7 167.32L323.82 167.13L321.92 167.01L320 166.98L318.08 167.01L316.18 167.13Z" id="e1xf0p4wqk"></path></defs><g><g><g><use xlink:href="#a1aklHU4Qg" opacity="1" fill="#cc0000" fill-opacity="1"></use></g><g><use xlink:href="#e1xf0p4wqk" opacity="1" fill="#ffffff" fill-opacity="1"></use></g></g></g></svg>