<?xml version="1.0" encoding="UTF-8" standalone="no"?>
<!DOCTYPE svg PUBLIC "-//W3C//DTD SVG 1.1//EN" "http://www.w3.org/Graphics/SVG/1.1/DTD/svg11.dtd">
<svg version="1.1" xmlns="http://www.w3.org/2000/svg" xmlns:xlink="http://www.w3.org/1999/xlink" preserveAspectRatio="xMidYMid meet" viewBox="0 0 440 640" width="440" height="640"><defs><path d="M-162.63 -29.25C-182.95 -29.25 -194.24 -29.25 -196.5 -29.25C-196.5 -29.25 -196.5 -29.25 -196.5 -29.25C-196.5 -45.6 -196.5 -54.68 -196.5 -56.5C-196.5 -56.5 -196.5 -56.5 -196.5 -56.5C-176.18 -56.5 -164.89 -56.5 -162.63 -56.5C-162.63 -56.5 -162.63 -56.5 -162.63 -56.5C-162.63 -40.15 -162.63 -31.07 -162.63 -29.25C-162.63 -29.25 -162.63 -29.25 -162.63 -29.25Z" id="crgzotzyF"></path><path d="M-162.63 -29.25C-182.95 -29.25 -194.24 -29.25 -196.5 -29.25C-196.5 -29.25 -196.5 -29.25 -196.5 -29.25C-196.5 -45.6 -196.5 -54.68 -196.5 -56.5C-196.5 -56.5 -196.5 -56.5 -196.5 -56.5C-176.18 -56.5 -164.89 -56.5 -162.63 -56.5C-162.63 -56.5 -162.63 -56.5 -162.63 -56.5C-162.63 -40.15 -162.63 -31.07 -162.63 -29.25C-162.63 -29.25 -162.63 -29.25 -162.63 -29.25Z" id="c11brA5Kyp"></path><path d="M-162.63 -29.25C-182.95 -29.25 -194.24 -29.25 -196.5 -29.25C-196.5 -29.25 -196.5 -29.25 -196.5 -29.25C-196.5 -45.6 -196.5 -54.68 -196.5 -56.5C-196.5 -56.5 -196.5 -56.5 -196.5 -56.5C-176.18 -56.5 -164.89 -56.5 -162.63 -56.5C-162.63 -56.5 -162.63 -56.5 -162.63 -56.5C-162.63 -40.15 -162.63 -31.07 -162.63 -29.25C-162.63 -29.25 -162.63 -29.25 -162.63 -29.25Z" id="b17UnRaZhv"></path><path d="M-162.63 -29.25C-182.95 -29.25 -194.24 -29.25 -196.5 -29.25C-196.5 -29.25 -196.5 -29.25 -196.5 -29.25C-196.5 -45.6 -196.5 -54.68 -196.5 -56.5C-196.5 -56.5 -196.5 -56.5 -196.5 -56.5C-176.18 -56.5 -164.89 -56.5 -162.63 -56.5C-162.63 -56.5 -162.63 -56.5 -162.63 -56.5C-162.63 -40.15 -162.63 -31.07 -162.63 -29.25C-162.63 -29.25 -162.63 -29.25 -162.63 -29.25Z" id="aQWwq81a2"></path><path d="M-162.63 -29.25C-182.95 -29.25 -194.24 -29.25 -196.5 -29.25C-196.5 -29.25 -196.5 -29.25 -196.5 -29.25C-196.5 -45.6 -196.5 -54.68 -196.5 -56.5C-196.5 -56.5 -196.5 -56.5 -196.5 -56.5C-176.18 -56.5 -164.89 -56.5 -162.63 -56.5C-162.63 -56.5 -162.63 -56.5 -162.63 -56.5C-162.63 -40.15 -162.63 -31.07 -162.63 -29.25C-162.63 -29.25 -162.63 -29.25 -162.63 -29.25Z" id="a2k0F5rLjb"></path><path d="M-162.63 -29.25C-182.95 -29.25 -194.24 -29.25 -196.5 -29.25C-196.5 -29.25 -196.5 -29.25 -196.5 -29.25C-196.5 -45.6 -196.5 -54.68 -196.5 -56.5C-196.5 -56.5 -196.5 -56.5 -196.5 -56.5C-176.18 -56.5 -164.89 -56.5 -162.63 -56.5C-162.63 -56.5 -162.63 -56.5 -162.63 -56.5C-162.63 -40.15 -162.63 -31.07 -162.63 -29.25C-162.63 -29.25 -162.63 -29.25 -162.63 -29.25Z" id="b4mMNh4Rz"></path><path d="M-162.63 -29.25C-182.95 -29.25 -194.24 -29.25 -196.5 -29.25C-196.5 -29.25 -196.5 -29.25 -196.5 -29.25C-196.5 -45.6 -196.5 -54.68 -196.5 -56.5C-196.5 -56.5 -196.5 -56.5 -196.5 -56.5C-176.18 -56.5 -164.89 -56.5 -162.63 -56.5C-162.63 -56.5 -162.63 -56.5 -162.63 -56.5C-162.63 -40.15 -162.63 -31.07 -162.63 -29.25C-162.63 -29.25 -162.63 -29.25 -162.63 -29.25Z" id="bejuAd3rh"></path><path d="M-162.63 -29.25C-182.95 -29.25 -194.24 -29.25 -196.5 -29.25C-196.5 -29.25 -196.5 -29.25 -196.5 -29.25C-196.5 -45.6 -196.5 -54.68 -196.5 -56.5C-196.5 -56.5 -196.5 -56.5 -196.5 -56.5C-176.18 -56.5 -164.89 -56.5 -162.63 -56.5C-162.63 -56.5 -162.63 -56.5 -162.63 -56.5C-162.63 -40.15 -162.63 -31.07 -162.63 -29.25C-162.63 -29.25 -162.63 -29.25 -162.63 -29.25Z" id="e4N5FaGGSL"></path><path d="M-175.5 -28.22C-188.1 -28.22 -195.1 -28.22 -196.5 -28.22C-196.5 -28.22 -196.5 -28.22 -196.5 -28.22C-196.5 -45.19 -196.5 -54.61 -196.5 -56.5C-196.5 -56.5 -196.5 -56.5 -196.5 -56.5C-183.9 -56.5 -176.9 -56.5 -175.5 -56.5C-175.5 -56.5 -175.5 -56.5 -175.5 -56.5C-175.5 -39.53 -175.5 -30.1 -175.5 -28.22C-175.5 -28.22 -175.5 -28.22 -175.5 -28.22Z" id="a1flj5WZwW"></path><path d="M-175.5 -28.22C-188.1 -28.22 -195.1 -28.22 -196.5 -28.22C-196.5 -28.22 -196.5 -28.22 -196.5 -28.22C-196.5 -45.19 -196.5 -54.61 -196.5 -56.5C-196.5 -56.5 -196.5 -56.5 -196.5 -56.5C-183.9 -56.5 -176.9 -56.5 -175.5 -56.5C-175.5 -56.5 -175.5 -56.5 -175.5 -56.5C-175.5 -39.53 -175.5 -30.1 -175.5 -28.22C-175.5 -28.22 -175.5 -28.22 -175.5 -28.22Z" id="c2J0I1VM4o"></path><path d="M-175.5 -28.22C-188.1 -28.22 -195.1 -28.22 -196.5 -28.22C-196.5 -28.22 -196.5 -28.22 -196.5 -28.22C-196.5 -45.19 -196.5 -54.61 -196.5 -56.5C-196.5 -56.5 -196.5 -56.5 -196.5 -56.5C-183.9 -56.5 -176.9 -56.5 -175.5 -56.5C-175.5 -56.5 -175.5 -56.5 -175.5 -56.5C-175.5 -39.53 -175.5 -30.1 -175.5 -28.22C-175.5 -28.22 -175.5 -28.22 -175.5 -28.22Z" id="g2dP3J9wah"></path><path d="M-175.5 -28.22C-188.1 -28.22 -195.1 -28.22 -196.5 -28.22C-196.5 -28.22 -196.5 -28.22 -196.5 -28.22C-196.5 -45.19 -196.5 -54.61 -196.5 -56.5C-196.5 -56.5 -196.5 -56.5 -196.5 -56.5C-183.9 -56.5 -176.9 -56.5 -175.5 -56.5C-175.5 -56.5 -175.5 -56.5 -175.5 -56.5C-175.5 -39.53 -175.5 -30.1 -175.5 -28.22C-175.5 -28.22 -175.5 -28.22 -175.5 -28.22Z" id="b2SFtruDqm"></path><path d="M-175.5 -28.22C-188.1 -28.22 -195.1 -28.22 -196.5 -28.22C-196.5 -28.22 -196.5 -28.22 -196.5 -28.22C-196.5 -45.19 -196.5 -54.61 -196.5 -56.5C-196.5 -56.5 -196.5 -56.5 -196.5 -56.5C-183.9 -56.5 -176.9 -56.5 -175.5 -56.5C-175.5 -56.5 -175.5 -56.5 -175.5 -56.5C-175.5 -39.53 -175.5 -30.1 -175.5 -28.22C-175.5 -28.22 -175.5 -28.22 -175.5 -28.22Z" id="d9zYVyn8u"></path><path d="M-175.5 -28.22C-188.1 -28.22 -195.1 -28.22 -196.5 -28.22C-196.5 -28.22 -196.5 -28.22 -196.5 -28.22C-196.5 -45.19 -196.5 -54.61 -196.5 -56.5C-196.5 -56.5 -196.5 -56.5 -196.5 -56.5C-183.9 -56.5 -176.9 -56.5 -175.5 -56.5C-175.5 -56.5 -175.5 -56.5 -175.5 -56.5C-175.5 -39.53 -175.5 -30.1 -175.5 -28.22C-175.5 -28.22 -175.5 -28.22 -175.5 -28.22Z" id="e7pUK6v9TN"></path><path d="M-175.5 -28.22C-188.1 -28.22 -195.1 -28.22 -196.5 -28.22C-196.5 -28.22 -196.5 -28.22 -196.5 -28.22C-196.5 -45.19 -196.5 -54.61 -196.5 -56.5C-196.5 -56.5 -196.5 -56.5 -196.5 -56.5C-183.9 -56.5 -176.9 -56.5 -175.5 -56.5C-175.5 -56.5 -175.5 -56.5 -175.5 -56.5C-175.5 -39.53 -175.5 -30.1 -175.5 -28.22C-175.5 -28.22 -175.5 -28.22 -175.5 -28.22Z" id="bb3lxXSQ7"></path><path d="M-175.5 -28.22C-188.1 -28.22 -195.1 -28.22 -196.5 -28.22C-196.5 -28.22 -196.5 -28.22 -196.5 -28.22C-196.5 -45.19 -196.5 -54.61 -196.5 -56.5C-196.5 -56.5 -196.5 -56.5 -196.5 -56.5C-183.9 -56.5 -176.9 -56.5 -175.5 -56.5C-175.5 -56.5 -175.5 -56.5 -175.5 -56.5C-175.5 -39.53 -175.5 -30.1 -175.5 -28.22C-175.5 -28.22 -175.5 -28.22 -175.5 -28.22Z" id="e2oN2tKVua"></path><path d="M-196.5 -29.25C-196.5 -29.25 -196.5 -29.25 -196.5 -29.25C-196.5 -45.6 -196.5 -54.68 -196.5 -56.5C-196.5 -56.5 -196.5 -56.5 -196.5 -56.5C-176.18 -56.5 -164.89 -56.5 -162.63 -56.5C-162.63 -56.5 -162.63 -56.5 -162.63 -56.5C-162.63 -40.15 -162.63 -31.07 -162.63 -29.25C-162.63 -29.25 -162.63 -29.25 -162.63 -29.25C-182.95 -29.25 -194.24 -29.25 -196.5 -29.25Z" id="bfeEgK3M2"></path><path d="M-196.5 -29.25C-196.5 -29.25 -196.5 -29.25 -196.5 -29.25C-196.5 -45.6 -196.5 -54.68 -196.5 -56.5C-196.5 -56.5 -196.5 -56.5 -196.5 -56.5C-176.18 -56.5 -164.89 -56.5 -162.63 -56.5C-162.63 -56.5 -162.63 -56.5 -162.63 -56.5C-162.63 -40.15 -162.63 -31.07 -162.63 -29.25C-162.63 -29.25 -162.63 -29.25 -162.63 -29.25C-182.95 -29.25 -194.24 -29.25 -196.5 -29.25Z" id="aY3vaG8Wx"></path><path d="M-196.5 -29.25C-196.5 -29.25 -196.5 -29.25 -196.5 -29.25C-196.5 -45.6 -196.5 -54.68 -196.5 -56.5C-196.5 -56.5 -196.5 -56.5 -196.5 -56.5C-176.18 -56.5 -164.89 -56.5 -162.63 -56.5C-162.63 -56.5 -162.63 -56.5 -162.63 -56.5C-162.63 -40.15 -162.63 -31.07 -162.63 -29.25C-162.63 -29.25 -162.63 -29.25 -162.63 -29.25C-182.95 -29.25 -194.24 -29.25 -196.5 -29.25Z" id="b4B62ISYO"></path><path d="M-196.5 -29.25C-196.5 -29.25 -196.5 -29.25 -196.5 -29.25C-196.5 -45.6 -196.5 -54.68 -196.5 -56.5C-196.5 -56.5 -196.5 -56.5 -196.5 -56.5C-176.18 -56.5 -164.89 -56.5 -162.63 -56.5C-162.63 -56.5 -162.63 -56.5 -162.63 -56.5C-162.63 -40.15 -162.63 -31.07 -162.63 -29.25C-162.63 -29.25 -162.63 -29.25 -162.63 -29.25C-182.95 -29.25 -194.24 -29.25 -196.5 -29.25Z" id="e1a4yDgUQC"></path><path d="M-196.5 -29.25C-196.5 -29.25 -196.5 -29.25 -196.5 -29.25C-196.5 -45.6 -196.5 -54.68 -196.5 -56.5C-196.5 -56.5 -196.5 -56.5 -196.5 -56.5C-176.18 -56.5 -164.89 -56.5 -162.63 -56.5C-162.63 -56.5 -162.63 -56.5 -162.63 -56.5C-162.63 -40.15 -162.63 -31.07 -162.63 -29.25C-162.63 -29.25 -162.63 -29.25 -162.63 -29.25C-182.95 -29.25 -194.24 -29.25 -196.5 -29.25Z" id="fkSkzJg0Q"></path><path d="M-196.5 -29.25C-196.5 -29.25 -196.5 -29.25 -196.5 -29.25C-196.5 -45.6 -196.5 -54.68 -196.5 -56.5C-196.5 -56.5 -196.5 -56.5 -196.5 -56.5C-176.18 -56.5 -164.89 -56.5 -162.63 -56.5C-162.63 -56.5 -162.63 -56.5 -162.63 -56.5C-162.63 -40.15 -162.63 -31.07 -162.63 -29.25C-162.63 -29.25 -162.63 -29.25 -162.63 -29.25C-182.95 -29.25 -194.24 -29.25 -196.5 -29.25Z" id="c2rRE3htpS"></path><path d="M-196.5 -29.25C-196.5 -29.25 -196.5 -29.25 -196.5 -29.25C-196.5 -45.6 -196.5 -54.68 -196.5 -56.5C-196.5 -56.5 -196.5 -56.5 -196.5 -56.5C-176.18 -56.5 -164.89 -56.5 -162.63 -56.5C-162.63 -56.5 -162.63 -56.5 -162.63 -56.5C-162.63 -40.15 -162.63 -31.07 -162.63 -29.25C-162.63 -29.25 -162.63 -29.25 -162.63 -29.25C-182.95 -29.25 -194.24 -29.25 -196.5 -29.25Z" id="bcbo44sb3"></path><path d="M-196.5 -29.25C-196.5 -29.25 -196.5 -29.25 -196.5 -29.25C-196.5 -45.6 -196.5 -54.68 -196.5 -56.5C-196.5 -56.5 -196.5 -56.5 -196.5 -56.5C-176.18 -56.5 -164.89 -56.5 -162.63 -56.5C-162.63 -56.5 -162.63 -56.5 -162.63 -56.5C-162.63 -40.15 -162.63 -31.07 -162.63 -29.25C-162.63 -29.25 -162.63 -29.25 -162.63 -29.25C-182.95 -29.25 -194.24 -29.25 -196.5 -29.25Z" id="aINdxIzlW"></path><path d="M-196.5 -29.25C-196.5 -29.25 -196.5 -29.25 -196.5 -29.25C-196.5 -45.6 -196.5 -54.68 -196.5 -56.5C-196.5 -56.5 -196.5 -56.5 -196.5 -56.5C-176.18 -56.5 -164.89 -56.5 -162.63 -56.5C-162.63 -56.5 -162.63 -56.5 -162.63 -56.5C-162.63 -40.15 -162.63 -31.07 -162.63 -29.25C-162.63 -29.25 -162.63 -29.25 -162.63 -29.25C-182.95 -29.25 -194.24 -29.25 -196.5 -29.25Z" id="a1WzapUamT"></path><path d="M-196.5 -29.25C-196.5 -29.25 -196.5 -29.25 -196.5 -29.25C-196.5 -45.6 -196.5 -54.68 -196.5 -56.5C-196.5 -56.5 -196.5 -56.5 -196.5 -56.5C-176.18 -56.5 -164.89 -56.5 -162.63 -56.5C-162.63 -56.5 -162.63 -56.5 -162.63 -56.5C-162.63 -40.15 -162.63 -31.07 -162.63 -29.25C-162.63 -29.25 -162.63 -29.25 -162.63 -29.25C-182.95 -29.25 -194.24 -29.25 -196.5 -29.25Z" id="g1pIIGTz1r"></path><path d="M-196.5 -29.25C-196.5 -29.25 -196.5 -29.25 -196.5 -29.25C-196.5 -45.6 -196.5 -54.68 -196.5 -56.5C-196.5 -56.5 -196.5 -56.5 -196.5 -56.5C-176.18 -56.5 -164.89 -56.5 -162.63 -56.5C-162.63 -56.5 -162.63 -56.5 -162.63 -56.5C-162.63 -40.15 -162.63 -31.07 -162.63 -29.25C-162.63 -29.25 -162.63 -29.25 -162.63 -29.25C-182.95 -29.25 -194.24 -29.25 -196.5 -29.25Z" id="aqB6FzIxn"></path><path d="M-196.5 -29.25C-196.5 -29.25 -196.5 -29.25 -196.5 -29.25C-196.5 -45.6 -196.5 -54.68 -196.5 -56.5C-196.5 -56.5 -196.5 -56.5 -196.5 -56.5C-176.18 -56.5 -164.89 -56.5 -162.63 -56.5C-162.63 -56.5 -162.63 -56.5 -162.63 -56.5C-162.63 -40.15 -162.63 -31.07 -162.63 -29.25C-162.63 -29.25 -162.63 -29.25 -162.63 -29.25C-182.95 -29.25 -194.24 -29.25 -196.5 -29.25Z" id="e2loTsGv9"></path><path d="M-196.5 -29.25C-196.5 -29.25 -196.5 -29.25 -196.5 -29.25C-196.5 -45.6 -196.5 -54.68 -196.5 -56.5C-196.5 -56.5 -196.5 -56.5 -196.5 -56.5C-176.18 -56.5 -164.89 -56.5 -162.63 -56.5C-162.63 -56.5 -162.63 -56.5 -162.63 -56.5C-162.63 -40.15 -162.63 -31.07 -162.63 -29.25C-162.63 -29.25 -162.63 -29.25 -162.63 -29.25C-182.95 -29.25 -194.24 -29.25 -196.5 -29.25Z" id="bbuv12zrr"></path><path d="M-196.5 -29.25C-196.5 -29.25 -196.5 -29.25 -196.5 -29.25C-196.5 -45.6 -196.5 -54.68 -196.5 -56.5C-196.5 -56.5 -196.5 -56.5 -196.5 -56.5C-176.18 -56.5 -164.89 -56.5 -162.63 -56.5C-162.63 -56.5 -162.63 -56.5 -162.63 -56.5C-162.63 -40.15 -162.63 -31.07 -162.63 -29.25C-162.63 -29.25 -162.63 -29.25 -162.63 -29.25C-182.95 -29.25 -194.24 -29.25 -196.5 -29.25Z" id="d1uNfXTZNU"></path><path d="M-196.5 -29.25C-196.5 -29.25 -196.5 -29.25 -196.5 -29.25C-196.5 -45.6 -196.5 -54.68 -196.5 -56.5C-196.5 -56.5 -196.5 -56.5 -196.5 -56.5C-176.18 -56.5 -164.89 -56.5 -162.63 -56.5C-162.63 -56.5 -162.63 -56.5 -162.63 -56.5C-162.63 -40.15 -162.63 -31.07 -162.63 -29.25C-162.63 -29.25 -162.63 -29.25 -162.63 -29.25C-182.95 -29.25 -194.24 -29.25 -196.5 -29.25Z" id="aSV3whBo6"></path><path d="M-196.5 -29.25C-196.5 -29.25 -196.5 -29.25 -196.5 -29.25C-196.5 -45.6 -196.5 -54.68 -196.5 -56.5C-196.5 -56.5 -196.5 -56.5 -196.5 -56.5C-176.18 -56.5 -164.89 -56.5 -162.63 -56.5C-162.63 -56.5 -162.63 -56.5 -162.63 -56.5C-162.63 -40.15 -162.63 -31.07 -162.63 -29.25C-162.63 -29.25 -162.63 -29.25 -162.63 -29.25C-182.95 -29.25 -194.24 -29.25 -196.5 -29.25Z" id="b1RerOdo3t"></path><path d="M-171.1 -35.5C-186.34 -35.5 -194.81 -35.5 -196.5 -35.5C-196.5 -35.5 -196.5 -35.5 -196.5 -35.5C-196.5 -48.1 -196.5 -55.1 -196.5 -56.5C-196.5 -56.5 -196.5 -56.5 -196.5 -56.5C-181.26 -56.5 -172.8 -56.5 -171.1 -56.5C-171.1 -56.5 -171.1 -56.5 -171.1 -56.5C-171.1 -43.9 -171.1 -36.9 -171.1 -35.5C-171.1 -35.5 -171.1 -35.5 -171.1 -35.5Z" id="c2VcxQPapl"></path><path d="M-171.1 -35.5C-186.34 -35.5 -194.81 -35.5 -196.5 -35.5C-196.5 -35.5 -196.5 -35.5 -196.5 -35.5C-196.5 -48.1 -196.5 -55.1 -196.5 -56.5C-196.5 -56.5 -196.5 -56.5 -196.5 -56.5C-181.26 -56.5 -172.8 -56.5 -171.1 -56.5C-171.1 -56.5 -171.1 -56.5 -171.1 -56.5C-171.1 -43.9 -171.1 -36.9 -171.1 -35.5C-171.1 -35.5 -171.1 -35.5 -171.1 -35.5Z" id="bm00qSqTz"></path><path d="M-171.1 -35.5C-186.34 -35.5 -194.81 -35.5 -196.5 -35.5C-196.5 -35.5 -196.5 -35.5 -196.5 -35.5C-196.5 -48.1 -196.5 -55.1 -196.5 -56.5C-196.5 -56.5 -196.5 -56.5 -196.5 -56.5C-181.26 -56.5 -172.8 -56.5 -171.1 -56.5C-171.1 -56.5 -171.1 -56.5 -171.1 -56.5C-171.1 -43.9 -171.1 -36.9 -171.1 -35.5C-171.1 -35.5 -171.1 -35.5 -171.1 -35.5Z" id="aSTVxEUW"></path><path d="M-171.1 -35.5C-186.34 -35.5 -194.81 -35.5 -196.5 -35.5C-196.5 -35.5 -196.5 -35.5 -196.5 -35.5C-196.5 -48.1 -196.5 -55.1 -196.5 -56.5C-196.5 -56.5 -196.5 -56.5 -196.5 -56.5C-181.26 -56.5 -172.8 -56.5 -171.1 -56.5C-171.1 -56.5 -171.1 -56.5 -171.1 -56.5C-171.1 -43.9 -171.1 -36.9 -171.1 -35.5C-171.1 -35.5 -171.1 -35.5 -171.1 -35.5Z" id="e1A5rAH1rM"></path><path d="M-171.1 -35.5C-186.34 -35.5 -194.81 -35.5 -196.5 -35.5C-196.5 -35.5 -196.5 -35.5 -196.5 -35.5C-196.5 -48.1 -196.5 -55.1 -196.5 -56.5C-196.5 -56.5 -196.5 -56.5 -196.5 -56.5C-181.26 -56.5 -172.8 -56.5 -171.1 -56.5C-171.1 -56.5 -171.1 -56.5 -171.1 -56.5C-171.1 -43.9 -171.1 -36.9 -171.1 -35.5C-171.1 -35.5 -171.1 -35.5 -171.1 -35.5Z" id="c2nRN7UToi"></path><path d="M-171.1 -35.5C-186.34 -35.5 -194.81 -35.5 -196.5 -35.5C-196.5 -35.5 -196.5 -35.5 -196.5 -35.5C-196.5 -48.1 -196.5 -55.1 -196.5 -56.5C-196.5 -56.5 -196.5 -56.5 -196.5 -56.5C-181.26 -56.5 -172.8 -56.5 -171.1 -56.5C-171.1 -56.5 -171.1 -56.5 -171.1 -56.5C-171.1 -43.9 -171.1 -36.9 -171.1 -35.5C-171.1 -35.5 -171.1 -35.5 -171.1 -35.5Z" id="e3WnuY5FNJ"></path><path d="M-171.1 -35.5C-186.34 -35.5 -194.81 -35.5 -196.5 -35.5C-196.5 -35.5 -196.5 -35.5 -196.5 -35.5C-196.5 -48.1 -196.5 -55.1 -196.5 -56.5C-196.5 -56.5 -196.5 -56.5 -196.5 -56.5C-181.26 -56.5 -172.8 -56.5 -171.1 -56.5C-171.1 -56.5 -171.1 -56.5 -171.1 -56.5C-171.1 -43.9 -171.1 -36.9 -171.1 -35.5C-171.1 -35.5 -171.1 -35.5 -171.1 -35.5Z" id="c3fUt94zwA"></path><path d="M-171.1 -35.5C-186.34 -35.5 -194.81 -35.5 -196.5 -35.5C-196.5 -35.5 -196.5 -35.5 -196.5 -35.5C-196.5 -48.1 -196.5 -55.1 -196.5 -56.5C-196.5 -56.5 -196.5 -56.5 -196.5 -56.5C-181.26 -56.5 -172.8 -56.5 -171.1 -56.5C-171.1 -56.5 -171.1 -56.5 -171.1 -56.5C-171.1 -43.9 -171.1 -36.9 -171.1 -35.5C-171.1 -35.5 -171.1 -35.5 -171.1 -35.5Z" id="brKMjUHxt"></path><path d="M0 0L440 0L440 640L0 640L0 0Z" id="aanSoUux5"></path><path d="M-162.63 -29.25C-182.95 -29.25 -194.24 -29.25 -196.5 -29.25C-196.5 -29.25 -196.5 -29.25 -196.5 -29.25C-196.5 -45.6 -196.5 -54.68 -196.5 -56.5C-196.5 -56.5 -196.5 -56.5 -196.5 -56.5C-176.18 -56.5 -164.89 -56.5 -162.63 -56.5C-162.63 -56.5 -162.63 -56.5 -162.63 -56.5C-162.63 -40.15 -162.63 -31.07 -162.63 -29.25C-162.63 -29.25 -162.63 -29.25 -162.63 -29.25Z" id="jgmJSDFXQ"></path><path d="M-162.63 -29.25C-182.95 -29.25 -194.24 -29.25 -196.5 -29.25C-196.5 -29.25 -196.5 -29.25 -196.5 -29.25C-196.5 -45.6 -196.5 -54.68 -196.5 -56.5C-196.5 -56.5 -196.5 -56.5 -196.5 -56.5C-176.18 -56.5 -164.89 -56.5 -162.63 -56.5C-162.63 -56.5 -162.63 -56.5 -162.63 -56.5C-162.63 -40.15 -162.63 -31.07 -162.63 -29.25C-162.63 -29.25 -162.63 -29.25 -162.63 -29.25Z" id="d5trSUkh94"></path><path d="M-162.63 -29.25C-182.95 -29.25 -194.24 -29.25 -196.5 -29.25C-196.5 -29.25 -196.5 -29.25 -196.5 -29.25C-196.5 -45.6 -196.5 -54.68 -196.5 -56.5C-196.5 -56.5 -196.5 -56.5 -196.5 -56.5C-176.18 -56.5 -164.89 -56.5 -162.63 -56.5C-162.63 -56.5 -162.63 -56.5 -162.63 -56.5C-162.63 -40.15 -162.63 -31.07 -162.63 -29.25C-162.63 -29.25 -162.63 -29.25 -162.63 -29.25Z" id="gETOS3rVW"></path><path d="M-162.63 -29.25C-182.95 -29.25 -194.24 -29.25 -196.5 -29.25C-196.5 -29.25 -196.5 -29.25 -196.5 -29.25C-196.5 -45.6 -196.5 -54.68 -196.5 -56.5C-196.5 -56.5 -196.5 -56.5 -196.5 -56.5C-176.18 -56.5 -164.89 -56.5 -162.63 -56.5C-162.63 -56.5 -162.63 -56.5 -162.63 -56.5C-162.63 -40.15 -162.63 -31.07 -162.63 -29.25C-162.63 -29.25 -162.63 -29.25 -162.63 -29.25Z" id="d6nufygrkz"></path><path d="M-162.63 -29.25C-182.95 -29.25 -194.24 -29.25 -196.5 -29.25C-196.5 -29.25 -196.5 -29.25 -196.5 -29.25C-196.5 -45.6 -196.5 -54.68 -196.5 -56.5C-196.5 -56.5 -196.5 -56.5 -196.5 -56.5C-176.18 -56.5 -164.89 -56.5 -162.63 -56.5C-162.63 -56.5 -162.63 -56.5 -162.63 -56.5C-162.63 -40.15 -162.63 -31.07 -162.63 -29.25C-162.63 -29.25 -162.63 -29.25 -162.63 -29.25Z" id="c3VTl8k4AB"></path><path d="M-162.63 -29.25C-182.95 -29.25 -194.24 -29.25 -196.5 -29.25C-196.5 -29.25 -196.5 -29.25 -196.5 -29.25C-196.5 -45.6 -196.5 -54.68 -196.5 -56.5C-196.5 -56.5 -196.5 -56.5 -196.5 -56.5C-176.18 -56.5 -164.89 -56.5 -162.63 -56.5C-162.63 -56.5 -162.63 -56.5 -162.63 -56.5C-162.63 -40.15 -162.63 -31.07 -162.63 -29.25C-162.63 -29.25 -162.63 -29.25 -162.63 -29.25Z" id="b4hAAtDkA"></path><path d="M-162.63 -29.25C-182.95 -29.25 -194.24 -29.25 -196.5 -29.25C-196.5 -29.25 -196.5 -29.25 -196.5 -29.25C-196.5 -45.6 -196.5 -54.68 -196.5 -56.5C-196.5 -56.5 -196.5 -56.5 -196.5 -56.5C-176.18 -56.5 -164.89 -56.5 -162.63 -56.5C-162.63 -56.5 -162.63 -56.5 -162.63 -56.5C-162.63 -40.15 -162.63 -31.07 -162.63 -29.25C-162.63 -29.25 -162.63 -29.25 -162.63 -29.25Z" id="aB7Wr6TSl"></path><path d="M-162.63 -29.25C-182.95 -29.25 -194.24 -29.25 -196.5 -29.25C-196.5 -29.25 -196.5 -29.25 -196.5 -29.25C-196.5 -45.6 -196.5 -54.68 -196.5 -56.5C-196.5 -56.5 -196.5 -56.5 -196.5 -56.5C-176.18 -56.5 -164.89 -56.5 -162.63 -56.5C-162.63 -56.5 -162.63 -56.5 -162.63 -56.5C-162.63 -40.15 -162.63 -31.07 -162.63 -29.25C-162.63 -29.25 -162.63 -29.25 -162.63 -29.25Z" id="aZV7zzXU"></path><path d="M-175.5 -28.22C-188.1 -28.22 -195.1 -28.22 -196.5 -28.22C-196.5 -28.22 -196.5 -28.22 -196.5 -28.22C-196.5 -45.19 -196.5 -54.61 -196.5 -56.5C-196.5 -56.5 -196.5 -56.5 -196.5 -56.5C-183.9 -56.5 -176.9 -56.5 -175.5 -56.5C-175.5 -56.5 -175.5 -56.5 -175.5 -56.5C-175.5 -39.53 -175.5 -30.1 -175.5 -28.22C-175.5 -28.22 -175.5 -28.22 -175.5 -28.22Z" id="c3IfObHvl"></path><path d="M-175.5 -28.22C-188.1 -28.22 -195.1 -28.22 -196.5 -28.22C-196.5 -28.22 -196.5 -28.22 -196.5 -28.22C-196.5 -45.19 -196.5 -54.61 -196.5 -56.5C-196.5 -56.5 -196.5 -56.5 -196.5 -56.5C-183.9 -56.5 -176.9 -56.5 -175.5 -56.5C-175.5 -56.5 -175.5 -56.5 -175.5 -56.5C-175.5 -39.53 -175.5 -30.1 -175.5 -28.22C-175.5 -28.22 -175.5 -28.22 -175.5 -28.22Z" id="bBFLeiEMW"></path><path d="M-175.5 -28.22C-188.1 -28.22 -195.1 -28.22 -196.5 -28.22C-196.5 -28.22 -196.5 -28.22 -196.5 -28.22C-196.5 -45.19 -196.5 -54.61 -196.5 -56.5C-196.5 -56.5 -196.5 -56.5 -196.5 -56.5C-183.9 -56.5 -176.9 -56.5 -175.5 -56.5C-175.5 -56.5 -175.5 -56.5 -175.5 -56.5C-175.5 -39.53 -175.5 -30.1 -175.5 -28.22C-175.5 -28.22 -175.5 -28.22 -175.5 -28.22Z" id="e30hm1KmD8"></path><path d="M-175.5 -28.22C-188.1 -28.22 -195.1 -28.22 -196.5 -28.22C-196.5 -28.22 -196.5 -28.22 -196.5 -28.22C-196.5 -45.19 -196.5 -54.61 -196.5 -56.5C-196.5 -56.5 -196.5 -56.5 -196.5 -56.5C-183.9 -56.5 -176.9 -56.5 -175.5 -56.5C-175.5 -56.5 -175.5 -56.5 -175.5 -56.5C-175.5 -39.53 -175.5 -30.1 -175.5 -28.22C-175.5 -28.22 -175.5 -28.22 -175.5 -28.22Z" id="eD1cImt9"></path><path d="M-175.5 -28.22C-188.1 -28.22 -195.1 -28.22 -196.5 -28.22C-196.5 -28.22 -196.5 -28.22 -196.5 -28.22C-196.5 -45.19 -196.5 -54.61 -196.5 -56.5C-196.5 -56.5 -196.5 -56.5 -196.5 -56.5C-183.9 -56.5 -176.9 -56.5 -175.5 -56.5C-175.5 -56.5 -175.5 -56.5 -175.5 -56.5C-175.5 -39.53 -175.5 -30.1 -175.5 -28.22C-175.5 -28.22 -175.5 -28.22 -175.5 -28.22Z" id="b160Or0CmM"></path><path d="M-175.5 -28.22C-188.1 -28.22 -195.1 -28.22 -196.5 -28.22C-196.5 -28.22 -196.5 -28.22 -196.5 -28.22C-196.5 -45.19 -196.5 -54.61 -196.5 -56.5C-196.5 -56.5 -196.5 -56.5 -196.5 -56.5C-183.9 -56.5 -176.9 -56.5 -175.5 -56.5C-175.5 -56.5 -175.5 -56.5 -175.5 -56.5C-175.5 -39.53 -175.5 -30.1 -175.5 -28.22C-175.5 -28.22 -175.5 -28.22 -175.5 -28.22Z" id="a1rokZ2s5v"></path><path d="M-175.5 -28.22C-188.1 -28.22 -195.1 -28.22 -196.5 -28.22C-196.5 -28.22 -196.5 -28.22 -196.5 -28.22C-196.5 -45.19 -196.5 -54.61 -196.5 -56.5C-196.5 -56.5 -196.5 -56.5 -196.5 -56.5C-183.9 -56.5 -176.9 -56.5 -175.5 -56.5C-175.5 -56.5 -175.5 -56.5 -175.5 -56.5C-175.5 -39.53 -175.5 -30.1 -175.5 -28.22C-175.5 -28.22 -175.5 -28.22 -175.5 -28.22Z" id="a29YrO58hW"></path><path d="M-175.5 -28.22C-188.1 -28.22 -195.1 -28.22 -196.5 -28.22C-196.5 -28.22 -196.5 -28.22 -196.5 -28.22C-196.5 -45.19 -196.5 -54.61 -196.5 -56.5C-196.5 -56.5 -196.5 -56.5 -196.5 -56.5C-183.9 -56.5 -176.9 -56.5 -175.5 -56.5C-175.5 -56.5 -175.5 -56.5 -175.5 -56.5C-175.5 -39.53 -175.5 -30.1 -175.5 -28.22C-175.5 -28.22 -175.5 -28.22 -175.5 -28.22Z" id="c3ejKEXpw"></path><path d="M-196.5 -29.25C-196.5 -29.25 -196.5 -29.25 -196.5 -29.25C-196.5 -45.6 -196.5 -54.68 -196.5 -56.5C-196.5 -56.5 -196.5 -56.5 -196.5 -56.5C-176.18 -56.5 -164.89 -56.5 -162.63 -56.5C-162.63 -56.5 -162.63 -56.5 -162.63 -56.5C-162.63 -40.15 -162.63 -31.07 -162.63 -29.25C-162.63 -29.25 -162.63 -29.25 -162.63 -29.25C-182.95 -29.25 -194.24 -29.25 -196.5 -29.25Z" id="c1eLnZYxWp"></path><path d="M-196.5 -29.25C-196.5 -29.25 -196.5 -29.25 -196.5 -29.25C-196.5 -45.6 -196.5 -54.68 -196.5 -56.5C-196.5 -56.5 -196.5 -56.5 -196.5 -56.5C-176.18 -56.5 -164.89 -56.5 -162.63 -56.5C-162.63 -56.5 -162.63 -56.5 -162.63 -56.5C-162.63 -40.15 -162.63 -31.07 -162.63 -29.25C-162.63 -29.25 -162.63 -29.25 -162.63 -29.25C-182.95 -29.25 -194.24 -29.25 -196.5 -29.25Z" id="fXSoGI99w"></path><path d="M-196.5 -29.25C-196.5 -29.25 -196.5 -29.25 -196.5 -29.25C-196.5 -45.6 -196.5 -54.68 -196.5 -56.5C-196.5 -56.5 -196.5 -56.5 -196.5 -56.5C-176.18 -56.5 -164.89 -56.5 -162.63 -56.5C-162.63 -56.5 -162.63 -56.5 -162.63 -56.5C-162.63 -40.15 -162.63 -31.07 -162.63 -29.25C-162.63 -29.25 -162.63 -29.25 -162.63 -29.25C-182.95 -29.25 -194.24 -29.25 -196.5 -29.25Z" id="f1DDJQ5WjW"></path><path d="M-196.5 -29.25C-196.5 -29.25 -196.5 -29.25 -196.5 -29.25C-196.5 -45.6 -196.5 -54.68 -196.5 -56.5C-196.5 -56.5 -196.5 -56.5 -196.5 -56.5C-176.18 -56.5 -164.89 -56.5 -162.63 -56.5C-162.63 -56.5 -162.63 -56.5 -162.63 -56.5C-162.63 -40.15 -162.63 -31.07 -162.63 -29.25C-162.63 -29.25 -162.63 -29.25 -162.63 -29.25C-182.95 -29.25 -194.24 -29.25 -196.5 -29.25Z" id="cdoMjjKSV"></path><path d="M-196.5 -29.25C-196.5 -29.25 -196.5 -29.25 -196.5 -29.25C-196.5 -45.6 -196.5 -54.68 -196.5 -56.5C-196.5 -56.5 -196.5 -56.5 -196.5 -56.5C-176.18 -56.5 -164.89 -56.5 -162.63 -56.5C-162.63 -56.5 -162.63 -56.5 -162.63 -56.5C-162.63 -40.15 -162.63 -31.07 -162.63 -29.25C-162.63 -29.25 -162.63 -29.25 -162.63 -29.25C-182.95 -29.25 -194.24 -29.25 -196.5 -29.25Z" id="aPIKO7QKW"></path><path d="M-196.5 -29.25C-196.5 -29.25 -196.5 -29.25 -196.5 -29.25C-196.5 -45.6 -196.5 -54.68 -196.5 -56.5C-196.5 -56.5 -196.5 -56.5 -196.5 -56.5C-176.18 -56.5 -164.89 -56.5 -162.63 -56.5C-162.63 -56.5 -162.63 -56.5 -162.63 -56.5C-162.63 -40.15 -162.63 -31.07 -162.63 -29.25C-162.63 -29.25 -162.63 -29.25 -162.63 -29.25C-182.95 -29.25 -194.24 -29.25 -196.5 -29.25Z" id="b5gAit0lcV"></path><path d="M-196.5 -29.25C-196.5 -29.25 -196.5 -29.25 -196.5 -29.25C-196.5 -45.6 -196.5 -54.68 -196.5 -56.5C-196.5 -56.5 -196.5 -56.5 -196.5 -56.5C-176.18 -56.5 -164.89 -56.5 -162.63 -56.5C-162.63 -56.5 -162.63 -56.5 -162.63 -56.5C-162.63 -40.15 -162.63 -31.07 -162.63 -29.25C-162.63 -29.25 -162.63 -29.25 -162.63 -29.25C-182.95 -29.25 -194.24 -29.25 -196.5 -29.25Z" id="m8gZM6FKu"></path><path d="M-196.5 -29.25C-196.5 -29.25 -196.5 -29.25 -196.5 -29.25C-196.5 -45.6 -196.5 -54.68 -196.5 -56.5C-196.5 -56.5 -196.5 -56.5 -196.5 -56.5C-176.18 -56.5 -164.89 -56.5 -162.63 -56.5C-162.63 -56.5 -162.63 -56.5 -162.63 -56.5C-162.63 -40.15 -162.63 -31.07 -162.63 -29.25C-162.63 -29.25 -162.63 -29.25 -162.63 -29.25C-182.95 -29.25 -194.24 -29.25 -196.5 -29.25Z" id="gupUtzHe9"></path><path d="M-196.5 -29.25C-196.5 -29.25 -196.5 -29.25 -196.5 -29.25C-196.5 -45.6 -196.5 -54.68 -196.5 -56.5C-196.5 -56.5 -196.5 -56.5 -196.5 -56.5C-176.18 -56.5 -164.89 -56.5 -162.63 -56.5C-162.63 -56.5 -162.63 -56.5 -162.63 -56.5C-162.63 -40.15 -162.63 -31.07 -162.63 -29.25C-162.63 -29.25 -162.63 -29.25 -162.63 -29.25C-182.95 -29.25 -194.24 -29.25 -196.5 -29.25Z" id="h1PCEwPURf"></path><path d="M-196.5 -29.25C-196.5 -29.25 -196.5 -29.25 -196.5 -29.25C-196.5 -45.6 -196.5 -54.68 -196.5 -56.5C-196.5 -56.5 -196.5 -56.5 -196.5 -56.5C-176.18 -56.5 -164.89 -56.5 -162.63 -56.5C-162.63 -56.5 -162.63 -56.5 -162.63 -56.5C-162.63 -40.15 -162.63 -31.07 -162.63 -29.25C-162.63 -29.25 -162.63 -29.25 -162.63 -29.25C-182.95 -29.25 -194.24 -29.25 -196.5 -29.25Z" id="daLyupfGK"></path><path d="M-196.5 -29.25C-196.5 -29.25 -196.5 -29.25 -196.5 -29.25C-196.5 -45.6 -196.5 -54.68 -196.5 -56.5C-196.5 -56.5 -196.5 -56.5 -196.5 -56.5C-176.18 -56.5 -164.89 -56.5 -162.63 -56.5C-162.63 -56.5 -162.63 -56.5 -162.63 -56.5C-162.63 -40.15 -162.63 -31.07 -162.63 -29.25C-162.63 -29.25 -162.63 -29.25 -162.63 -29.25C-182.95 -29.25 -194.24 -29.25 -196.5 -29.25Z" id="c2eJqGDfpX"></path><path d="M-196.5 -29.25C-196.5 -29.25 -196.5 -29.25 -196.5 -29.25C-196.5 -45.6 -196.5 -54.68 -196.5 -56.5C-196.5 -56.5 -196.5 -56.5 -196.5 -56.5C-176.18 -56.5 -164.89 -56.5 -162.63 -56.5C-162.63 -56.5 -162.63 -56.5 -162.63 -56.5C-162.63 -40.15 -162.63 -31.07 -162.63 -29.25C-162.63 -29.25 -162.63 -29.25 -162.63 -29.25C-182.95 -29.25 -194.24 -29.25 -196.5 -29.25Z" id="a8sIYeGSts"></path><path d="M-196.5 -29.25C-196.5 -29.25 -196.5 -29.25 -196.5 -29.25C-196.5 -45.6 -196.5 -54.68 -196.5 -56.5C-196.5 -56.5 -196.5 -56.5 -196.5 -56.5C-176.18 -56.5 -164.89 -56.5 -162.63 -56.5C-162.63 -56.5 -162.63 -56.5 -162.63 -56.5C-162.63 -40.15 -162.63 -31.07 -162.63 -29.25C-162.63 -29.25 -162.63 -29.25 -162.63 -29.25C-182.95 -29.25 -194.24 -29.25 -196.5 -29.25Z" id="d1oTytEAOM"></path><path d="M-196.5 -29.25C-196.5 -29.25 -196.5 -29.25 -196.5 -29.25C-196.5 -45.6 -196.5 -54.68 -196.5 -56.5C-196.5 -56.5 -196.5 -56.5 -196.5 -56.5C-176.18 -56.5 -164.89 -56.5 -162.63 -56.5C-162.63 -56.5 -162.63 -56.5 -162.63 -56.5C-162.63 -40.15 -162.63 -31.07 -162.63 -29.25C-162.63 -29.25 -162.63 -29.25 -162.63 -29.25C-182.95 -29.25 -194.24 -29.25 -196.5 -29.25Z" id="csahvKkI4"></path><path d="M-196.5 -29.25C-196.5 -29.25 -196.5 -29.25 -196.5 -29.25C-196.5 -45.6 -196.5 -54.68 -196.5 -56.5C-196.5 -56.5 -196.5 -56.5 -196.5 -56.5C-176.18 -56.5 -164.89 -56.5 -162.63 -56.5C-162.63 -56.5 -162.63 -56.5 -162.63 -56.5C-162.63 -40.15 -162.63 -31.07 -162.63 -29.25C-162.63 -29.25 -162.63 -29.25 -162.63 -29.25C-182.95 -29.25 -194.24 -29.25 -196.5 -29.25Z" id="aaYJZbzPAX"></path><path d="M-196.5 -29.25C-196.5 -29.25 -196.5 -29.25 -196.5 -29.25C-196.5 -45.6 -196.5 -54.68 -196.5 -56.5C-196.5 -56.5 -196.5 -56.5 -196.5 -56.5C-176.18 -56.5 -164.89 -56.5 -162.63 -56.5C-162.63 -56.5 -162.63 -56.5 -162.63 -56.5C-162.63 -40.15 -162.63 -31.07 -162.63 -29.25C-162.63 -29.25 -162.63 -29.25 -162.63 -29.25C-182.95 -29.25 -194.24 -29.25 -196.5 -29.25Z" id="k8xPUaUqn"></path><path d="M-171.1 -35.5C-186.34 -35.5 -194.81 -35.5 -196.5 -35.5C-196.5 -35.5 -196.5 -35.5 -196.5 -35.5C-196.5 -48.1 -196.5 -55.1 -196.5 -56.5C-196.5 -56.5 -196.5 -56.5 -196.5 -56.5C-181.26 -56.5 -172.8 -56.5 -171.1 -56.5C-171.1 -56.5 -171.1 -56.5 -171.1 -56.5C-171.1 -43.9 -171.1 -36.9 -171.1 -35.5C-171.1 -35.5 -171.1 -35.5 -171.1 -35.5Z" id="a1KiWvotA"></path><path d="M-171.1 -35.5C-186.34 -35.5 -194.81 -35.5 -196.5 -35.5C-196.5 -35.5 -196.5 -35.5 -196.5 -35.5C-196.5 -48.1 -196.5 -55.1 -196.5 -56.5C-196.5 -56.5 -196.5 -56.5 -196.5 -56.5C-181.26 -56.5 -172.8 -56.5 -171.1 -56.5C-171.1 -56.5 -171.1 -56.5 -171.1 -56.5C-171.1 -43.9 -171.1 -36.9 -171.1 -35.5C-171.1 -35.5 -171.1 -35.5 -171.1 -35.5Z" id="evjS2jd5L"></path><path d="M-171.1 -35.5C-186.34 -35.5 -194.81 -35.5 -196.5 -35.5C-196.5 -35.5 -196.5 -35.5 -196.5 -35.5C-196.5 -48.1 -196.5 -55.1 -196.5 -56.5C-196.5 -56.5 -196.5 -56.5 -196.5 -56.5C-181.26 -56.5 -172.8 -56.5 -171.1 -56.5C-171.1 -56.5 -171.1 -56.5 -171.1 -56.5C-171.1 -43.9 -171.1 -36.9 -171.1 -35.5C-171.1 -35.5 -171.1 -35.5 -171.1 -35.5Z" id="cCdtqVQUD"></path><path d="M-171.1 -35.5C-186.34 -35.5 -194.81 -35.5 -196.5 -35.5C-196.5 -35.5 -196.5 -35.5 -196.5 -35.5C-196.5 -48.1 -196.5 -55.1 -196.5 -56.5C-196.5 -56.5 -196.5 -56.5 -196.5 -56.5C-181.26 -56.5 -172.8 -56.5 -171.1 -56.5C-171.1 -56.5 -171.1 -56.5 -171.1 -56.5C-171.1 -43.9 -171.1 -36.9 -171.1 -35.5C-171.1 -35.5 -171.1 -35.5 -171.1 -35.5Z" id="cxYlxuLMR"></path><path d="M-171.1 -35.5C-186.34 -35.5 -194.81 -35.5 -196.5 -35.5C-196.5 -35.5 -196.5 -35.5 -196.5 -35.5C-196.5 -48.1 -196.5 -55.1 -196.5 -56.5C-196.5 -56.5 -196.5 -56.5 -196.5 -56.5C-181.26 -56.5 -172.8 -56.5 -171.1 -56.5C-171.1 -56.5 -171.1 -56.5 -171.1 -56.5C-171.1 -43.9 -171.1 -36.9 -171.1 -35.5C-171.1 -35.5 -171.1 -35.5 -171.1 -35.5Z" id="a1sm8GxgbA"></path><path d="M-171.1 -35.5C-186.34 -35.5 -194.81 -35.5 -196.5 -35.5C-196.5 -35.5 -196.5 -35.5 -196.5 -35.5C-196.5 -48.1 -196.5 -55.1 -196.5 -56.5C-196.5 -56.5 -196.5 -56.5 -196.5 -56.5C-181.26 -56.5 -172.8 -56.5 -171.1 -56.5C-171.1 -56.5 -171.1 -56.5 -171.1 -56.5C-171.1 -43.9 -171.1 -36.9 -171.1 -35.5C-171.1 -35.5 -171.1 -35.5 -171.1 -35.5Z" id="evqzhd9h3"></path><path d="M-171.1 -35.5C-186.34 -35.5 -194.81 -35.5 -196.5 -35.5C-196.5 -35.5 -196.5 -35.5 -196.5 -35.5C-196.5 -48.1 -196.5 -55.1 -196.5 -56.5C-196.5 -56.5 -196.5 -56.5 -196.5 -56.5C-181.26 -56.5 -172.8 -56.5 -171.1 -56.5C-171.1 -56.5 -171.1 -56.5 -171.1 -56.5C-171.1 -43.9 -171.1 -36.9 -171.1 -35.5C-171.1 -35.5 -171.1 -35.5 -171.1 -35.5Z" id="b1PopElRyX"></path><path d="M-171.1 -35.5C-186.34 -35.5 -194.81 -35.5 -196.5 -35.5C-196.5 -35.5 -196.5 -35.5 -196.5 -35.5C-196.5 -48.1 -196.5 -55.1 -196.5 -56.5C-196.5 -56.5 -196.5 -56.5 -196.5 -56.5C-181.26 -56.5 -172.8 -56.5 -171.1 -56.5C-171.1 -56.5 -171.1 -56.5 -171.1 -56.5C-171.1 -43.9 -171.1 -36.9 -171.1 -35.5C-171.1 -35.5 -171.1 -35.5 -171.1 -35.5Z" id="bnfyPzrcH"></path><path d="M412.5 528.85C412.5 573.67 376.43 610 331.94 610C271.51 610 170.79 610 110.36 610C65.86 610 29.79 573.67 29.79 528.85C29.79 429.08 29.79 210.92 29.79 111.15C29.79 66.33 65.86 30 110.36 30C170.79 30 271.51 30 331.94 30C376.43 30 412.5 66.33 412.5 111.15C412.5 210.92 412.5 429.08 412.5 528.85Z" id="a7nuOMmLi"></path><path d="M412.5 528.85C412.5 573.67 376.43 610 331.94 610C271.51 610 170.79 610 110.36 610C65.86 610 29.79 573.67 29.79 528.85C29.79 429.08 29.79 210.92 29.79 111.15C29.79 66.33 65.86 30 110.36 30C170.79 30 271.51 30 331.94 30C376.43 30 412.5 66.33 412.5 111.15C412.5 210.92 412.5 429.08 412.5 528.85Z" id="a3pcAE9TvQ"></path><path d="M440 0L440 1.88L0 1.88L0 0L440 0Z" id="c11tBHSFVV"></path><path d="M440 640L438.17 640L438.17 0L440 0L440 640Z" id="d3tAsMOGwd"></path><path d="M1.83 640L0 640L0 0L1.83 0L1.83 640Z" id="apXNgcxmy"></path><path d="M440 638.13L440 640L0 640L0 638.13L440 638.13Z" id="d235ce4qnQ"></path><path d="M-162.63 -29.25C-182.95 -29.25 -194.24 -29.25 -196.5 -29.25C-196.5 -29.25 -196.5 -29.25 -196.5 -29.25C-196.5 -45.6 -196.5 -54.68 -196.5 -56.5C-196.5 -56.5 -196.5 -56.5 -196.5 -56.5C-176.18 -56.5 -164.89 -56.5 -162.63 -56.5C-162.63 -56.5 -162.63 -56.5 -162.63 -56.5C-162.63 -40.15 -162.63 -31.07 -162.63 -29.25C-162.63 -29.25 -162.63 -29.25 -162.63 -29.25Z" id="bsgCizUL"></path><path d="M-162.63 -29.25C-182.95 -29.25 -194.24 -29.25 -196.5 -29.25C-196.5 -29.25 -196.5 -29.25 -196.5 -29.25C-196.5 -45.6 -196.5 -54.68 -196.5 -56.5C-196.5 -56.5 -196.5 -56.5 -196.5 -56.5C-176.18 -56.5 -164.89 -56.5 -162.63 -56.5C-162.63 -56.5 -162.63 -56.5 -162.63 -56.5C-162.63 -40.15 -162.63 -31.07 -162.63 -29.25C-162.63 -29.25 -162.63 -29.25 -162.63 -29.25Z" id="cZ5JF9JG"></path><path d="M-162.63 -29.25C-182.95 -29.25 -194.24 -29.25 -196.5 -29.25C-196.5 -29.25 -196.5 -29.25 -196.5 -29.25C-196.5 -45.6 -196.5 -54.68 -196.5 -56.5C-196.5 -56.5 -196.5 -56.5 -196.5 -56.5C-176.18 -56.5 -164.89 -56.5 -162.63 -56.5C-162.63 -56.5 -162.63 -56.5 -162.63 -56.5C-162.63 -40.15 -162.63 -31.07 -162.63 -29.25C-162.63 -29.25 -162.63 -29.25 -162.63 -29.25Z" id="g8mC5GfYRl"></path><path d="M-162.63 -29.25C-182.95 -29.25 -194.24 -29.25 -196.5 -29.25C-196.5 -29.25 -196.5 -29.25 -196.5 -29.25C-196.5 -45.6 -196.5 -54.68 -196.5 -56.5C-196.5 -56.5 -196.5 -56.5 -196.5 -56.5C-176.18 -56.5 -164.89 -56.5 -162.63 -56.5C-162.63 -56.5 -162.63 -56.5 -162.63 -56.5C-162.63 -40.15 -162.63 -31.07 -162.63 -29.25C-162.63 -29.25 -162.63 -29.25 -162.63 -29.25Z" id="a6Nwe1a16"></path><path d="M-162.63 -29.25C-182.95 -29.25 -194.24 -29.25 -196.5 -29.25C-196.5 -29.25 -196.5 -29.25 -196.5 -29.25C-196.5 -45.6 -196.5 -54.68 -196.5 -56.5C-196.5 -56.5 -196.5 -56.5 -196.5 -56.5C-176.18 -56.5 -164.89 -56.5 -162.63 -56.5C-162.63 -56.5 -162.63 -56.5 -162.63 -56.5C-162.63 -40.15 -162.63 -31.07 -162.63 -29.25C-162.63 -29.25 -162.63 -29.25 -162.63 -29.25Z" id="d7KBfOlYA"></path><path d="M-162.63 -29.25C-182.95 -29.25 -194.24 -29.25 -196.5 -29.25C-196.5 -29.25 -196.5 -29.25 -196.5 -29.25C-196.5 -45.6 -196.5 -54.68 -196.5 -56.5C-196.5 -56.5 -196.5 -56.5 -196.5 -56.5C-176.18 -56.5 -164.89 -56.5 -162.63 -56.5C-162.63 -56.5 -162.63 -56.5 -162.63 -56.5C-162.63 -40.15 -162.63 -31.07 -162.63 -29.25C-162.63 -29.25 -162.63 -29.25 -162.63 -29.25Z" id="f4Nq62LOLX"></path><path d="M-162.63 -29.25C-182.95 -29.25 -194.24 -29.25 -196.5 -29.25C-196.5 -29.25 -196.5 -29.25 -196.5 -29.25C-196.5 -45.6 -196.5 -54.68 -196.5 -56.5C-196.5 -56.5 -196.5 -56.5 -196.5 -56.5C-176.18 -56.5 -164.89 -56.5 -162.63 -56.5C-162.63 -56.5 -162.63 -56.5 -162.63 -56.5C-162.63 -40.15 -162.63 -31.07 -162.63 -29.25C-162.63 -29.25 -162.63 -29.25 -162.63 -29.25Z" id="cDVAMBDPY"></path><path d="M-162.63 -29.25C-182.95 -29.25 -194.24 -29.25 -196.5 -29.25C-196.5 -29.25 -196.5 -29.25 -196.5 -29.25C-196.5 -45.6 -196.5 -54.68 -196.5 -56.5C-196.5 -56.5 -196.5 -56.5 -196.5 -56.5C-176.18 -56.5 -164.89 -56.5 -162.63 -56.5C-162.63 -56.5 -162.63 -56.5 -162.63 -56.5C-162.63 -40.15 -162.63 -31.07 -162.63 -29.25C-162.63 -29.25 -162.63 -29.25 -162.63 -29.25Z" id="aaC6qfAO5"></path><path d="M-175.5 -28.22C-188.1 -28.22 -195.1 -28.22 -196.5 -28.22C-196.5 -28.22 -196.5 -28.22 -196.5 -28.22C-196.5 -45.19 -196.5 -54.61 -196.5 -56.5C-196.5 -56.5 -196.5 -56.5 -196.5 -56.5C-183.9 -56.5 -176.9 -56.5 -175.5 -56.5C-175.5 -56.5 -175.5 -56.5 -175.5 -56.5C-175.5 -39.53 -175.5 -30.1 -175.5 -28.22C-175.5 -28.22 -175.5 -28.22 -175.5 -28.22Z" id="kahGnnjtL"></path><path d="M-175.5 -28.22C-188.1 -28.22 -195.1 -28.22 -196.5 -28.22C-196.5 -28.22 -196.5 -28.22 -196.5 -28.22C-196.5 -45.19 -196.5 -54.61 -196.5 -56.5C-196.5 -56.5 -196.5 -56.5 -196.5 -56.5C-183.9 -56.5 -176.9 -56.5 -175.5 -56.5C-175.5 -56.5 -175.5 -56.5 -175.5 -56.5C-175.5 -39.53 -175.5 -30.1 -175.5 -28.22C-175.5 -28.22 -175.5 -28.22 -175.5 -28.22Z" id="c1OWQdoJBo"></path><path d="M-175.5 -28.22C-188.1 -28.22 -195.1 -28.22 -196.5 -28.22C-196.5 -28.22 -196.5 -28.22 -196.5 -28.22C-196.5 -45.19 -196.5 -54.61 -196.5 -56.5C-196.5 -56.5 -196.5 -56.5 -196.5 -56.5C-183.9 -56.5 -176.9 -56.5 -175.5 -56.5C-175.5 -56.5 -175.5 -56.5 -175.5 -56.5C-175.5 -39.53 -175.5 -30.1 -175.5 -28.22C-175.5 -28.22 -175.5 -28.22 -175.5 -28.22Z" id="a14HQuQfMZ"></path><path d="M-175.5 -28.22C-188.1 -28.22 -195.1 -28.22 -196.5 -28.22C-196.5 -28.22 -196.5 -28.22 -196.5 -28.22C-196.5 -45.19 -196.5 -54.61 -196.5 -56.5C-196.5 -56.5 -196.5 -56.5 -196.5 -56.5C-183.9 -56.5 -176.9 -56.5 -175.5 -56.5C-175.5 -56.5 -175.5 -56.5 -175.5 -56.5C-175.5 -39.53 -175.5 -30.1 -175.5 -28.22C-175.5 -28.22 -175.5 -28.22 -175.5 -28.22Z" id="a3YABPkNYS"></path><path d="M-175.5 -28.22C-188.1 -28.22 -195.1 -28.22 -196.5 -28.22C-196.5 -28.22 -196.5 -28.22 -196.5 -28.22C-196.5 -45.19 -196.5 -54.61 -196.5 -56.5C-196.5 -56.5 -196.5 -56.5 -196.5 -56.5C-183.9 -56.5 -176.9 -56.5 -175.5 -56.5C-175.5 -56.5 -175.5 -56.5 -175.5 -56.5C-175.5 -39.53 -175.5 -30.1 -175.5 -28.22C-175.5 -28.22 -175.5 -28.22 -175.5 -28.22Z" id="b14JqVHgF2"></path><path d="M-175.5 -28.22C-188.1 -28.22 -195.1 -28.22 -196.5 -28.22C-196.5 -28.22 -196.5 -28.22 -196.5 -28.22C-196.5 -45.19 -196.5 -54.61 -196.5 -56.5C-196.5 -56.5 -196.5 -56.5 -196.5 -56.5C-183.9 -56.5 -176.9 -56.5 -175.5 -56.5C-175.5 -56.5 -175.5 -56.5 -175.5 -56.5C-175.5 -39.53 -175.5 -30.1 -175.5 -28.22C-175.5 -28.22 -175.5 -28.22 -175.5 -28.22Z" id="g1LaU0nO3R"></path><path d="M-175.5 -28.22C-188.1 -28.22 -195.1 -28.22 -196.5 -28.22C-196.5 -28.22 -196.5 -28.22 -196.5 -28.22C-196.5 -45.19 -196.5 -54.61 -196.5 -56.5C-196.5 -56.5 -196.5 -56.5 -196.5 -56.5C-183.9 -56.5 -176.9 -56.5 -175.5 -56.5C-175.5 -56.5 -175.5 -56.5 -175.5 -56.5C-175.5 -39.53 -175.5 -30.1 -175.5 -28.22C-175.5 -28.22 -175.5 -28.22 -175.5 -28.22Z" id="c3dPAmLNpW"></path><path d="M-175.5 -28.22C-188.1 -28.22 -195.1 -28.22 -196.5 -28.22C-196.5 -28.22 -196.5 -28.22 -196.5 -28.22C-196.5 -45.19 -196.5 -54.61 -196.5 -56.5C-196.5 -56.5 -196.5 -56.5 -196.5 -56.5C-183.9 -56.5 -176.9 -56.5 -175.5 -56.5C-175.5 -56.5 -175.5 -56.5 -175.5 -56.5C-175.5 -39.53 -175.5 -30.1 -175.5 -28.22C-175.5 -28.22 -175.5 -28.22 -175.5 -28.22Z" id="abBn1IUqH"></path><path d="M-196.5 -29.25C-196.5 -29.25 -196.5 -29.25 -196.5 -29.25C-196.5 -45.6 -196.5 -54.68 -196.5 -56.5C-196.5 -56.5 -196.5 -56.5 -196.5 -56.5C-176.18 -56.5 -164.89 -56.5 -162.63 -56.5C-162.63 -56.5 -162.63 -56.5 -162.63 -56.5C-162.63 -40.15 -162.63 -31.07 -162.63 -29.25C-162.63 -29.25 -162.63 -29.25 -162.63 -29.25C-182.95 -29.25 -194.24 -29.25 -196.5 -29.25Z" id="b1zbRv272"></path><path d="M-196.5 -29.25C-196.5 -29.25 -196.5 -29.25 -196.5 -29.25C-196.5 -45.6 -196.5 -54.68 -196.5 -56.5C-196.5 -56.5 -196.5 -56.5 -196.5 -56.5C-176.18 -56.5 -164.89 -56.5 -162.63 -56.5C-162.63 -56.5 -162.63 -56.5 -162.63 -56.5C-162.63 -40.15 -162.63 -31.07 -162.63 -29.25C-162.63 -29.25 -162.63 -29.25 -162.63 -29.25C-182.95 -29.25 -194.24 -29.25 -196.5 -29.25Z" id="a3KKSan0Ft"></path><path d="M-196.5 -29.25C-196.5 -29.25 -196.5 -29.25 -196.5 -29.25C-196.5 -45.6 -196.5 -54.68 -196.5 -56.5C-196.5 -56.5 -196.5 -56.5 -196.5 -56.5C-176.18 -56.5 -164.89 -56.5 -162.63 -56.5C-162.63 -56.5 -162.63 -56.5 -162.63 -56.5C-162.63 -40.15 -162.63 -31.07 -162.63 -29.25C-162.63 -29.25 -162.63 -29.25 -162.63 -29.25C-182.95 -29.25 -194.24 -29.25 -196.5 -29.25Z" id="kQp1sqEdh"></path><path d="M-196.5 -29.25C-196.5 -29.25 -196.5 -29.25 -196.5 -29.25C-196.5 -45.6 -196.5 -54.68 -196.5 -56.5C-196.5 -56.5 -196.5 -56.5 -196.5 -56.5C-176.18 -56.5 -164.89 -56.5 -162.63 -56.5C-162.63 -56.5 -162.63 -56.5 -162.63 -56.5C-162.63 -40.15 -162.63 -31.07 -162.63 -29.25C-162.63 -29.25 -162.63 -29.25 -162.63 -29.25C-182.95 -29.25 -194.24 -29.25 -196.5 -29.25Z" id="b474cJkn0y"></path><path d="M-196.5 -29.25C-196.5 -29.25 -196.5 -29.25 -196.5 -29.25C-196.5 -45.6 -196.5 -54.68 -196.5 -56.5C-196.5 -56.5 -196.5 -56.5 -196.5 -56.5C-176.18 -56.5 -164.89 -56.5 -162.63 -56.5C-162.63 -56.5 -162.63 -56.5 -162.63 -56.5C-162.63 -40.15 -162.63 -31.07 -162.63 -29.25C-162.63 -29.25 -162.63 -29.25 -162.63 -29.25C-182.95 -29.25 -194.24 -29.25 -196.5 -29.25Z" id="a1y9GiTpef"></path><path d="M-196.5 -29.25C-196.5 -29.25 -196.5 -29.25 -196.5 -29.25C-196.5 -45.6 -196.5 -54.68 -196.5 -56.5C-196.5 -56.5 -196.5 -56.5 -196.5 -56.5C-176.18 -56.5 -164.89 -56.5 -162.63 -56.5C-162.63 -56.5 -162.63 -56.5 -162.63 -56.5C-162.63 -40.15 -162.63 -31.07 -162.63 -29.25C-162.63 -29.25 -162.63 -29.25 -162.63 -29.25C-182.95 -29.25 -194.24 -29.25 -196.5 -29.25Z" id="fFrTbfOVL"></path><path d="M-196.5 -29.25C-196.5 -29.25 -196.5 -29.25 -196.5 -29.25C-196.5 -45.6 -196.5 -54.68 -196.5 -56.5C-196.5 -56.5 -196.5 -56.5 -196.5 -56.5C-176.18 -56.5 -164.89 -56.5 -162.63 -56.5C-162.63 -56.5 -162.63 -56.5 -162.63 -56.5C-162.63 -40.15 -162.63 -31.07 -162.63 -29.25C-162.63 -29.25 -162.63 -29.25 -162.63 -29.25C-182.95 -29.25 -194.24 -29.25 -196.5 -29.25Z" id="c1XgFVXyki"></path><path d="M-196.5 -29.25C-196.5 -29.25 -196.5 -29.25 -196.5 -29.25C-196.5 -45.6 -196.5 -54.68 -196.5 -56.5C-196.5 -56.5 -196.5 -56.5 -196.5 -56.5C-176.18 -56.5 -164.89 -56.5 -162.63 -56.5C-162.63 -56.5 -162.63 -56.5 -162.63 -56.5C-162.63 -40.15 -162.63 -31.07 -162.63 -29.25C-162.63 -29.25 -162.63 -29.25 -162.63 -29.25C-182.95 -29.25 -194.24 -29.25 -196.5 -29.25Z" id="a9MX9bL8W"></path><path d="M-196.5 -29.25C-196.5 -29.25 -196.5 -29.25 -196.5 -29.25C-196.5 -45.6 -196.5 -54.68 -196.5 -56.5C-196.5 -56.5 -196.5 -56.5 -196.5 -56.5C-176.18 -56.5 -164.89 -56.5 -162.63 -56.5C-162.63 -56.5 -162.63 -56.5 -162.63 -56.5C-162.63 -40.15 -162.63 -31.07 -162.63 -29.25C-162.63 -29.25 -162.63 -29.25 -162.63 -29.25C-182.95 -29.25 -194.24 -29.25 -196.5 -29.25Z" id="b2feMXxV95"></path><path d="M-196.5 -29.25C-196.5 -29.25 -196.5 -29.25 -196.5 -29.25C-196.5 -45.6 -196.5 -54.68 -196.5 -56.5C-196.5 -56.5 -196.5 -56.5 -196.5 -56.5C-176.18 -56.5 -164.89 -56.5 -162.63 -56.5C-162.63 -56.5 -162.63 -56.5 -162.63 -56.5C-162.63 -40.15 -162.63 -31.07 -162.63 -29.25C-162.63 -29.25 -162.63 -29.25 -162.63 -29.25C-182.95 -29.25 -194.24 -29.25 -196.5 -29.25Z" id="a3t4JK3Naf"></path><path d="M-196.5 -29.25C-196.5 -29.25 -196.5 -29.25 -196.5 -29.25C-196.5 -45.6 -196.5 -54.68 -196.5 -56.5C-196.5 -56.5 -196.5 -56.5 -196.5 -56.5C-176.18 -56.5 -164.89 -56.5 -162.63 -56.5C-162.63 -56.5 -162.63 -56.5 -162.63 -56.5C-162.63 -40.15 -162.63 -31.07 -162.63 -29.25C-162.63 -29.25 -162.63 -29.25 -162.63 -29.25C-182.95 -29.25 -194.24 -29.25 -196.5 -29.25Z" id="bd2dAbbe"></path><path d="M-196.5 -29.25C-196.5 -29.25 -196.5 -29.25 -196.5 -29.25C-196.5 -45.6 -196.5 -54.68 -196.5 -56.5C-196.5 -56.5 -196.5 -56.5 -196.5 -56.5C-176.18 -56.5 -164.89 -56.5 -162.63 -56.5C-162.63 -56.5 -162.63 -56.5 -162.63 -56.5C-162.63 -40.15 -162.63 -31.07 -162.63 -29.25C-162.63 -29.25 -162.63 -29.25 -162.63 -29.25C-182.95 -29.25 -194.24 -29.25 -196.5 -29.25Z" id="d2dQfQj7pz"></path><path d="M-196.5 -29.25C-196.5 -29.25 -196.5 -29.25 -196.5 -29.25C-196.5 -45.6 -196.5 -54.68 -196.5 -56.5C-196.5 -56.5 -196.5 -56.5 -196.5 -56.5C-176.18 -56.5 -164.89 -56.5 -162.63 -56.5C-162.63 -56.5 -162.63 -56.5 -162.63 -56.5C-162.63 -40.15 -162.63 -31.07 -162.63 -29.25C-162.63 -29.25 -162.63 -29.25 -162.63 -29.25C-182.95 -29.25 -194.24 -29.25 -196.5 -29.25Z" id="a5VAFUJx6Q"></path><path d="M-196.5 -29.25C-196.5 -29.25 -196.5 -29.25 -196.5 -29.25C-196.5 -45.6 -196.5 -54.68 -196.5 -56.5C-196.5 -56.5 -196.5 -56.5 -196.5 -56.5C-176.18 -56.5 -164.89 -56.5 -162.63 -56.5C-162.63 -56.5 -162.63 -56.5 -162.63 -56.5C-162.63 -40.15 -162.63 -31.07 -162.63 -29.25C-162.63 -29.25 -162.63 -29.25 -162.63 -29.25C-182.95 -29.25 -194.24 -29.25 -196.5 -29.25Z" id="i2fPnmobS6"></path><path d="M-196.5 -29.25C-196.5 -29.25 -196.5 -29.25 -196.5 -29.25C-196.5 -45.6 -196.5 -54.68 -196.5 -56.5C-196.5 -56.5 -196.5 -56.5 -196.5 -56.5C-176.18 -56.5 -164.89 -56.5 -162.63 -56.5C-162.63 -56.5 -162.63 -56.5 -162.63 -56.5C-162.63 -40.15 -162.63 -31.07 -162.63 -29.25C-162.63 -29.25 -162.63 -29.25 -162.63 -29.25C-182.95 -29.25 -194.24 -29.25 -196.5 -29.25Z" id="cl8VYr98R"></path><path d="M-196.5 -29.25C-196.5 -29.25 -196.5 -29.25 -196.5 -29.25C-196.5 -45.6 -196.5 -54.68 -196.5 -56.5C-196.5 -56.5 -196.5 -56.5 -196.5 -56.5C-176.18 -56.5 -164.89 -56.5 -162.63 -56.5C-162.63 -56.5 -162.63 -56.5 -162.63 -56.5C-162.63 -40.15 -162.63 -31.07 -162.63 -29.25C-162.63 -29.25 -162.63 -29.25 -162.63 -29.25C-182.95 -29.25 -194.24 -29.25 -196.5 -29.25Z" id="b1EUnBlye8"></path><path d="M-171.1 -35.5C-186.34 -35.5 -194.81 -35.5 -196.5 -35.5C-196.5 -35.5 -196.5 -35.5 -196.5 -35.5C-196.5 -48.1 -196.5 -55.1 -196.5 -56.5C-196.5 -56.5 -196.5 -56.5 -196.5 -56.5C-181.26 -56.5 -172.8 -56.5 -171.1 -56.5C-171.1 -56.5 -171.1 -56.5 -171.1 -56.5C-171.1 -43.9 -171.1 -36.9 -171.1 -35.5C-171.1 -35.5 -171.1 -35.5 -171.1 -35.5Z" id="d6eWMP4Lrt"></path><path d="M-171.1 -35.5C-186.34 -35.5 -194.81 -35.5 -196.5 -35.5C-196.5 -35.5 -196.5 -35.5 -196.5 -35.5C-196.5 -48.1 -196.5 -55.1 -196.5 -56.5C-196.5 -56.5 -196.5 -56.5 -196.5 -56.5C-181.26 -56.5 -172.8 -56.5 -171.1 -56.5C-171.1 -56.5 -171.1 -56.5 -171.1 -56.5C-171.1 -43.9 -171.1 -36.9 -171.1 -35.5C-171.1 -35.5 -171.1 -35.5 -171.1 -35.5Z" id="a5khKz53do"></path><path d="M-171.1 -35.5C-186.34 -35.5 -194.81 -35.5 -196.5 -35.5C-196.5 -35.5 -196.5 -35.5 -196.5 -35.5C-196.5 -48.1 -196.5 -55.1 -196.5 -56.5C-196.5 -56.5 -196.5 -56.5 -196.5 -56.5C-181.26 -56.5 -172.8 -56.5 -171.1 -56.5C-171.1 -56.5 -171.1 -56.5 -171.1 -56.5C-171.1 -43.9 -171.1 -36.9 -171.1 -35.5C-171.1 -35.5 -171.1 -35.5 -171.1 -35.5Z" id="dhtPfL5On"></path><path d="M-171.1 -35.5C-186.34 -35.5 -194.81 -35.5 -196.5 -35.5C-196.5 -35.5 -196.5 -35.5 -196.5 -35.5C-196.5 -48.1 -196.5 -55.1 -196.5 -56.5C-196.5 -56.5 -196.5 -56.5 -196.5 -56.5C-181.26 -56.5 -172.8 -56.5 -171.1 -56.5C-171.1 -56.5 -171.1 -56.5 -171.1 -56.5C-171.1 -43.9 -171.1 -36.9 -171.1 -35.5C-171.1 -35.5 -171.1 -35.5 -171.1 -35.5Z" id="a3Nc8ERf5J"></path><path d="M-171.1 -35.5C-186.34 -35.5 -194.81 -35.5 -196.5 -35.5C-196.5 -35.5 -196.5 -35.5 -196.5 -35.5C-196.5 -48.1 -196.5 -55.1 -196.5 -56.5C-196.5 -56.5 -196.5 -56.5 -196.5 -56.5C-181.26 -56.5 -172.8 -56.5 -171.1 -56.5C-171.1 -56.5 -171.1 -56.5 -171.1 -56.5C-171.1 -43.9 -171.1 -36.9 -171.1 -35.5C-171.1 -35.5 -171.1 -35.5 -171.1 -35.5Z" id="bf20UQGiL"></path><path d="M-171.1 -35.5C-186.34 -35.5 -194.81 -35.5 -196.5 -35.5C-196.5 -35.5 -196.5 -35.5 -196.5 -35.5C-196.5 -48.1 -196.5 -55.1 -196.5 -56.5C-196.5 -56.5 -196.5 -56.5 -196.5 -56.5C-181.26 -56.5 -172.8 -56.5 -171.1 -56.5C-171.1 -56.5 -171.1 -56.5 -171.1 -56.5C-171.1 -43.9 -171.1 -36.9 -171.1 -35.5C-171.1 -35.5 -171.1 -35.5 -171.1 -35.5Z" id="ahKxwaBE"></path><path d="M-171.1 -35.5C-186.34 -35.5 -194.81 -35.5 -196.5 -35.5C-196.5 -35.5 -196.5 -35.5 -196.5 -35.5C-196.5 -48.1 -196.5 -55.1 -196.5 -56.5C-196.5 -56.5 -196.5 -56.5 -196.5 -56.5C-181.26 -56.5 -172.8 -56.5 -171.1 -56.5C-171.1 -56.5 -171.1 -56.5 -171.1 -56.5C-171.1 -43.9 -171.1 -36.9 -171.1 -35.5C-171.1 -35.5 -171.1 -35.5 -171.1 -35.5Z" id="c3EwXD40BF"></path><path d="M-171.1 -35.5C-186.34 -35.5 -194.81 -35.5 -196.5 -35.5C-196.5 -35.5 -196.5 -35.5 -196.5 -35.5C-196.5 -48.1 -196.5 -55.1 -196.5 -56.5C-196.5 -56.5 -196.5 -56.5 -196.5 -56.5C-181.26 -56.5 -172.8 -56.5 -171.1 -56.5C-171.1 -56.5 -171.1 -56.5 -171.1 -56.5C-171.1 -43.9 -171.1 -36.9 -171.1 -35.5C-171.1 -35.5 -171.1 -35.5 -171.1 -35.5Z" id="blIjSyxRc"></path><path d="M282.5 561.82C407.5 561.82 470 507.82 470 414.55C470 306.55 345 267.27 220 120C95 267.27 -30 306.55 -30 414.55C-30 507.82 32.5 561.82 157.5 561.82C157.5 574.91 157.5 607.64 157.5 660C182.5 660 270 660 282.5 660C282.5 601.09 282.5 568.36 282.5 561.82Z" id="baV9KsG336"></path><path d="M282.5 561.82C407.5 561.82 470 507.82 470 414.55C470 306.55 345 267.27 220 120C95 267.27 -30 306.55 -30 414.55C-30 507.82 32.5 561.82 157.5 561.82C157.5 574.91 157.5 607.64 157.5 660C182.5 660 270 660 282.5 660C282.5 601.09 282.5 568.36 282.5 561.82Z" id="a57qRkwRN2"></path><path d="M282.5 561.82C407.5 561.82 470 507.82 470 414.55C470 306.55 345 267.27 220 120C95 267.27 -30 306.55 -30 414.55C-30 507.82 32.5 561.82 157.5 561.82C157.5 574.91 157.5 607.64 157.5 660C182.5 660 270 660 282.5 660C282.5 601.09 282.5 568.36 282.5 561.82Z" id="baBZxfG0a"></path><path d="M282.5 561.82C407.5 561.82 470 507.82 470 414.55C470 306.55 345 267.27 220 120C95 267.27 -30 306.55 -30 414.55C-30 507.82 32.5 561.82 157.5 561.82C157.5 574.91 157.5 607.64 157.5 660C182.5 660 270 660 282.5 660C282.5 601.09 282.5 568.36 282.5 561.82Z" id="h1VLMoXm4V"></path><path d="M58.13 73.02C73.13 73.02 80.63 66.54 80.63 55.35C80.63 42.39 65.63 37.67 50.63 20C35.63 37.67 20.63 42.39 20.63 55.35C20.63 66.54 28.13 73.02 43.13 73.02C43.13 74.59 43.13 78.52 43.13 84.8C46.13 84.8 56.63 84.8 58.13 84.8C58.13 77.73 58.13 73.8 58.13 73.02Z" id="a3122oEIj"></path><path d="M58.13 73.02C73.13 73.02 80.63 66.54 80.63 55.35C80.63 42.39 65.63 37.67 50.63 20C35.63 37.67 20.63 42.39 20.63 55.35C20.63 66.54 28.13 73.02 43.13 73.02C43.13 74.59 43.13 78.52 43.13 84.8C46.13 84.8 56.63 84.8 58.13 84.8C58.13 77.73 58.13 73.8 58.13 73.02Z" id="b3UzQiLorM"></path><path d="M58.13 73.02C73.13 73.02 80.63 66.54 80.63 55.35C80.63 42.39 65.63 37.67 50.63 20C35.63 37.67 20.63 42.39 20.63 55.35C20.63 66.54 28.13 73.02 43.13 73.02C43.13 74.59 43.13 78.52 43.13 84.8C46.13 84.8 56.63 84.8 58.13 84.8C58.13 77.73 58.13 73.8 58.13 73.02Z" id="a6J6uqqlr"></path><path d="M58.13 73.02C73.13 73.02 80.63 66.54 80.63 55.35C80.63 42.39 65.63 37.67 50.63 20C35.63 37.67 20.63 42.39 20.63 55.35C20.63 66.54 28.13 73.02 43.13 73.02C43.13 74.59 43.13 78.52 43.13 84.8C46.13 84.8 56.63 84.8 58.13 84.8C58.13 77.73 58.13 73.8 58.13 73.02Z" id="d112T1OLeS"></path></defs><g><g><g><use xlink:href="#crgzotzyF" opacity="1" fill="#000000" fill-opacity="0"></use><g><use xlink:href="#crgzotzyF" opacity="1" fill-opacity="0" stroke="#000000" stroke-width="1" stroke-opacity="0"></use></g></g><g><use xlink:href="#c11brA5Kyp" opacity="1" fill="#000000" fill-opacity="0"></use><g><use xlink:href="#c11brA5Kyp" opacity="1" fill-opacity="0" stroke="#000000" stroke-width="1" stroke-opacity="0"></use></g></g><g><use xlink:href="#b17UnRaZhv" opacity="1" fill="#000000" fill-opacity="0"></use><g><use xlink:href="#b17UnRaZhv" opacity="1" fill-opacity="0" stroke="#000000" stroke-width="1" stroke-opacity="0"></use></g></g><g><use xlink:href="#aQWwq81a2" opacity="1" fill="#000000" fill-opacity="0"></use><g><use xlink:href="#aQWwq81a2" opacity="1" fill-opacity="0" stroke="#000000" stroke-width="1" stroke-opacity="0"></use></g></g><g><use xlink:href="#a2k0F5rLjb" opacity="1" fill="#000000" fill-opacity="0"></use><g><use xlink:href="#a2k0F5rLjb" opacity="1" fill-opacity="0" stroke="#000000" stroke-width="1" stroke-opacity="0"></use></g></g><g><use xlink:href="#b4mMNh4Rz" opacity="1" fill="#000000" fill-opacity="0"></use><g><use xlink:href="#b4mMNh4Rz" opacity="1" fill-opacity="0" stroke="#000000" stroke-width="1" stroke-opacity="0"></use></g></g><g><use xlink:href="#bejuAd3rh" opacity="1" fill="#000000" fill-opacity="0"></use><g><use xlink:href="#bejuAd3rh" opacity="1" fill-opacity="0" stroke="#000000" stroke-width="1" stroke-opacity="0"></use></g></g><g><use xlink:href="#e4N5FaGGSL" opacity="1" fill="#000000" fill-opacity="0"></use><g><use xlink:href="#e4N5FaGGSL" opacity="1" fill-opacity="0" stroke="#000000" stroke-width="1" stroke-opacity="0"></use></g></g><g><use xlink:href="#a1flj5WZwW" opacity="1" fill="#000000" fill-opacity="0"></use><g><use xlink:href="#a1flj5WZwW" opacity="1" fill-opacity="0" stroke="#000000" stroke-width="1" stroke-opacity="0"></use></g></g><g><use xlink:href="#c2J0I1VM4o" opacity="1" fill="#000000" fill-opacity="0"></use><g><use xlink:href="#c2J0I1VM4o" opacity="1" fill-opacity="0" stroke="#000000" stroke-width="1" stroke-opacity="0"></use></g></g><g><use xlink:href="#g2dP3J9wah" opacity="1" fill="#000000" fill-opacity="0"></use><g><use xlink:href="#g2dP3J9wah" opacity="1" fill-opacity="0" stroke="#000000" stroke-width="1" stroke-opacity="0"></use></g></g><g><use xlink:href="#b2SFtruDqm" opacity="1" fill="#000000" fill-opacity="0"></use><g><use xlink:href="#b2SFtruDqm" opacity="1" fill-opacity="0" stroke="#000000" stroke-width="1" stroke-opacity="0"></use></g></g><g><use xlink:href="#d9zYVyn8u" opacity="1" fill="#000000" fill-opacity="0"></use><g><use xlink:href="#d9zYVyn8u" opacity="1" fill-opacity="0" stroke="#000000" stroke-width="1" stroke-opacity="0"></use></g></g><g><use xlink:href="#e7pUK6v9TN" opacity="1" fill="#000000" fill-opacity="0"></use><g><use xlink:href="#e7pUK6v9TN" opacity="1" fill-opacity="0" stroke="#000000" stroke-width="1" stroke-opacity="0"></use></g></g><g><use xlink:href="#bb3lxXSQ7" opacity="1" fill="#000000" fill-opacity="0"></use><g><use xlink:href="#bb3lxXSQ7" opacity="1" fill-opacity="0" stroke="#000000" stroke-width="1" stroke-opacity="0"></use></g></g><g><use xlink:href="#e2oN2tKVua" opacity="1" fill="#000000" fill-opacity="0"></use><g><use xlink:href="#e2oN2tKVua" opacity="1" fill-opacity="0" stroke="#000000" stroke-width="1" stroke-opacity="0"></use></g></g><g><use xlink:href="#bfeEgK3M2" opacity="1" fill="#000000" fill-opacity="0"></use><g><use xlink:href="#bfeEgK3M2" opacity="1" fill-opacity="0" stroke="#000000" stroke-width="1" stroke-opacity="0"></use></g></g><g><use xlink:href="#aY3vaG8Wx" opacity="1" fill="#000000" fill-opacity="0"></use><g><use xlink:href="#aY3vaG8Wx" opacity="1" fill-opacity="0" stroke="#000000" stroke-width="1" stroke-opacity="0"></use></g></g><g><use xlink:href="#b4B62ISYO" opacity="1" fill="#000000" fill-opacity="0"></use><g><use xlink:href="#b4B62ISYO" opacity="1" fill-opacity="0" stroke="#000000" stroke-width="1" stroke-opacity="0"></use></g></g><g><use xlink:href="#e1a4yDgUQC" opacity="1" fill="#000000" fill-opacity="0"></use><g><use xlink:href="#e1a4yDgUQC" opacity="1" fill-opacity="0" stroke="#000000" stroke-width="1" stroke-opacity="0"></use></g></g><g><use xlink:href="#fkSkzJg0Q" opacity="1" fill="#000000" fill-opacity="0"></use><g><use xlink:href="#fkSkzJg0Q" opacity="1" fill-opacity="0" stroke="#000000" stroke-width="1" stroke-opacity="0"></use></g></g><g><use xlink:href="#c2rRE3htpS" opacity="1" fill="#000000" fill-opacity="0"></use><g><use xlink:href="#c2rRE3htpS" opacity="1" fill-opacity="0" stroke="#000000" stroke-width="1" stroke-opacity="0"></use></g></g><g><use xlink:href="#bcbo44sb3" opacity="1" fill="#000000" fill-opacity="0"></use><g><use xlink:href="#bcbo44sb3" opacity="1" fill-opacity="0" stroke="#000000" stroke-width="1" stroke-opacity="0"></use></g></g><g><use xlink:href="#aINdxIzlW" opacity="1" fill="#000000" fill-opacity="0"></use><g><use xlink:href="#aINdxIzlW" opacity="1" fill-opacity="0" stroke="#000000" stroke-width="1" stroke-opacity="0"></use></g></g><g><use xlink:href="#a1WzapUamT" opacity="1" fill="#000000" fill-opacity="0"></use><g><use xlink:href="#a1WzapUamT" opacity="1" fill-opacity="0" stroke="#000000" stroke-width="1" stroke-opacity="0"></use></g></g><g><use xlink:href="#g1pIIGTz1r" opacity="1" fill="#000000" fill-opacity="0"></use><g><use xlink:href="#g1pIIGTz1r" opacity="1" fill-opacity="0" stroke="#000000" stroke-width="1" stroke-opacity="0"></use></g></g><g><use xlink:href="#aqB6FzIxn" opacity="1" fill="#000000" fill-opacity="0"></use><g><use xlink:href="#aqB6FzIxn" opacity="1" fill-opacity="0" stroke="#000000" stroke-width="1" stroke-opacity="0"></use></g></g><g><use xlink:href="#e2loTsGv9" opacity="1" fill="#000000" fill-opacity="0"></use><g><use xlink:href="#e2loTsGv9" opacity="1" fill-opacity="0" stroke="#000000" stroke-width="1" stroke-opacity="0"></use></g></g><g><use xlink:href="#bbuv12zrr" opacity="1" fill="#000000" fill-opacity="0"></use><g><use xlink:href="#bbuv12zrr" opacity="1" fill-opacity="0" stroke="#000000" stroke-width="1" stroke-opacity="0"></use></g></g><g><use xlink:href="#d1uNfXTZNU" opacity="1" fill="#000000" fill-opacity="0"></use><g><use xlink:href="#d1uNfXTZNU" opacity="1" fill-opacity="0" stroke="#000000" stroke-width="1" stroke-opacity="0"></use></g></g><g><use xlink:href="#aSV3whBo6" opacity="1" fill="#000000" fill-opacity="0"></use><g><use xlink:href="#aSV3whBo6" opacity="1" fill-opacity="0" stroke="#000000" stroke-width="1" stroke-opacity="0"></use></g></g><g><use xlink:href="#b1RerOdo3t" opacity="1" fill="#000000" fill-opacity="0"></use><g><use xlink:href="#b1RerOdo3t" opacity="1" fill-opacity="0" stroke="#000000" stroke-width="1" stroke-opacity="0"></use></g></g><g><use xlink:href="#c2VcxQPapl" opacity="1" fill="#000000" fill-opacity="0"></use><g><use xlink:href="#c2VcxQPapl" opacity="1" fill-opacity="0" stroke="#000000" stroke-width="1" stroke-opacity="0"></use></g></g><g><use xlink:href="#bm00qSqTz" opacity="1" fill="#000000" fill-opacity="0"></use><g><use xlink:href="#bm00qSqTz" opacity="1" fill-opacity="0" stroke="#000000" stroke-width="1" stroke-opacity="0"></use></g></g><g><use xlink:href="#aSTVxEUW" opacity="1" fill="#000000" fill-opacity="0"></use><g><use xlink:href="#aSTVxEUW" opacity="1" fill-opacity="0" stroke="#000000" stroke-width="1" stroke-opacity="0"></use></g></g><g><use xlink:href="#e1A5rAH1rM" opacity="1" fill="#000000" fill-opacity="0"></use><g><use xlink:href="#e1A5rAH1rM" opacity="1" fill-opacity="0" stroke="#000000" stroke-width="1" stroke-opacity="0"></use></g></g><g><use xlink:href="#c2nRN7UToi" opacity="1" fill="#000000" fill-opacity="0"></use><g><use xlink:href="#c2nRN7UToi" opacity="1" fill-opacity="0" stroke="#000000" stroke-width="1" stroke-opacity="0"></use></g></g><g><use xlink:href="#e3WnuY5FNJ" opacity="1" fill="#000000" fill-opacity="0"></use><g><use xlink:href="#e3WnuY5FNJ" opacity="1" fill-opacity="0" stroke="#000000" stroke-width="1" stroke-opacity="0"></use></g></g><g><use xlink:href="#c3fUt94zwA" opacity="1" fill="#000000" fill-opacity="0"></use><g><use xlink:href="#c3fUt94zwA" opacity="1" fill-opacity="0" stroke="#000000" stroke-width="1" stroke-opacity="0"></use></g></g><g><use xlink:href="#brKMjUHxt" opacity="1" fill="#000000" fill-opacity="0"></use><g><use xlink:href="#brKMjUHxt" opacity="1" fill-opacity="0" stroke="#000000" stroke-width="1" stroke-opacity="0"></use></g></g><g><g><filter id="shadow389900" x="-12" y="-12" width="464" height="664" filterUnits="userSpaceOnUse" primitiveUnits="userSpaceOnUse"><feFlood></feFlood><feComposite in2="SourceAlpha" operator="in"></feComposite><feGaussianBlur stdDeviation="1.73"></feGaussianBlur><feOffset dx="0" dy="0" result="afterOffset"></feOffset><feFlood flood-color="#000000" flood-opacity="0.5"></feFlood><feComposite in2="afterOffset" operator="in"></feComposite><feMorphology operator="dilate" radius="1"></feMorphology><feComposite in2="SourceAlpha" operator="out"></feComposite></filter><path d="M0 0L440 0L440 640L0 640L0 0Z" id="b7ExRy5g4" fill="white" fill-opacity="1" filter="url(#shadow389900)"></path></g><use xlink:href="#aanSoUux5" opacity="1" fill="#ffffff" fill-opacity="1"></use></g><g><use xlink:href="#jgmJSDFXQ" opacity="1" fill="#000000" fill-opacity="0"></use><g><use xlink:href="#jgmJSDFXQ" opacity="1" fill-opacity="0" stroke="#000000" stroke-width="1" stroke-opacity="0"></use></g></g><g><use xlink:href="#d5trSUkh94" opacity="1" fill="#000000" fill-opacity="0"></use><g><use xlink:href="#d5trSUkh94" opacity="1" fill-opacity="0" stroke="#000000" stroke-width="1" stroke-opacity="0"></use></g></g><g><use xlink:href="#gETOS3rVW" opacity="1" fill="#000000" fill-opacity="0"></use><g><use xlink:href="#gETOS3rVW" opacity="1" fill-opacity="0" stroke="#000000" stroke-width="1" stroke-opacity="0"></use></g></g><g><use xlink:href="#d6nufygrkz" opacity="1" fill="#000000" fill-opacity="0"></use><g><use xlink:href="#d6nufygrkz" opacity="1" fill-opacity="0" stroke="#000000" stroke-width="1" stroke-opacity="0"></use></g></g><g><use xlink:href="#c3VTl8k4AB" opacity="1" fill="#000000" fill-opacity="0"></use><g><use xlink:href="#c3VTl8k4AB" opacity="1" fill-opacity="0" stroke="#000000" stroke-width="1" stroke-opacity="0"></use></g></g><g><use xlink:href="#b4hAAtDkA" opacity="1" fill="#000000" fill-opacity="0"></use><g><use xlink:href="#b4hAAtDkA" opacity="1" fill-opacity="0" stroke="#000000" stroke-width="1" stroke-opacity="0"></use></g></g><g><use xlink:href="#aB7Wr6TSl" opacity="1" fill="#000000" fill-opacity="0"></use><g><use xlink:href="#aB7Wr6TSl" opacity="1" fill-opacity="0" stroke="#000000" stroke-width="1" stroke-opacity="0"></use></g></g><g><use xlink:href="#aZV7zzXU" opacity="1" fill="#000000" fill-opacity="0"></use><g><use xlink:href="#aZV7zzXU" opacity="1" fill-opacity="0" stroke="#000000" stroke-width="1" stroke-opacity="0"></use></g></g><g><use xlink:href="#c3IfObHvl" opacity="1" fill="#000000" fill-opacity="0"></use><g><use xlink:href="#c3IfObHvl" opacity="1" fill-opacity="0" stroke="#000000" stroke-width="1" stroke-opacity="0"></use></g></g><g><use xlink:href="#bBFLeiEMW" opacity="1" fill="#000000" fill-opacity="0"></use><g><use xlink:href="#bBFLeiEMW" opacity="1" fill-opacity="0" stroke="#000000" stroke-width="1" stroke-opacity="0"></use></g></g><g><use xlink:href="#e30hm1KmD8" opacity="1" fill="#000000" fill-opacity="0"></use><g><use xlink:href="#e30hm1KmD8" opacity="1" fill-opacity="0" stroke="#000000" stroke-width="1" stroke-opacity="0"></use></g></g><g><use xlink:href="#eD1cImt9" opacity="1" fill="#000000" fill-opacity="0"></use><g><use xlink:href="#eD1cImt9" opacity="1" fill-opacity="0" stroke="#000000" stroke-width="1" stroke-opacity="0"></use></g></g><g><use xlink:href="#b160Or0CmM" opacity="1" fill="#000000" fill-opacity="0"></use><g><use xlink:href="#b160Or0CmM" opacity="1" fill-opacity="0" stroke="#000000" stroke-width="1" stroke-opacity="0"></use></g></g><g><use xlink:href="#a1rokZ2s5v" opacity="1" fill="#000000" fill-opacity="0"></use><g><use xlink:href="#a1rokZ2s5v" opacity="1" fill-opacity="0" stroke="#000000" stroke-width="1" stroke-opacity="0"></use></g></g><g><use xlink:href="#a29YrO58hW" opacity="1" fill="#000000" fill-opacity="0"></use><g><use xlink:href="#a29YrO58hW" opacity="1" fill-opacity="0" stroke="#000000" stroke-width="1" stroke-opacity="0"></use></g></g><g><use xlink:href="#c3ejKEXpw" opacity="1" fill="#000000" fill-opacity="0"></use><g><use xlink:href="#c3ejKEXpw" opacity="1" fill-opacity="0" stroke="#000000" stroke-width="1" stroke-opacity="0"></use></g></g><g><use xlink:href="#c1eLnZYxWp" opacity="1" fill="#000000" fill-opacity="0"></use><g><use xlink:href="#c1eLnZYxWp" opacity="1" fill-opacity="0" stroke="#000000" stroke-width="1" stroke-opacity="0"></use></g></g><g><use xlink:href="#fXSoGI99w" opacity="1" fill="#000000" fill-opacity="0"></use><g><use xlink:href="#fXSoGI99w" opacity="1" fill-opacity="0" stroke="#000000" stroke-width="1" stroke-opacity="0"></use></g></g><g><use xlink:href="#f1DDJQ5WjW" opacity="1" fill="#000000" fill-opacity="0"></use><g><use xlink:href="#f1DDJQ5WjW" opacity="1" fill-opacity="0" stroke="#000000" stroke-width="1" stroke-opacity="0"></use></g></g><g><use xlink:href="#cdoMjjKSV" opacity="1" fill="#000000" fill-opacity="0"></use><g><use xlink:href="#cdoMjjKSV" opacity="1" fill-opacity="0" stroke="#000000" stroke-width="1" stroke-opacity="0"></use></g></g><g><use xlink:href="#aPIKO7QKW" opacity="1" fill="#000000" fill-opacity="0"></use><g><use xlink:href="#aPIKO7QKW" opacity="1" fill-opacity="0" stroke="#000000" stroke-width="1" stroke-opacity="0"></use></g></g><g><use xlink:href="#b5gAit0lcV" opacity="1" fill="#000000" fill-opacity="0"></use><g><use xlink:href="#b5gAit0lcV" opacity="1" fill-opacity="0" stroke="#000000" stroke-width="1" stroke-opacity="0"></use></g></g><g><use xlink:href="#m8gZM6FKu" opacity="1" fill="#000000" fill-opacity="0"></use><g><use xlink:href="#m8gZM6FKu" opacity="1" fill-opacity="0" stroke="#000000" stroke-width="1" stroke-opacity="0"></use></g></g><g><use xlink:href="#gupUtzHe9" opacity="1" fill="#000000" fill-opacity="0"></use><g><use xlink:href="#gupUtzHe9" opacity="1" fill-opacity="0" stroke="#000000" stroke-width="1" stroke-opacity="0"></use></g></g><g><use xlink:href="#h1PCEwPURf" opacity="1" fill="#000000" fill-opacity="0"></use><g><use xlink:href="#h1PCEwPURf" opacity="1" fill-opacity="0" stroke="#000000" stroke-width="1" stroke-opacity="0"></use></g></g><g><use xlink:href="#daLyupfGK" opacity="1" fill="#000000" fill-opacity="0"></use><g><use xlink:href="#daLyupfGK" opacity="1" fill-opacity="0" stroke="#000000" stroke-width="1" stroke-opacity="0"></use></g></g><g><use xlink:href="#c2eJqGDfpX" opacity="1" fill="#000000" fill-opacity="0"></use><g><use xlink:href="#c2eJqGDfpX" opacity="1" fill-opacity="0" stroke="#000000" stroke-width="1" stroke-opacity="0"></use></g></g><g><use xlink:href="#a8sIYeGSts" opacity="1" fill="#000000" fill-opacity="0"></use><g><use xlink:href="#a8sIYeGSts" opacity="1" fill-opacity="0" stroke="#000000" stroke-width="1" stroke-opacity="0"></use></g></g><g><use xlink:href="#d1oTytEAOM" opacity="1" fill="#000000" fill-opacity="0"></use><g><use xlink:href="#d1oTytEAOM" opacity="1" fill-opacity="0" stroke="#000000" stroke-width="1" stroke-opacity="0"></use></g></g><g><use xlink:href="#csahvKkI4" opacity="1" fill="#000000" fill-opacity="0"></use><g><use xlink:href="#csahvKkI4" opacity="1" fill-opacity="0" stroke="#000000" stroke-width="1" stroke-opacity="0"></use></g></g><g><use xlink:href="#aaYJZbzPAX" opacity="1" fill="#000000" fill-opacity="0"></use><g><use xlink:href="#aaYJZbzPAX" opacity="1" fill-opacity="0" stroke="#000000" stroke-width="1" stroke-opacity="0"></use></g></g><g><use xlink:href="#k8xPUaUqn" opacity="1" fill="#000000" fill-opacity="0"></use><g><use xlink:href="#k8xPUaUqn" opacity="1" fill-opacity="0" stroke="#000000" stroke-width="1" stroke-opacity="0"></use></g></g><g><use xlink:href="#a1KiWvotA" opacity="1" fill="#000000" fill-opacity="0"></use><g><use xlink:href="#a1KiWvotA" opacity="1" fill-opacity="0" stroke="#000000" stroke-width="1" stroke-opacity="0"></use></g></g><g><use xlink:href="#evjS2jd5L" opacity="1" fill="#000000" fill-opacity="0"></use><g><use xlink:href="#evjS2jd5L" opacity="1" fill-opacity="0" stroke="#000000" stroke-width="1" stroke-opacity="0"></use></g></g><g><use xlink:href="#cCdtqVQUD" opacity="1" fill="#000000" fill-opacity="0"></use><g><use xlink:href="#cCdtqVQUD" opacity="1" fill-opacity="0" stroke="#000000" stroke-width="1" stroke-opacity="0"></use></g></g><g><use xlink:href="#cxYlxuLMR" opacity="1" fill="#000000" fill-opacity="0"></use><g><use xlink:href="#cxYlxuLMR" opacity="1" fill-opacity="0" stroke="#000000" stroke-width="1" stroke-opacity="0"></use></g></g><g><use xlink:href="#a1sm8GxgbA" opacity="1" fill="#000000" fill-opacity="0"></use><g><use xlink:href="#a1sm8GxgbA" opacity="1" fill-opacity="0" stroke="#000000" stroke-width="1" stroke-opacity="0"></use></g></g><g><use xlink:href="#evqzhd9h3" opacity="1" fill="#000000" fill-opacity="0"></use><g><use xlink:href="#evqzhd9h3" opacity="1" fill-opacity="0" stroke="#000000" stroke-width="1" stroke-opacity="0"></use></g></g><g><use xlink:href="#b1PopElRyX" opacity="1" fill="#000000" fill-opacity="0"></use><g><use xlink:href="#b1PopElRyX" opacity="1" fill-opacity="0" stroke="#000000" stroke-width="1" stroke-opacity="0"></use></g></g><g><use xlink:href="#bnfyPzrcH" opacity="1" fill="#000000" fill-opacity="0"></use><g><use xlink:href="#bnfyPzrcH" opacity="1" fill-opacity="0" stroke="#000000" stroke-width="1" stroke-opacity="0"></use></g></g><g><g><filter id="shadow7060685" x="17.79" y="18" width="406.71" height="604" filterUnits="userSpaceOnUse" primitiveUnits="userSpaceOnUse"><feFlood></feFlood><feComposite in2="SourceAlpha" operator="in"></feComposite><feGaussianBlur stdDeviation="1.73"></feGaussianBlur><feOffset dx="0" dy="0" result="afterOffset"></feOffset><feFlood flood-color="#000000" flood-opacity="0.5"></feFlood><feComposite in2="afterOffset" operator="in"></feComposite><feMorphology operator="dilate" radius="1"></feMorphology><feComposite in2="SourceAlpha" operator="out"></feComposite></filter><path d="M412.5 528.85C412.5 573.67 376.43 610 331.94 610C271.51 610 170.79 610 110.36 610C65.86 610 29.79 573.67 29.79 528.85C29.79 429.08 29.79 210.92 29.79 111.15C29.79 66.33 65.86 30 110.36 30C170.79 30 271.51 30 331.94 30C376.43 30 412.5 66.33 412.5 111.15C412.5 210.92 412.5 429.08 412.5 528.85Z" id="g12stkR4Nv" fill="white" fill-opacity="1" filter="url(#shadow7060685)"></path></g><use xlink:href="#a7nuOMmLi" opacity="1" fill="#000000" fill-opacity="0"></use><g><use xlink:href="#a7nuOMmLi" opacity="1" fill-opacity="0" stroke="#000000" stroke-width="1" stroke-opacity="0"></use></g></g><g><g><filter id="shadow10340857" x="17.79" y="18" width="406.71" height="604" filterUnits="userSpaceOnUse" primitiveUnits="userSpaceOnUse"><feFlood></feFlood><feComposite in2="SourceAlpha" operator="in"></feComposite><feGaussianBlur stdDeviation="1.73"></feGaussianBlur><feOffset dx="0" dy="0" result="afterOffset"></feOffset><feFlood flood-color="#000000" flood-opacity="0.5"></feFlood><feComposite in2="afterOffset" operator="in"></feComposite><feMorphology operator="dilate" radius="1"></feMorphology><feComposite in2="SourceAlpha" operator="out"></feComposite></filter><path d="M412.5 528.85C412.5 573.67 376.43 610 331.94 610C271.51 610 170.79 610 110.36 610C65.86 610 29.79 573.67 29.79 528.85C29.79 429.08 29.79 210.92 29.79 111.15C29.79 66.33 65.86 30 110.36 30C170.79 30 271.51 30 331.94 30C376.43 30 412.5 66.33 412.5 111.15C412.5 210.92 412.5 429.08 412.5 528.85Z" id="cGYkeU3LF" fill="white" fill-opacity="1" filter="url(#shadow10340857)"></path></g><use xlink:href="#a3pcAE9TvQ" opacity="1" fill="#000000" fill-opacity="0"></use><g><use xlink:href="#a3pcAE9TvQ" opacity="1" fill-opacity="0" stroke="#000000" stroke-width="2" stroke-opacity="1"></use></g><g><filter id="shadow4179120" x="17.79" y="18" width="406.71" height="604" filterUnits="userSpaceOnUse" primitiveUnits="userSpaceOnUse"><feFlood></feFlood><feComposite in2="SourceAlpha" operator="out"></feComposite><feGaussianBlur stdDeviation="1.73"></feGaussianBlur><feOffset dx="0" dy="0" result="afterOffset"></feOffset><feFlood flood-color="#000000" flood-opacity="0.5"></feFlood><feComposite in2="afterOffset" operator="in"></feComposite><feMorphology operator="dilate" radius="1"></feMorphology><feComposite in2="SourceAlpha" operator="in"></feComposite></filter><path d="M412.5 528.85C412.5 573.67 376.43 610 331.94 610C271.51 610 170.79 610 110.36 610C65.86 610 29.79 573.67 29.79 528.85C29.79 429.08 29.79 210.92 29.79 111.15C29.79 66.33 65.86 30 110.36 30C170.79 30 271.51 30 331.94 30C376.43 30 412.5 66.33 412.5 111.15C412.5 210.92 412.5 429.08 412.5 528.85Z" id="bwUX5OvKP" fill="white" fill-opacity="1" filter="url(#shadow4179120)"></path></g></g><g><g><filter id="shadow10448546" x="-12" y="-12" width="464" height="25.88" filterUnits="userSpaceOnUse" primitiveUnits="userSpaceOnUse"><feFlood></feFlood><feComposite in2="SourceAlpha" operator="in"></feComposite><feGaussianBlur stdDeviation="1.73"></feGaussianBlur><feOffset dx="0" dy="0" result="afterOffset"></feOffset><feFlood flood-color="#000000" flood-opacity="0.5"></feFlood><feComposite in2="afterOffset" operator="in"></feComposite><feMorphology operator="dilate" radius="1"></feMorphology><feComposite in2="SourceAlpha" operator="out"></feComposite></filter><path d="M440 0L440 1.88L0 1.88L0 0L440 0Z" id="al6VbEwus" fill="white" fill-opacity="1" filter="url(#shadow10448546)"></path></g><use xlink:href="#c11tBHSFVV" opacity="1" fill="#000000" fill-opacity="1"></use><g><use xlink:href="#c11tBHSFVV" opacity="1" fill-opacity="0" stroke="#000000" stroke-width="1" stroke-opacity="0"></use></g></g><g><g><filter id="shadow6389361" x="426.17" y="-12" width="25.83" height="664" filterUnits="userSpaceOnUse" primitiveUnits="userSpaceOnUse"><feFlood></feFlood><feComposite in2="SourceAlpha" operator="in"></feComposite><feGaussianBlur stdDeviation="1.73"></feGaussianBlur><feOffset dx="0" dy="0" result="afterOffset"></feOffset><feFlood flood-color="#000000" flood-opacity="0.5"></feFlood><feComposite in2="afterOffset" operator="in"></feComposite><feMorphology operator="dilate" radius="1"></feMorphology><feComposite in2="SourceAlpha" operator="out"></feComposite></filter><path d="M440 640L438.17 640L438.17 0L440 0L440 640Z" id="c6jpnTKO4" fill="white" fill-opacity="1" filter="url(#shadow6389361)"></path></g><use xlink:href="#d3tAsMOGwd" opacity="1" fill="#000000" fill-opacity="1"></use><g><use xlink:href="#d3tAsMOGwd" opacity="1" fill-opacity="0" stroke="#000000" stroke-width="1" stroke-opacity="0"></use></g></g><g><g><filter id="shadow15407932" x="-12" y="-12" width="25.83" height="664" filterUnits="userSpaceOnUse" primitiveUnits="userSpaceOnUse"><feFlood></feFlood><feComposite in2="SourceAlpha" operator="in"></feComposite><feGaussianBlur stdDeviation="1.73"></feGaussianBlur><feOffset dx="0" dy="0" result="afterOffset"></feOffset><feFlood flood-color="#000000" flood-opacity="0.5"></feFlood><feComposite in2="afterOffset" operator="in"></feComposite><feMorphology operator="dilate" radius="1"></feMorphology><feComposite in2="SourceAlpha" operator="out"></feComposite></filter><path d="M1.83 640L0 640L0 0L1.83 0L1.83 640Z" id="b1aKljBmmY" fill="white" fill-opacity="1" filter="url(#shadow15407932)"></path></g><use xlink:href="#apXNgcxmy" opacity="1" fill="#000000" fill-opacity="1"></use><g><use xlink:href="#apXNgcxmy" opacity="1" fill-opacity="0" stroke="#000000" stroke-width="1" stroke-opacity="0"></use></g></g><g><g><filter id="shadow5772370" x="-12" y="626.13" width="464" height="25.87" filterUnits="userSpaceOnUse" primitiveUnits="userSpaceOnUse"><feFlood></feFlood><feComposite in2="SourceAlpha" operator="in"></feComposite><feGaussianBlur stdDeviation="1.73"></feGaussianBlur><feOffset dx="0" dy="0" result="afterOffset"></feOffset><feFlood flood-color="#000000" flood-opacity="0.5"></feFlood><feComposite in2="afterOffset" operator="in"></feComposite><feMorphology operator="dilate" radius="1"></feMorphology><feComposite in2="SourceAlpha" operator="out"></feComposite></filter><path d="M440 638.13L440 640L0 640L0 638.13L440 638.13Z" id="c17gf0drQM" fill="white" fill-opacity="1" filter="url(#shadow5772370)"></path></g><use xlink:href="#d235ce4qnQ" opacity="1" fill="#000000" fill-opacity="1"></use><g><use xlink:href="#d235ce4qnQ" opacity="1" fill-opacity="0" stroke="#000000" stroke-width="1" stroke-opacity="0"></use></g></g><g><use xlink:href="#bsgCizUL" opacity="1" fill="#000000" fill-opacity="0"></use><g><use xlink:href="#bsgCizUL" opacity="1" fill-opacity="0" stroke="#000000" stroke-width="1" stroke-opacity="0"></use></g></g><g><use xlink:href="#cZ5JF9JG" opacity="1" fill="#000000" fill-opacity="0"></use><g><use xlink:href="#cZ5JF9JG" opacity="1" fill-opacity="0" stroke="#000000" stroke-width="1" stroke-opacity="0"></use></g></g><g><use xlink:href="#g8mC5GfYRl" opacity="1" fill="#000000" fill-opacity="0"></use><g><use xlink:href="#g8mC5GfYRl" opacity="1" fill-opacity="0" stroke="#000000" stroke-width="1" stroke-opacity="0"></use></g></g><g><use xlink:href="#a6Nwe1a16" opacity="1" fill="#000000" fill-opacity="0"></use><g><use xlink:href="#a6Nwe1a16" opacity="1" fill-opacity="0" stroke="#000000" stroke-width="1" stroke-opacity="0"></use></g></g><g><use xlink:href="#d7KBfOlYA" opacity="1" fill="#000000" fill-opacity="0"></use><g><use xlink:href="#d7KBfOlYA" opacity="1" fill-opacity="0" stroke="#000000" stroke-width="1" stroke-opacity="0"></use></g></g><g><use xlink:href="#f4Nq62LOLX" opacity="1" fill="#000000" fill-opacity="0"></use><g><use xlink:href="#f4Nq62LOLX" opacity="1" fill-opacity="0" stroke="#000000" stroke-width="1" stroke-opacity="0"></use></g></g><g><use xlink:href="#cDVAMBDPY" opacity="1" fill="#000000" fill-opacity="0"></use><g><use xlink:href="#cDVAMBDPY" opacity="1" fill-opacity="0" stroke="#000000" stroke-width="1" stroke-opacity="0"></use></g></g><g><use xlink:href="#aaC6qfAO5" opacity="1" fill="#000000" fill-opacity="0"></use><g><use xlink:href="#aaC6qfAO5" opacity="1" fill-opacity="0" stroke="#000000" stroke-width="1" stroke-opacity="0"></use></g></g><g><use xlink:href="#kahGnnjtL" opacity="1" fill="#000000" fill-opacity="0"></use><g><use xlink:href="#kahGnnjtL" opacity="1" fill-opacity="0" stroke="#000000" stroke-width="1" stroke-opacity="0"></use></g></g><g><use xlink:href="#c1OWQdoJBo" opacity="1" fill="#000000" fill-opacity="0"></use><g><use xlink:href="#c1OWQdoJBo" opacity="1" fill-opacity="0" stroke="#000000" stroke-width="1" stroke-opacity="0"></use></g></g><g><use xlink:href="#a14HQuQfMZ" opacity="1" fill="#000000" fill-opacity="0"></use><g><use xlink:href="#a14HQuQfMZ" opacity="1" fill-opacity="0" stroke="#000000" stroke-width="1" stroke-opacity="0"></use></g></g><g><use xlink:href="#a3YABPkNYS" opacity="1" fill="#000000" fill-opacity="0"></use><g><use xlink:href="#a3YABPkNYS" opacity="1" fill-opacity="0" stroke="#000000" stroke-width="1" stroke-opacity="0"></use></g></g><g><use xlink:href="#b14JqVHgF2" opacity="1" fill="#000000" fill-opacity="0"></use><g><use xlink:href="#b14JqVHgF2" opacity="1" fill-opacity="0" stroke="#000000" stroke-width="1" stroke-opacity="0"></use></g></g><g><use xlink:href="#g1LaU0nO3R" opacity="1" fill="#000000" fill-opacity="0"></use><g><use xlink:href="#g1LaU0nO3R" opacity="1" fill-opacity="0" stroke="#000000" stroke-width="1" stroke-opacity="0"></use></g></g><g><use xlink:href="#c3dPAmLNpW" opacity="1" fill="#000000" fill-opacity="0"></use><g><use xlink:href="#c3dPAmLNpW" opacity="1" fill-opacity="0" stroke="#000000" stroke-width="1" stroke-opacity="0"></use></g></g><g><use xlink:href="#abBn1IUqH" opacity="1" fill="#000000" fill-opacity="0"></use><g><use xlink:href="#abBn1IUqH" opacity="1" fill-opacity="0" stroke="#000000" stroke-width="1" stroke-opacity="0"></use></g></g><g><use xlink:href="#b1zbRv272" opacity="1" fill="#000000" fill-opacity="0"></use><g><use xlink:href="#b1zbRv272" opacity="1" fill-opacity="0" stroke="#000000" stroke-width="1" stroke-opacity="0"></use></g></g><g><use xlink:href="#a3KKSan0Ft" opacity="1" fill="#000000" fill-opacity="0"></use><g><use xlink:href="#a3KKSan0Ft" opacity="1" fill-opacity="0" stroke="#000000" stroke-width="1" stroke-opacity="0"></use></g></g><g><use xlink:href="#kQp1sqEdh" opacity="1" fill="#000000" fill-opacity="0"></use><g><use xlink:href="#kQp1sqEdh" opacity="1" fill-opacity="0" stroke="#000000" stroke-width="1" stroke-opacity="0"></use></g></g><g><use xlink:href="#b474cJkn0y" opacity="1" fill="#000000" fill-opacity="0"></use><g><use xlink:href="#b474cJkn0y" opacity="1" fill-opacity="0" stroke="#000000" stroke-width="1" stroke-opacity="0"></use></g></g><g><use xlink:href="#a1y9GiTpef" opacity="1" fill="#000000" fill-opacity="0"></use><g><use xlink:href="#a1y9GiTpef" opacity="1" fill-opacity="0" stroke="#000000" stroke-width="1" stroke-opacity="0"></use></g></g><g><use xlink:href="#fFrTbfOVL" opacity="1" fill="#000000" fill-opacity="0"></use><g><use xlink:href="#fFrTbfOVL" opacity="1" fill-opacity="0" stroke="#000000" stroke-width="1" stroke-opacity="0"></use></g></g><g><use xlink:href="#c1XgFVXyki" opacity="1" fill="#000000" fill-opacity="0"></use><g><use xlink:href="#c1XgFVXyki" opacity="1" fill-opacity="0" stroke="#000000" stroke-width="1" stroke-opacity="0"></use></g></g><g><use xlink:href="#a9MX9bL8W" opacity="1" fill="#000000" fill-opacity="0"></use><g><use xlink:href="#a9MX9bL8W" opacity="1" fill-opacity="0" stroke="#000000" stroke-width="1" stroke-opacity="0"></use></g></g><g><use xlink:href="#b2feMXxV95" opacity="1" fill="#000000" fill-opacity="0"></use><g><use xlink:href="#b2feMXxV95" opacity="1" fill-opacity="0" stroke="#000000" stroke-width="1" stroke-opacity="0"></use></g></g><g><use xlink:href="#a3t4JK3Naf" opacity="1" fill="#000000" fill-opacity="0"></use><g><use xlink:href="#a3t4JK3Naf" opacity="1" fill-opacity="0" stroke="#000000" stroke-width="1" stroke-opacity="0"></use></g></g><g><use xlink:href="#bd2dAbbe" opacity="1" fill="#000000" fill-opacity="0"></use><g><use xlink:href="#bd2dAbbe" opacity="1" fill-opacity="0" stroke="#000000" stroke-width="1" stroke-opacity="0"></use></g></g><g><use xlink:href="#d2dQfQj7pz" opacity="1" fill="#000000" fill-opacity="0"></use><g><use xlink:href="#d2dQfQj7pz" opacity="1" fill-opacity="0" stroke="#000000" stroke-width="1" stroke-opacity="0"></use></g></g><g><use xlink:href="#a5VAFUJx6Q" opacity="1" fill="#000000" fill-opacity="0"></use><g><use xlink:href="#a5VAFUJx6Q" opacity="1" fill-opacity="0" stroke="#000000" stroke-width="1" stroke-opacity="0"></use></g></g><g><use xlink:href="#i2fPnmobS6" opacity="1" fill="#000000" fill-opacity="0"></use><g><use xlink:href="#i2fPnmobS6" opacity="1" fill-opacity="0" stroke="#000000" stroke-width="1" stroke-opacity="0"></use></g></g><g><use xlink:href="#cl8VYr98R" opacity="1" fill="#000000" fill-opacity="0"></use><g><use xlink:href="#cl8VYr98R" opacity="1" fill-opacity="0" stroke="#000000" stroke-width="1" stroke-opacity="0"></use></g></g><g><use xlink:href="#b1EUnBlye8" opacity="1" fill="#000000" fill-opacity="0"></use><g><use xlink:href="#b1EUnBlye8" opacity="1" fill-opacity="0" stroke="#000000" stroke-width="1" stroke-opacity="0"></use></g></g><g><use xlink:href="#d6eWMP4Lrt" opacity="1" fill="#000000" fill-opacity="0"></use><g><use xlink:href="#d6eWMP4Lrt" opacity="1" fill-opacity="0" stroke="#000000" stroke-width="1" stroke-opacity="0"></use></g></g><g><use xlink:href="#a5khKz53do" opacity="1" fill="#000000" fill-opacity="0"></use><g><use xlink:href="#a5khKz53do" opacity="1" fill-opacity="0" stroke="#000000" stroke-width="1" stroke-opacity="0"></use></g></g><g><use xlink:href="#dhtPfL5On" opacity="1" fill="#000000" fill-opacity="0"></use><g><use xlink:href="#dhtPfL5On" opacity="1" fill-opacity="0" stroke="#000000" stroke-width="1" stroke-opacity="0"></use></g></g><g><use xlink:href="#a3Nc8ERf5J" opacity="1" fill="#000000" fill-opacity="0"></use><g><use xlink:href="#a3Nc8ERf5J" opacity="1" fill-opacity="0" stroke="#000000" stroke-width="1" stroke-opacity="0"></use></g></g><g><use xlink:href="#bf20UQGiL" opacity="1" fill="#000000" fill-opacity="0"></use><g><use xlink:href="#bf20UQGiL" opacity="1" fill-opacity="0" stroke="#000000" stroke-width="1" stroke-opacity="0"></use></g></g><g><use xlink:href="#ahKxwaBE" opacity="1" fill="#000000" fill-opacity="0"></use><g><use xlink:href="#ahKxwaBE" opacity="1" fill-opacity="0" stroke="#000000" stroke-width="1" stroke-opacity="0"></use></g></g><g><use xlink:href="#c3EwXD40BF" opacity="1" fill="#000000" fill-opacity="0"></use><g><use xlink:href="#c3EwXD40BF" opacity="1" fill-opacity="0" stroke="#000000" stroke-width="1" stroke-opacity="0"></use></g></g><g><use xlink:href="#blIjSyxRc" opacity="1" fill="#000000" fill-opacity="0"></use><g><use xlink:href="#blIjSyxRc" opacity="1" fill-opacity="0" stroke="#000000" stroke-width="1" stroke-opacity="0"></use></g></g><g><g><filter id="shadow170803" x="-42" y="108" width="524" height="564" filterUnits="userSpaceOnUse" primitiveUnits="userSpaceOnUse"><feFlood></feFlood><feComposite in2="SourceAlpha" operator="in"></feComposite><feGaussianBlur stdDeviation="1.73"></feGaussianBlur><feOffset dx="0" dy="0" result="afterOffset"></feOffset><feFlood flood-color="#000000" flood-opacity="0.5"></feFlood><feComposite in2="afterOffset" operator="in"></feComposite><feMorphology operator="dilate" radius="1"></feMorphology><feComposite in2="SourceAlpha" operator="out"></feComposite></filter><path d="M282.5 561.82C407.5 561.82 470 507.82 470 414.55C470 306.55 345 267.27 220 120C95 267.27 -30 306.55 -30 414.55C-30 507.82 32.5 561.82 157.5 561.82C157.5 574.91 157.5 607.64 157.5 660C182.5 660 270 660 282.5 660C282.5 601.09 282.5 568.36 282.5 561.82Z" id="a9CCshUer" fill="white" fill-opacity="1" filter="url(#shadow170803)"></path></g><use xlink:href="#baV9KsG336" opacity="1" fill="#000000" fill-opacity="1"></use><g><use xlink:href="#baV9KsG336" opacity="1" fill-opacity="0" stroke="#000000" stroke-width="1" stroke-opacity="0"></use></g></g><g><g><filter id="shadow14608728" x="-42" y="108" width="524" height="564" filterUnits="userSpaceOnUse" primitiveUnits="userSpaceOnUse"><feFlood></feFlood><feComposite in2="SourceAlpha" operator="in"></feComposite><feGaussianBlur stdDeviation="1.73"></feGaussianBlur><feOffset dx="0" dy="0" result="afterOffset"></feOffset><feFlood flood-color="#000000" flood-opacity="0.5"></feFlood><feComposite in2="afterOffset" operator="in"></feComposite><feMorphology operator="dilate" radius="1"></feMorphology><feComposite in2="SourceAlpha" operator="out"></feComposite></filter><path d="M282.5 561.82C407.5 561.82 470 507.82 470 414.55C470 306.55 345 267.27 220 120C95 267.27 -30 306.55 -30 414.55C-30 507.82 32.5 561.82 157.5 561.82C157.5 574.91 157.5 607.64 157.5 660C182.5 660 270 660 282.5 660C282.5 601.09 282.5 568.36 282.5 561.82Z" id="b4PSEKczDt" fill="white" fill-opacity="1" filter="url(#shadow14608728)"></path></g><use xlink:href="#a57qRkwRN2" opacity="1" fill="#000000" fill-opacity="0"></use><g><use xlink:href="#a57qRkwRN2" opacity="1" fill-opacity="0" stroke="#000000" stroke-width="1" stroke-opacity="0"></use></g></g><g><g><filter id="shadow3377078" x="-42" y="108" width="524" height="564" filterUnits="userSpaceOnUse" primitiveUnits="userSpaceOnUse"><feFlood></feFlood><feComposite in2="SourceAlpha" operator="in"></feComposite><feGaussianBlur stdDeviation="1.73"></feGaussianBlur><feOffset dx="0" dy="0" result="afterOffset"></feOffset><feFlood flood-color="#000000" flood-opacity="0.5"></feFlood><feComposite in2="afterOffset" operator="in"></feComposite><feMorphology operator="dilate" radius="1"></feMorphology><feComposite in2="SourceAlpha" operator="out"></feComposite></filter><path d="M282.5 561.82C407.5 561.82 470 507.82 470 414.55C470 306.55 345 267.27 220 120C95 267.27 -30 306.55 -30 414.55C-30 507.82 32.5 561.82 157.5 561.82C157.5 574.91 157.5 607.64 157.5 660C182.5 660 270 660 282.5 660C282.5 601.09 282.5 568.36 282.5 561.82Z" id="bRoY0eRdS" fill="white" fill-opacity="1" filter="url(#shadow3377078)"></path></g><use xlink:href="#baBZxfG0a" opacity="1" fill="#000000" fill-opacity="0"></use><g><use xlink:href="#baBZxfG0a" opacity="1" fill-opacity="0" stroke="#000000" stroke-width="1" stroke-opacity="0"></use></g></g><g><g><filter id="shadow10499869" x="-42" y="108" width="524" height="564" filterUnits="userSpaceOnUse" primitiveUnits="userSpaceOnUse"><feFlood></feFlood><feComposite in2="SourceAlpha" operator="in"></feComposite><feGaussianBlur stdDeviation="1.73"></feGaussianBlur><feOffset dx="0" dy="0" result="afterOffset"></feOffset><feFlood flood-color="#000000" flood-opacity="0.5"></feFlood><feComposite in2="afterOffset" operator="in"></feComposite><feMorphology operator="dilate" radius="1"></feMorphology><feComposite in2="SourceAlpha" operator="out"></feComposite></filter><path d="M282.5 561.82C407.5 561.82 470 507.82 470 414.55C470 306.55 345 267.27 220 120C95 267.27 -30 306.55 -30 414.55C-30 507.82 32.5 561.82 157.5 561.82C157.5 574.91 157.5 607.64 157.5 660C182.5 660 270 660 282.5 660C282.5 601.09 282.5 568.36 282.5 561.82Z" id="ccTBcrSIW" fill="white" fill-opacity="1" filter="url(#shadow10499869)"></path></g><use xlink:href="#h1VLMoXm4V" opacity="1" fill="#000000" fill-opacity="0"></use><g><use xlink:href="#h1VLMoXm4V" opacity="1" fill-opacity="0" stroke="#000000" stroke-width="1" stroke-opacity="1"></use></g></g><g><g><filter id="shadow12584972" x="8.63" y="8" width="84" height="88.8" filterUnits="userSpaceOnUse" primitiveUnits="userSpaceOnUse"><feFlood></feFlood><feComposite in2="SourceAlpha" operator="in"></feComposite><feGaussianBlur stdDeviation="1.73"></feGaussianBlur><feOffset dx="0" dy="0" result="afterOffset"></feOffset><feFlood flood-color="#000000" flood-opacity="0.5"></feFlood><feComposite in2="afterOffset" operator="in"></feComposite><feMorphology operator="dilate" radius="1"></feMorphology><feComposite in2="SourceAlpha" operator="out"></feComposite></filter><path d="M58.13 73.02C73.13 73.02 80.63 66.54 80.63 55.35C80.63 42.39 65.63 37.67 50.63 20C35.63 37.67 20.63 42.39 20.63 55.35C20.63 66.54 28.13 73.02 43.13 73.02C43.13 74.59 43.13 78.52 43.13 84.8C46.13 84.8 56.63 84.8 58.13 84.8C58.13 77.73 58.13 73.8 58.13 73.02Z" id="cpxkATco2" fill="white" fill-opacity="1" filter="url(#shadow12584972)"></path></g><use xlink:href="#a3122oEIj" opacity="1" fill="#000000" fill-opacity="1"></use><g><use xlink:href="#a3122oEIj" opacity="1" fill-opacity="0" stroke="#000000" stroke-width="1" stroke-opacity="0"></use></g></g><g><g><filter id="shadow15335787" x="8.63" y="8" width="84" height="88.8" filterUnits="userSpaceOnUse" primitiveUnits="userSpaceOnUse"><feFlood></feFlood><feComposite in2="SourceAlpha" operator="in"></feComposite><feGaussianBlur stdDeviation="1.73"></feGaussianBlur><feOffset dx="0" dy="0" result="afterOffset"></feOffset><feFlood flood-color="#000000" flood-opacity="0.5"></feFlood><feComposite in2="afterOffset" operator="in"></feComposite><feMorphology operator="dilate" radius="1"></feMorphology><feComposite in2="SourceAlpha" operator="out"></feComposite></filter><path d="M58.13 73.02C73.13 73.02 80.63 66.54 80.63 55.35C80.63 42.39 65.63 37.67 50.63 20C35.63 37.67 20.63 42.39 20.63 55.35C20.63 66.54 28.13 73.02 43.13 73.02C43.13 74.59 43.13 78.52 43.13 84.8C46.13 84.8 56.63 84.8 58.13 84.8C58.13 77.73 58.13 73.8 58.13 73.02Z" id="a3zGcAXte" fill="white" fill-opacity="1" filter="url(#shadow15335787)"></path></g><use xlink:href="#b3UzQiLorM" opacity="1" fill="#000000" fill-opacity="0"></use><g><use xlink:href="#b3UzQiLorM" opacity="1" fill-opacity="0" stroke="#000000" stroke-width="1" stroke-opacity="0"></use></g></g><g><g><filter id="shadow15882728" x="8.63" y="8" width="84" height="88.8" filterUnits="userSpaceOnUse" primitiveUnits="userSpaceOnUse"><feFlood></feFlood><feComposite in2="SourceAlpha" operator="in"></feComposite><feGaussianBlur stdDeviation="1.73"></feGaussianBlur><feOffset dx="0" dy="0" result="afterOffset"></feOffset><feFlood flood-color="#000000" flood-opacity="0.5"></feFlood><feComposite in2="afterOffset" operator="in"></feComposite><feMorphology operator="dilate" radius="1"></feMorphology><feComposite in2="SourceAlpha" operator="out"></feComposite></filter><path d="M58.13 73.02C73.13 73.02 80.63 66.54 80.63 55.35C80.63 42.39 65.63 37.67 50.63 20C35.63 37.67 20.63 42.39 20.63 55.35C20.63 66.54 28.13 73.02 43.13 73.02C43.13 74.59 43.13 78.52 43.13 84.8C46.13 84.8 56.63 84.8 58.13 84.8C58.13 77.73 58.13 73.8 58.13 73.02Z" id="a6DPkCzAe" fill="white" fill-opacity="1" filter="url(#shadow15882728)"></path></g><use xlink:href="#a6J6uqqlr" opacity="1" fill="#000000" fill-opacity="0"></use><g><use xlink:href="#a6J6uqqlr" opacity="1" fill-opacity="0" stroke="#000000" stroke-width="1" stroke-opacity="0"></use></g></g><g><g><filter id="shadow2179665" x="8.63" y="8" width="84" height="88.8" filterUnits="userSpaceOnUse" primitiveUnits="userSpaceOnUse"><feFlood></feFlood><feComposite in2="SourceAlpha" operator="in"></feComposite><feGaussianBlur stdDeviation="1.73"></feGaussianBlur><feOffset dx="0" dy="0" result="afterOffset"></feOffset><feFlood flood-color="#000000" flood-opacity="0.5"></feFlood><feComposite in2="afterOffset" operator="in"></feComposite><feMorphology operator="dilate" radius="1"></feMorphology><feComposite in2="SourceAlpha" operator="out"></feComposite></filter><path d="M58.13 73.02C73.13 73.02 80.63 66.54 80.63 55.35C80.63 42.39 65.63 37.67 50.63 20C35.63 37.67 20.63 42.39 20.63 55.35C20.63 66.54 28.13 73.02 43.13 73.02C43.13 74.59 43.13 78.52 43.13 84.8C46.13 84.8 56.63 84.8 58.13 84.8C58.13 77.73 58.13 73.8 58.13 73.02Z" id="a3Ed3u0ADS" fill="white" fill-opacity="1" filter="url(#shadow2179665)"></path></g><use xlink:href="#d112T1OLeS" opacity="1" fill="#000000" fill-opacity="0"></use><g><use xlink:href="#d112T1OLeS" opacity="1" fill-opacity="0" stroke="#000000" stroke-width="1" stroke-opacity="1"></use></g></g></g></g></svg>