<?xml version="1.0" encoding="UTF-8" standalone="no"?>
<!DOCTYPE svg PUBLIC "-//W3C//DTD SVG 1.1//EN" "http://www.w3.org/Graphics/SVG/1.1/DTD/svg11.dtd">
<svg version="1.1" xmlns="http://www.w3.org/2000/svg" xmlns:xlink="http://www.w3.org/1999/xlink" preserveAspectRatio="xMidYMid meet" viewBox="0 0 440 640" width="440" height="640"><defs><path d="M-162.63 -29.25C-162.63 -29.25 -162.63 -29.25 -162.63 -29.25C-182.95 -29.25 -194.24 -29.25 -196.5 -29.25C-196.5 -29.25 -196.5 -29.25 -196.5 -29.25C-196.5 -45.6 -196.5 -54.68 -196.5 -56.5C-196.5 -56.5 -196.5 -56.5 -196.5 -56.5C-176.18 -56.5 -164.89 -56.5 -162.63 -56.5C-162.63 -56.5 -162.63 -56.5 -162.63 -56.5C-162.63 -40.15 -162.63 -31.07 -162.63 -29.25Z" id="a4aQzbcEB"></path><path d="M-162.63 -29.25C-162.63 -29.25 -162.63 -29.25 -162.63 -29.25C-182.95 -29.25 -194.24 -29.25 -196.5 -29.25C-196.5 -29.25 -196.5 -29.25 -196.5 -29.25C-196.5 -45.6 -196.5 -54.68 -196.5 -56.5C-196.5 -56.5 -196.5 -56.5 -196.5 -56.5C-176.18 -56.5 -164.89 -56.5 -162.63 -56.5C-162.63 -56.5 -162.63 -56.5 -162.63 -56.5C-162.63 -40.15 -162.63 -31.07 -162.63 -29.25Z" id="a1G9aorPX7"></path><path d="M-162.63 -29.25C-162.63 -29.25 -162.63 -29.25 -162.63 -29.25C-182.95 -29.25 -194.24 -29.25 -196.5 -29.25C-196.5 -29.25 -196.5 -29.25 -196.5 -29.25C-196.5 -45.6 -196.5 -54.68 -196.5 -56.5C-196.5 -56.5 -196.5 -56.5 -196.5 -56.5C-176.18 -56.5 -164.89 -56.5 -162.63 -56.5C-162.63 -56.5 -162.63 -56.5 -162.63 -56.5C-162.63 -40.15 -162.63 -31.07 -162.63 -29.25Z" id="e1bMq61IYG"></path><path d="M-162.63 -29.25C-162.63 -29.25 -162.63 -29.25 -162.63 -29.25C-182.95 -29.25 -194.24 -29.25 -196.5 -29.25C-196.5 -29.25 -196.5 -29.25 -196.5 -29.25C-196.5 -45.6 -196.5 -54.68 -196.5 -56.5C-196.5 -56.5 -196.5 -56.5 -196.5 -56.5C-176.18 -56.5 -164.89 -56.5 -162.63 -56.5C-162.63 -56.5 -162.63 -56.5 -162.63 -56.5C-162.63 -40.15 -162.63 -31.07 -162.63 -29.25Z" id="a2fWdpVLdn"></path><path d="M-175.5 -28.22C-175.5 -28.22 -175.5 -28.22 -175.5 -28.22C-188.1 -28.22 -195.1 -28.22 -196.5 -28.22C-196.5 -28.22 -196.5 -28.22 -196.5 -28.22C-196.5 -45.19 -196.5 -54.61 -196.5 -56.5C-196.5 -56.5 -196.5 -56.5 -196.5 -56.5C-183.9 -56.5 -176.9 -56.5 -175.5 -56.5C-175.5 -56.5 -175.5 -56.5 -175.5 -56.5C-175.5 -39.53 -175.5 -30.1 -175.5 -28.22Z" id="a6LNlg1MEc"></path><path d="M-175.5 -28.22C-175.5 -28.22 -175.5 -28.22 -175.5 -28.22C-188.1 -28.22 -195.1 -28.22 -196.5 -28.22C-196.5 -28.22 -196.5 -28.22 -196.5 -28.22C-196.5 -45.19 -196.5 -54.61 -196.5 -56.5C-196.5 -56.5 -196.5 -56.5 -196.5 -56.5C-183.9 -56.5 -176.9 -56.5 -175.5 -56.5C-175.5 -56.5 -175.5 -56.5 -175.5 -56.5C-175.5 -39.53 -175.5 -30.1 -175.5 -28.22Z" id="bFAa5EQ0T"></path><path d="M-175.5 -28.22C-175.5 -28.22 -175.5 -28.22 -175.5 -28.22C-188.1 -28.22 -195.1 -28.22 -196.5 -28.22C-196.5 -28.22 -196.5 -28.22 -196.5 -28.22C-196.5 -45.19 -196.5 -54.61 -196.5 -56.5C-196.5 -56.5 -196.5 -56.5 -196.5 -56.5C-183.9 -56.5 -176.9 -56.5 -175.5 -56.5C-175.5 -56.5 -175.5 -56.5 -175.5 -56.5C-175.5 -39.53 -175.5 -30.1 -175.5 -28.22Z" id="d4wm1ED9a0"></path><path d="M-175.5 -28.22C-175.5 -28.22 -175.5 -28.22 -175.5 -28.22C-188.1 -28.22 -195.1 -28.22 -196.5 -28.22C-196.5 -28.22 -196.5 -28.22 -196.5 -28.22C-196.5 -45.19 -196.5 -54.61 -196.5 -56.5C-196.5 -56.5 -196.5 -56.5 -196.5 -56.5C-183.9 -56.5 -176.9 -56.5 -175.5 -56.5C-175.5 -56.5 -175.5 -56.5 -175.5 -56.5C-175.5 -39.53 -175.5 -30.1 -175.5 -28.22Z" id="cqlqhDQqo"></path><path d="M-162.63 -29.25C-182.95 -29.25 -194.24 -29.25 -196.5 -29.25C-196.5 -29.25 -196.5 -29.25 -196.5 -29.25C-196.5 -45.6 -196.5 -54.68 -196.5 -56.5C-196.5 -56.5 -196.5 -56.5 -196.5 -56.5C-176.18 -56.5 -164.89 -56.5 -162.63 -56.5C-162.63 -56.5 -162.63 -56.5 -162.63 -56.5C-162.63 -40.15 -162.63 -31.07 -162.63 -29.25C-162.63 -29.25 -162.63 -29.25 -162.63 -29.25Z" id="b3gq666W6"></path><path d="M-162.63 -29.25C-182.95 -29.25 -194.24 -29.25 -196.5 -29.25C-196.5 -29.25 -196.5 -29.25 -196.5 -29.25C-196.5 -45.6 -196.5 -54.68 -196.5 -56.5C-196.5 -56.5 -196.5 -56.5 -196.5 -56.5C-176.18 -56.5 -164.89 -56.5 -162.63 -56.5C-162.63 -56.5 -162.63 -56.5 -162.63 -56.5C-162.63 -40.15 -162.63 -31.07 -162.63 -29.25C-162.63 -29.25 -162.63 -29.25 -162.63 -29.25Z" id="agsnB9Rvc"></path><path d="M-162.63 -29.25C-182.95 -29.25 -194.24 -29.25 -196.5 -29.25C-196.5 -29.25 -196.5 -29.25 -196.5 -29.25C-196.5 -45.6 -196.5 -54.68 -196.5 -56.5C-196.5 -56.5 -196.5 -56.5 -196.5 -56.5C-176.18 -56.5 -164.89 -56.5 -162.63 -56.5C-162.63 -56.5 -162.63 -56.5 -162.63 -56.5C-162.63 -40.15 -162.63 -31.07 -162.63 -29.25C-162.63 -29.25 -162.63 -29.25 -162.63 -29.25Z" id="bgyz6Ij6f"></path><path d="M-162.63 -29.25C-182.95 -29.25 -194.24 -29.25 -196.5 -29.25C-196.5 -29.25 -196.5 -29.25 -196.5 -29.25C-196.5 -45.6 -196.5 -54.68 -196.5 -56.5C-196.5 -56.5 -196.5 -56.5 -196.5 -56.5C-176.18 -56.5 -164.89 -56.5 -162.63 -56.5C-162.63 -56.5 -162.63 -56.5 -162.63 -56.5C-162.63 -40.15 -162.63 -31.07 -162.63 -29.25C-162.63 -29.25 -162.63 -29.25 -162.63 -29.25Z" id="a2ovX7IYpE"></path><path d="M-162.63 -29.25C-182.95 -29.25 -194.24 -29.25 -196.5 -29.25C-196.5 -29.25 -196.5 -29.25 -196.5 -29.25C-196.5 -45.6 -196.5 -54.68 -196.5 -56.5C-196.5 -56.5 -196.5 -56.5 -196.5 -56.5C-176.18 -56.5 -164.89 -56.5 -162.63 -56.5C-162.63 -56.5 -162.63 -56.5 -162.63 -56.5C-162.63 -40.15 -162.63 -31.07 -162.63 -29.25C-162.63 -29.25 -162.63 -29.25 -162.63 -29.25Z" id="f1BlSkrvhw"></path><path d="M-162.63 -29.25C-182.95 -29.25 -194.24 -29.25 -196.5 -29.25C-196.5 -29.25 -196.5 -29.25 -196.5 -29.25C-196.5 -45.6 -196.5 -54.68 -196.5 -56.5C-196.5 -56.5 -196.5 -56.5 -196.5 -56.5C-176.18 -56.5 -164.89 -56.5 -162.63 -56.5C-162.63 -56.5 -162.63 -56.5 -162.63 -56.5C-162.63 -40.15 -162.63 -31.07 -162.63 -29.25C-162.63 -29.25 -162.63 -29.25 -162.63 -29.25Z" id="a24uEddGZL"></path><path d="M-162.63 -29.25C-182.95 -29.25 -194.24 -29.25 -196.5 -29.25C-196.5 -29.25 -196.5 -29.25 -196.5 -29.25C-196.5 -45.6 -196.5 -54.68 -196.5 -56.5C-196.5 -56.5 -196.5 -56.5 -196.5 -56.5C-176.18 -56.5 -164.89 -56.5 -162.63 -56.5C-162.63 -56.5 -162.63 -56.5 -162.63 -56.5C-162.63 -40.15 -162.63 -31.07 -162.63 -29.25C-162.63 -29.25 -162.63 -29.25 -162.63 -29.25Z" id="b7EHGaKMO"></path><path d="M-162.63 -29.25C-182.95 -29.25 -194.24 -29.25 -196.5 -29.25C-196.5 -29.25 -196.5 -29.25 -196.5 -29.25C-196.5 -45.6 -196.5 -54.68 -196.5 -56.5C-196.5 -56.5 -196.5 -56.5 -196.5 -56.5C-176.18 -56.5 -164.89 -56.5 -162.63 -56.5C-162.63 -56.5 -162.63 -56.5 -162.63 -56.5C-162.63 -40.15 -162.63 -31.07 -162.63 -29.25C-162.63 -29.25 -162.63 -29.25 -162.63 -29.25Z" id="a9PLhgt6D"></path><path d="M-171.1 -35.5C-171.1 -35.5 -171.1 -35.5 -171.1 -35.5C-186.34 -35.5 -194.81 -35.5 -196.5 -35.5C-196.5 -35.5 -196.5 -35.5 -196.5 -35.5C-196.5 -48.1 -196.5 -55.1 -196.5 -56.5C-196.5 -56.5 -196.5 -56.5 -196.5 -56.5C-181.26 -56.5 -172.8 -56.5 -171.1 -56.5C-171.1 -56.5 -171.1 -56.5 -171.1 -56.5C-171.1 -43.9 -171.1 -36.9 -171.1 -35.5Z" id="b2g83F0CU5"></path><path d="M-171.1 -35.5C-171.1 -35.5 -171.1 -35.5 -171.1 -35.5C-186.34 -35.5 -194.81 -35.5 -196.5 -35.5C-196.5 -35.5 -196.5 -35.5 -196.5 -35.5C-196.5 -48.1 -196.5 -55.1 -196.5 -56.5C-196.5 -56.5 -196.5 -56.5 -196.5 -56.5C-181.26 -56.5 -172.8 -56.5 -171.1 -56.5C-171.1 -56.5 -171.1 -56.5 -171.1 -56.5C-171.1 -43.9 -171.1 -36.9 -171.1 -35.5Z" id="byHfnnndp"></path><path d="M-171.1 -35.5C-171.1 -35.5 -171.1 -35.5 -171.1 -35.5C-186.34 -35.5 -194.81 -35.5 -196.5 -35.5C-196.5 -35.5 -196.5 -35.5 -196.5 -35.5C-196.5 -48.1 -196.5 -55.1 -196.5 -56.5C-196.5 -56.5 -196.5 -56.5 -196.5 -56.5C-181.26 -56.5 -172.8 -56.5 -171.1 -56.5C-171.1 -56.5 -171.1 -56.5 -171.1 -56.5C-171.1 -43.9 -171.1 -36.9 -171.1 -35.5Z" id="b2pCuWk5V6"></path><path d="M-171.1 -35.5C-171.1 -35.5 -171.1 -35.5 -171.1 -35.5C-186.34 -35.5 -194.81 -35.5 -196.5 -35.5C-196.5 -35.5 -196.5 -35.5 -196.5 -35.5C-196.5 -48.1 -196.5 -55.1 -196.5 -56.5C-196.5 -56.5 -196.5 -56.5 -196.5 -56.5C-181.26 -56.5 -172.8 -56.5 -171.1 -56.5C-171.1 -56.5 -171.1 -56.5 -171.1 -56.5C-171.1 -43.9 -171.1 -36.9 -171.1 -35.5Z" id="e1UPYWcxkb"></path><path d="M412.5 111.15C412.5 210.92 412.5 429.08 412.5 528.85C412.5 573.67 376.43 610 331.94 610C271.51 610 170.79 610 110.36 610C65.86 610 29.79 573.67 29.79 528.85C29.79 429.08 29.79 210.92 29.79 111.15C29.79 66.33 65.86 30 110.36 30C170.79 30 271.51 30 331.94 30C376.43 30 412.5 66.33 412.5 111.15Z" id="ddrkgyhD8"></path><path d="M0 0L440 0L440 1.88L0 1.88L0 0Z" id="a2rTbeqAG6"></path><path d="M440 0L440 640L438.17 640L438.17 0L440 0Z" id="b88GAk8Zp"></path><path d="M1.83 0L1.83 640L0 640L0 0L1.83 0Z" id="b1RdvdHFb"></path><path d="M0 638.13L440 638.13L440 640L0 640L0 638.13Z" id="k6Q2fWN8CX"></path><path d="M32.87 26.25C32.87 26.25 32.87 26.25 32.87 26.25C12.55 26.25 1.26 26.25 -1 26.25C-1 26.25 -1 26.25 -1 26.25C-1 9.9 -1 0.82 -1 -1C-1 -1 -1 -1 -1 -1C19.32 -1 30.61 -1 32.87 -1C32.87 -1 32.87 -1 32.87 -1C32.87 15.35 32.87 24.43 32.87 26.25Z" id="b2ZoVA3CZs"></path><path d="M32.87 26.25C32.87 26.25 32.87 26.25 32.87 26.25C12.55 26.25 1.26 26.25 -1 26.25C-1 26.25 -1 26.25 -1 26.25C-1 9.9 -1 0.82 -1 -1C-1 -1 -1 -1 -1 -1C19.32 -1 30.61 -1 32.87 -1C32.87 -1 32.87 -1 32.87 -1C32.87 15.35 32.87 24.43 32.87 26.25Z" id="a2jFyIF6hF"></path><path d="M-162.63 -29.25C-162.63 -29.25 -162.63 -29.25 -162.63 -29.25C-182.95 -29.25 -194.24 -29.25 -196.5 -29.25C-196.5 -29.25 -196.5 -29.25 -196.5 -29.25C-196.5 -45.6 -196.5 -54.68 -196.5 -56.5C-196.5 -56.5 -196.5 -56.5 -196.5 -56.5C-176.18 -56.5 -164.89 -56.5 -162.63 -56.5C-162.63 -56.5 -162.63 -56.5 -162.63 -56.5C-162.63 -40.15 -162.63 -31.07 -162.63 -29.25Z" id="a1BlUpMbi4"></path><path d="M-162.63 -29.25C-162.63 -29.25 -162.63 -29.25 -162.63 -29.25C-182.95 -29.25 -194.24 -29.25 -196.5 -29.25C-196.5 -29.25 -196.5 -29.25 -196.5 -29.25C-196.5 -45.6 -196.5 -54.68 -196.5 -56.5C-196.5 -56.5 -196.5 -56.5 -196.5 -56.5C-176.18 -56.5 -164.89 -56.5 -162.63 -56.5C-162.63 -56.5 -162.63 -56.5 -162.63 -56.5C-162.63 -40.15 -162.63 -31.07 -162.63 -29.25Z" id="fvYjZf7MM"></path><path d="M-162.63 -29.25C-162.63 -29.25 -162.63 -29.25 -162.63 -29.25C-182.95 -29.25 -194.24 -29.25 -196.5 -29.25C-196.5 -29.25 -196.5 -29.25 -196.5 -29.25C-196.5 -45.6 -196.5 -54.68 -196.5 -56.5C-196.5 -56.5 -196.5 -56.5 -196.5 -56.5C-176.18 -56.5 -164.89 -56.5 -162.63 -56.5C-162.63 -56.5 -162.63 -56.5 -162.63 -56.5C-162.63 -40.15 -162.63 -31.07 -162.63 -29.25Z" id="a2Sa553Y"></path><path d="M-162.63 -29.25C-162.63 -29.25 -162.63 -29.25 -162.63 -29.25C-182.95 -29.25 -194.24 -29.25 -196.5 -29.25C-196.5 -29.25 -196.5 -29.25 -196.5 -29.25C-196.5 -45.6 -196.5 -54.68 -196.5 -56.5C-196.5 -56.5 -196.5 -56.5 -196.5 -56.5C-176.18 -56.5 -164.89 -56.5 -162.63 -56.5C-162.63 -56.5 -162.63 -56.5 -162.63 -56.5C-162.63 -40.15 -162.63 -31.07 -162.63 -29.25Z" id="ai7iks86w"></path><path d="M-175.5 -28.22C-175.5 -28.22 -175.5 -28.22 -175.5 -28.22C-188.1 -28.22 -195.1 -28.22 -196.5 -28.22C-196.5 -28.22 -196.5 -28.22 -196.5 -28.22C-196.5 -45.19 -196.5 -54.61 -196.5 -56.5C-196.5 -56.5 -196.5 -56.5 -196.5 -56.5C-183.9 -56.5 -176.9 -56.5 -175.5 -56.5C-175.5 -56.5 -175.5 -56.5 -175.5 -56.5C-175.5 -39.53 -175.5 -30.1 -175.5 -28.22Z" id="a1mI0m3PL8"></path><path d="M-175.5 -28.22C-175.5 -28.22 -175.5 -28.22 -175.5 -28.22C-188.1 -28.22 -195.1 -28.22 -196.5 -28.22C-196.5 -28.22 -196.5 -28.22 -196.5 -28.22C-196.5 -45.19 -196.5 -54.61 -196.5 -56.5C-196.5 -56.5 -196.5 -56.5 -196.5 -56.5C-183.9 -56.5 -176.9 -56.5 -175.5 -56.5C-175.5 -56.5 -175.5 -56.5 -175.5 -56.5C-175.5 -39.53 -175.5 -30.1 -175.5 -28.22Z" id="f896SM6alh"></path><path d="M-175.5 -28.22C-175.5 -28.22 -175.5 -28.22 -175.5 -28.22C-188.1 -28.22 -195.1 -28.22 -196.5 -28.22C-196.5 -28.22 -196.5 -28.22 -196.5 -28.22C-196.5 -45.19 -196.5 -54.61 -196.5 -56.5C-196.5 -56.5 -196.5 -56.5 -196.5 -56.5C-183.9 -56.5 -176.9 -56.5 -175.5 -56.5C-175.5 -56.5 -175.5 -56.5 -175.5 -56.5C-175.5 -39.53 -175.5 -30.1 -175.5 -28.22Z" id="b2V1EbQkTK"></path><path d="M-175.5 -28.22C-175.5 -28.22 -175.5 -28.22 -175.5 -28.22C-188.1 -28.22 -195.1 -28.22 -196.5 -28.22C-196.5 -28.22 -196.5 -28.22 -196.5 -28.22C-196.5 -45.19 -196.5 -54.61 -196.5 -56.5C-196.5 -56.5 -196.5 -56.5 -196.5 -56.5C-183.9 -56.5 -176.9 -56.5 -175.5 -56.5C-175.5 -56.5 -175.5 -56.5 -175.5 -56.5C-175.5 -39.53 -175.5 -30.1 -175.5 -28.22Z" id="a1jsrTnWYQ"></path><path d="M-162.63 -29.25C-182.95 -29.25 -194.24 -29.25 -196.5 -29.25C-196.5 -29.25 -196.5 -29.25 -196.5 -29.25C-196.5 -45.6 -196.5 -54.68 -196.5 -56.5C-196.5 -56.5 -196.5 -56.5 -196.5 -56.5C-176.18 -56.5 -164.89 -56.5 -162.63 -56.5C-162.63 -56.5 -162.63 -56.5 -162.63 -56.5C-162.63 -40.15 -162.63 -31.07 -162.63 -29.25C-162.63 -29.25 -162.63 -29.25 -162.63 -29.25Z" id="b2bUQM9cZ2"></path><path d="M-162.63 -29.25C-182.95 -29.25 -194.24 -29.25 -196.5 -29.25C-196.5 -29.25 -196.5 -29.25 -196.5 -29.25C-196.5 -45.6 -196.5 -54.68 -196.5 -56.5C-196.5 -56.5 -196.5 -56.5 -196.5 -56.5C-176.18 -56.5 -164.89 -56.5 -162.63 -56.5C-162.63 -56.5 -162.63 -56.5 -162.63 -56.5C-162.63 -40.15 -162.63 -31.07 -162.63 -29.25C-162.63 -29.25 -162.63 -29.25 -162.63 -29.25Z" id="l2KfXBuqu"></path><path d="M-162.63 -29.25C-182.95 -29.25 -194.24 -29.25 -196.5 -29.25C-196.5 -29.25 -196.5 -29.25 -196.5 -29.25C-196.5 -45.6 -196.5 -54.68 -196.5 -56.5C-196.5 -56.5 -196.5 -56.5 -196.5 -56.5C-176.18 -56.5 -164.89 -56.5 -162.63 -56.5C-162.63 -56.5 -162.63 -56.5 -162.63 -56.5C-162.63 -40.15 -162.63 -31.07 -162.63 -29.25C-162.63 -29.25 -162.63 -29.25 -162.63 -29.25Z" id="h1Xi4YZLVd"></path><path d="M-162.63 -29.25C-182.95 -29.25 -194.24 -29.25 -196.5 -29.25C-196.5 -29.25 -196.5 -29.25 -196.5 -29.25C-196.5 -45.6 -196.5 -54.68 -196.5 -56.5C-196.5 -56.5 -196.5 -56.5 -196.5 -56.5C-176.18 -56.5 -164.89 -56.5 -162.63 -56.5C-162.63 -56.5 -162.63 -56.5 -162.63 -56.5C-162.63 -40.15 -162.63 -31.07 -162.63 -29.25C-162.63 -29.25 -162.63 -29.25 -162.63 -29.25Z" id="e14nkwqWJz"></path><path d="M-162.63 -29.25C-182.95 -29.25 -194.24 -29.25 -196.5 -29.25C-196.5 -29.25 -196.5 -29.25 -196.5 -29.25C-196.5 -45.6 -196.5 -54.68 -196.5 -56.5C-196.5 -56.5 -196.5 -56.5 -196.5 -56.5C-176.18 -56.5 -164.89 -56.5 -162.63 -56.5C-162.63 -56.5 -162.63 -56.5 -162.63 -56.5C-162.63 -40.15 -162.63 -31.07 -162.63 -29.25C-162.63 -29.25 -162.63 -29.25 -162.63 -29.25Z" id="a1TFbiTnVW"></path><path d="M-162.63 -29.25C-182.95 -29.25 -194.24 -29.25 -196.5 -29.25C-196.5 -29.25 -196.5 -29.25 -196.5 -29.25C-196.5 -45.6 -196.5 -54.68 -196.5 -56.5C-196.5 -56.5 -196.5 -56.5 -196.5 -56.5C-176.18 -56.5 -164.89 -56.5 -162.63 -56.5C-162.63 -56.5 -162.63 -56.5 -162.63 -56.5C-162.63 -40.15 -162.63 -31.07 -162.63 -29.25C-162.63 -29.25 -162.63 -29.25 -162.63 -29.25Z" id="g4RjcimZ3z"></path><path d="M-162.63 -29.25C-182.95 -29.25 -194.24 -29.25 -196.5 -29.25C-196.5 -29.25 -196.5 -29.25 -196.5 -29.25C-196.5 -45.6 -196.5 -54.68 -196.5 -56.5C-196.5 -56.5 -196.5 -56.5 -196.5 -56.5C-176.18 -56.5 -164.89 -56.5 -162.63 -56.5C-162.63 -56.5 -162.63 -56.5 -162.63 -56.5C-162.63 -40.15 -162.63 -31.07 -162.63 -29.25C-162.63 -29.25 -162.63 -29.25 -162.63 -29.25Z" id="b19zAq2JuX"></path><path d="M-162.63 -29.25C-182.95 -29.25 -194.24 -29.25 -196.5 -29.25C-196.5 -29.25 -196.5 -29.25 -196.5 -29.25C-196.5 -45.6 -196.5 -54.68 -196.5 -56.5C-196.5 -56.5 -196.5 -56.5 -196.5 -56.5C-176.18 -56.5 -164.89 -56.5 -162.63 -56.5C-162.63 -56.5 -162.63 -56.5 -162.63 -56.5C-162.63 -40.15 -162.63 -31.07 -162.63 -29.25C-162.63 -29.25 -162.63 -29.25 -162.63 -29.25Z" id="a5fhnmYzTg"></path><path d="M-171.1 -35.5C-171.1 -35.5 -171.1 -35.5 -171.1 -35.5C-186.34 -35.5 -194.81 -35.5 -196.5 -35.5C-196.5 -35.5 -196.5 -35.5 -196.5 -35.5C-196.5 -48.1 -196.5 -55.1 -196.5 -56.5C-196.5 -56.5 -196.5 -56.5 -196.5 -56.5C-181.26 -56.5 -172.8 -56.5 -171.1 -56.5C-171.1 -56.5 -171.1 -56.5 -171.1 -56.5C-171.1 -43.9 -171.1 -36.9 -171.1 -35.5Z" id="hfZ9Z4tHa"></path><path d="M-171.1 -35.5C-171.1 -35.5 -171.1 -35.5 -171.1 -35.5C-186.34 -35.5 -194.81 -35.5 -196.5 -35.5C-196.5 -35.5 -196.5 -35.5 -196.5 -35.5C-196.5 -48.1 -196.5 -55.1 -196.5 -56.5C-196.5 -56.5 -196.5 -56.5 -196.5 -56.5C-181.26 -56.5 -172.8 -56.5 -171.1 -56.5C-171.1 -56.5 -171.1 -56.5 -171.1 -56.5C-171.1 -43.9 -171.1 -36.9 -171.1 -35.5Z" id="g1VxXqhgFu"></path><path d="M-171.1 -35.5C-171.1 -35.5 -171.1 -35.5 -171.1 -35.5C-186.34 -35.5 -194.81 -35.5 -196.5 -35.5C-196.5 -35.5 -196.5 -35.5 -196.5 -35.5C-196.5 -48.1 -196.5 -55.1 -196.5 -56.5C-196.5 -56.5 -196.5 -56.5 -196.5 -56.5C-181.26 -56.5 -172.8 -56.5 -171.1 -56.5C-171.1 -56.5 -171.1 -56.5 -171.1 -56.5C-171.1 -43.9 -171.1 -36.9 -171.1 -35.5Z" id="auM6Hgowi"></path><path d="M-171.1 -35.5C-171.1 -35.5 -171.1 -35.5 -171.1 -35.5C-186.34 -35.5 -194.81 -35.5 -196.5 -35.5C-196.5 -35.5 -196.5 -35.5 -196.5 -35.5C-196.5 -48.1 -196.5 -55.1 -196.5 -56.5C-196.5 -56.5 -196.5 -56.5 -196.5 -56.5C-181.26 -56.5 -172.8 -56.5 -171.1 -56.5C-171.1 -56.5 -171.1 -56.5 -171.1 -56.5C-171.1 -43.9 -171.1 -36.9 -171.1 -35.5Z" id="e1wR0eWHET"></path><path d="M282.5 660C282.5 601.09 282.5 568.36 282.5 561.82C407.5 561.82 470 507.82 470 414.55C470 306.55 345 267.27 220 120C95 267.27 -30 306.55 -30 414.55C-30 507.82 32.5 561.82 157.5 561.82C157.5 574.91 157.5 607.64 157.5 660C182.5 660 270 660 282.5 660Z" id="d53qK3efu6"></path><path d="M282.5 660C282.5 601.09 282.5 568.36 282.5 561.82C407.5 561.82 470 507.82 470 414.55C470 306.55 345 267.27 220 120C95 267.27 -30 306.55 -30 414.55C-30 507.82 32.5 561.82 157.5 561.82C157.5 574.91 157.5 607.64 157.5 660C182.5 660 270 660 282.5 660Z" id="iG0FJxlxp"></path><path d="M58.13 84.8C58.13 77.73 58.13 73.8 58.13 73.02C73.13 73.02 80.63 66.54 80.63 55.35C80.63 42.39 65.63 37.67 50.63 20C35.63 37.67 20.63 42.39 20.63 55.35C20.63 66.54 28.13 73.02 43.13 73.02C43.13 74.59 43.13 78.52 43.13 84.8C46.13 84.8 56.63 84.8 58.13 84.8Z" id="aPo1sPx07"></path><path d="M58.13 84.8C58.13 77.73 58.13 73.8 58.13 73.02C73.13 73.02 80.63 66.54 80.63 55.35C80.63 42.39 65.63 37.67 50.63 20C35.63 37.67 20.63 42.39 20.63 55.35C20.63 66.54 28.13 73.02 43.13 73.02C43.13 74.59 43.13 78.52 43.13 84.8C46.13 84.8 56.63 84.8 58.13 84.8Z" id="b30eT0CnR"></path></defs><g><g><g><use xlink:href="#a4aQzbcEB" opacity="1" fill="#000000" fill-opacity="0"></use><g><use xlink:href="#a4aQzbcEB" opacity="1" fill-opacity="0" stroke="#000000" stroke-width="1" stroke-opacity="0"></use></g></g><g><use xlink:href="#a1G9aorPX7" opacity="1" fill="#000000" fill-opacity="0"></use><g><use xlink:href="#a1G9aorPX7" opacity="1" fill-opacity="0" stroke="#000000" stroke-width="1" stroke-opacity="0"></use></g></g><g><use xlink:href="#e1bMq61IYG" opacity="1" fill="#000000" fill-opacity="0"></use><g><use xlink:href="#e1bMq61IYG" opacity="1" fill-opacity="0" stroke="#000000" stroke-width="1" stroke-opacity="0"></use></g></g><g><use xlink:href="#a2fWdpVLdn" opacity="1" fill="#000000" fill-opacity="0"></use><g><use xlink:href="#a2fWdpVLdn" opacity="1" fill-opacity="0" stroke="#000000" stroke-width="1" stroke-opacity="0"></use></g></g><g><use xlink:href="#a6LNlg1MEc" opacity="1" fill="#000000" fill-opacity="0"></use><g><use xlink:href="#a6LNlg1MEc" opacity="1" fill-opacity="0" stroke="#000000" stroke-width="1" stroke-opacity="0"></use></g></g><g><use xlink:href="#bFAa5EQ0T" opacity="1" fill="#000000" fill-opacity="0"></use><g><use xlink:href="#bFAa5EQ0T" opacity="1" fill-opacity="0" stroke="#000000" stroke-width="1" stroke-opacity="0"></use></g></g><g><use xlink:href="#d4wm1ED9a0" opacity="1" fill="#000000" fill-opacity="0"></use><g><use xlink:href="#d4wm1ED9a0" opacity="1" fill-opacity="0" stroke="#000000" stroke-width="1" stroke-opacity="0"></use></g></g><g><use xlink:href="#cqlqhDQqo" opacity="1" fill="#000000" fill-opacity="0"></use><g><use xlink:href="#cqlqhDQqo" opacity="1" fill-opacity="0" stroke="#000000" stroke-width="1" stroke-opacity="0"></use></g></g><g><use xlink:href="#b3gq666W6" opacity="1" fill="#000000" fill-opacity="0"></use><g><use xlink:href="#b3gq666W6" opacity="1" fill-opacity="0" stroke="#000000" stroke-width="1" stroke-opacity="0"></use></g></g><g><use xlink:href="#agsnB9Rvc" opacity="1" fill="#000000" fill-opacity="0"></use><g><use xlink:href="#agsnB9Rvc" opacity="1" fill-opacity="0" stroke="#000000" stroke-width="1" stroke-opacity="0"></use></g></g><g><use xlink:href="#bgyz6Ij6f" opacity="1" fill="#000000" fill-opacity="0"></use><g><use xlink:href="#bgyz6Ij6f" opacity="1" fill-opacity="0" stroke="#000000" stroke-width="1" stroke-opacity="0"></use></g></g><g><use xlink:href="#a2ovX7IYpE" opacity="1" fill="#000000" fill-opacity="0"></use><g><use xlink:href="#a2ovX7IYpE" opacity="1" fill-opacity="0" stroke="#000000" stroke-width="1" stroke-opacity="0"></use></g></g><g><use xlink:href="#f1BlSkrvhw" opacity="1" fill="#000000" fill-opacity="0"></use><g><use xlink:href="#f1BlSkrvhw" opacity="1" fill-opacity="0" stroke="#000000" stroke-width="1" stroke-opacity="0"></use></g></g><g><use xlink:href="#a24uEddGZL" opacity="1" fill="#000000" fill-opacity="0"></use><g><use xlink:href="#a24uEddGZL" opacity="1" fill-opacity="0" stroke="#000000" stroke-width="1" stroke-opacity="0"></use></g></g><g><use xlink:href="#b7EHGaKMO" opacity="1" fill="#000000" fill-opacity="0"></use><g><use xlink:href="#b7EHGaKMO" opacity="1" fill-opacity="0" stroke="#000000" stroke-width="1" stroke-opacity="0"></use></g></g><g><use xlink:href="#a9PLhgt6D" opacity="1" fill="#000000" fill-opacity="0"></use><g><use xlink:href="#a9PLhgt6D" opacity="1" fill-opacity="0" stroke="#000000" stroke-width="1" stroke-opacity="0"></use></g></g><g><use xlink:href="#b2g83F0CU5" opacity="1" fill="#000000" fill-opacity="0"></use><g><use xlink:href="#b2g83F0CU5" opacity="1" fill-opacity="0" stroke="#000000" stroke-width="1" stroke-opacity="0"></use></g></g><g><use xlink:href="#byHfnnndp" opacity="1" fill="#000000" fill-opacity="0"></use><g><use xlink:href="#byHfnnndp" opacity="1" fill-opacity="0" stroke="#000000" stroke-width="1" stroke-opacity="0"></use></g></g><g><use xlink:href="#b2pCuWk5V6" opacity="1" fill="#000000" fill-opacity="0"></use><g><use xlink:href="#b2pCuWk5V6" opacity="1" fill-opacity="0" stroke="#000000" stroke-width="1" stroke-opacity="0"></use></g></g><g><use xlink:href="#e1UPYWcxkb" opacity="1" fill="#000000" fill-opacity="0"></use><g><use xlink:href="#e1UPYWcxkb" opacity="1" fill-opacity="0" stroke="#000000" stroke-width="1" stroke-opacity="0"></use></g></g><g><g><filter id="shadow12740845" x="17.79" y="18" width="406.71" height="604" filterUnits="userSpaceOnUse" primitiveUnits="userSpaceOnUse"><feFlood></feFlood><feComposite in2="SourceAlpha" operator="in"></feComposite><feGaussianBlur stdDeviation="1.73"></feGaussianBlur><feOffset dx="0" dy="0" result="afterOffset"></feOffset><feFlood flood-color="#000000" flood-opacity="0.5"></feFlood><feComposite in2="afterOffset" operator="in"></feComposite><feMorphology operator="dilate" radius="1"></feMorphology><feComposite in2="SourceAlpha" operator="out"></feComposite></filter><path d="M412.5 111.15C412.5 210.92 412.5 429.08 412.5 528.85C412.5 573.67 376.43 610 331.94 610C271.51 610 170.79 610 110.36 610C65.86 610 29.79 573.67 29.79 528.85C29.79 429.08 29.79 210.92 29.79 111.15C29.79 66.33 65.86 30 110.36 30C170.79 30 271.51 30 331.94 30C376.43 30 412.5 66.33 412.5 111.15Z" id="h1a7P3rpP" fill="white" fill-opacity="1" filter="url(#shadow12740845)"></path></g><use xlink:href="#ddrkgyhD8" opacity="1" fill="#000000" fill-opacity="0"></use><g><use xlink:href="#ddrkgyhD8" opacity="1" fill-opacity="0" stroke="#000000" stroke-width="2" stroke-opacity="1"></use></g><g><filter id="shadow799466" x="17.79" y="18" width="406.71" height="604" filterUnits="userSpaceOnUse" primitiveUnits="userSpaceOnUse"><feFlood></feFlood><feComposite in2="SourceAlpha" operator="out"></feComposite><feGaussianBlur stdDeviation="1.73"></feGaussianBlur><feOffset dx="0" dy="0" result="afterOffset"></feOffset><feFlood flood-color="#000000" flood-opacity="0.5"></feFlood><feComposite in2="afterOffset" operator="in"></feComposite><feMorphology operator="dilate" radius="1"></feMorphology><feComposite in2="SourceAlpha" operator="in"></feComposite></filter><path d="M412.5 111.15C412.5 210.92 412.5 429.08 412.5 528.85C412.5 573.67 376.43 610 331.94 610C271.51 610 170.79 610 110.36 610C65.86 610 29.79 573.67 29.79 528.85C29.79 429.08 29.79 210.92 29.79 111.15C29.79 66.33 65.86 30 110.36 30C170.79 30 271.51 30 331.94 30C376.43 30 412.5 66.33 412.5 111.15Z" id="e1XBW5H2KI" fill="white" fill-opacity="1" filter="url(#shadow799466)"></path></g></g><g><g><filter id="shadow5546377" x="-12" y="-12" width="464" height="25.88" filterUnits="userSpaceOnUse" primitiveUnits="userSpaceOnUse"><feFlood></feFlood><feComposite in2="SourceAlpha" operator="in"></feComposite><feGaussianBlur stdDeviation="1.73"></feGaussianBlur><feOffset dx="0" dy="0" result="afterOffset"></feOffset><feFlood flood-color="#000000" flood-opacity="0.5"></feFlood><feComposite in2="afterOffset" operator="in"></feComposite><feMorphology operator="dilate" radius="1"></feMorphology><feComposite in2="SourceAlpha" operator="out"></feComposite></filter><path d="M0 0L440 0L440 1.88L0 1.88L0 0Z" id="f1c1T5RRg8" fill="white" fill-opacity="1" filter="url(#shadow5546377)"></path></g><use xlink:href="#a2rTbeqAG6" opacity="1" fill="#000000" fill-opacity="1"></use></g><g><g><filter id="shadow15245678" x="426.17" y="-12" width="25.83" height="664" filterUnits="userSpaceOnUse" primitiveUnits="userSpaceOnUse"><feFlood></feFlood><feComposite in2="SourceAlpha" operator="in"></feComposite><feGaussianBlur stdDeviation="1.73"></feGaussianBlur><feOffset dx="0" dy="0" result="afterOffset"></feOffset><feFlood flood-color="#000000" flood-opacity="0.5"></feFlood><feComposite in2="afterOffset" operator="in"></feComposite><feMorphology operator="dilate" radius="1"></feMorphology><feComposite in2="SourceAlpha" operator="out"></feComposite></filter><path d="M440 0L440 640L438.17 640L438.17 0L440 0Z" id="a88KAtiBNr" fill="white" fill-opacity="1" filter="url(#shadow15245678)"></path></g><use xlink:href="#b88GAk8Zp" opacity="1" fill="#000000" fill-opacity="1"></use></g><g><g><filter id="shadow4610207" x="-12" y="-12" width="25.83" height="664" filterUnits="userSpaceOnUse" primitiveUnits="userSpaceOnUse"><feFlood></feFlood><feComposite in2="SourceAlpha" operator="in"></feComposite><feGaussianBlur stdDeviation="1.73"></feGaussianBlur><feOffset dx="0" dy="0" result="afterOffset"></feOffset><feFlood flood-color="#000000" flood-opacity="0.5"></feFlood><feComposite in2="afterOffset" operator="in"></feComposite><feMorphology operator="dilate" radius="1"></feMorphology><feComposite in2="SourceAlpha" operator="out"></feComposite></filter><path d="M1.83 0L1.83 640L0 640L0 0L1.83 0Z" id="b14jCRkSHB" fill="white" fill-opacity="1" filter="url(#shadow4610207)"></path></g><use xlink:href="#b1RdvdHFb" opacity="1" fill="#000000" fill-opacity="1"></use></g><g><g><filter id="shadow7291685" x="-12" y="626.13" width="464" height="25.88" filterUnits="userSpaceOnUse" primitiveUnits="userSpaceOnUse"><feFlood></feFlood><feComposite in2="SourceAlpha" operator="in"></feComposite><feGaussianBlur stdDeviation="1.73"></feGaussianBlur><feOffset dx="0" dy="0" result="afterOffset"></feOffset><feFlood flood-color="#000000" flood-opacity="0.5"></feFlood><feComposite in2="afterOffset" operator="in"></feComposite><feMorphology operator="dilate" radius="1"></feMorphology><feComposite in2="SourceAlpha" operator="out"></feComposite></filter><path d="M0 638.13L440 638.13L440 640L0 640L0 638.13Z" id="a1GkThVRpw" fill="white" fill-opacity="1" filter="url(#shadow7291685)"></path></g><use xlink:href="#k6Q2fWN8CX" opacity="1" fill="#000000" fill-opacity="1"></use></g><g><use xlink:href="#b2ZoVA3CZs" opacity="1" fill="#000000" fill-opacity="0"></use><g><use xlink:href="#b2ZoVA3CZs" opacity="1" fill-opacity="0" stroke="#000000" stroke-width="1" stroke-opacity="0"></use></g></g><g><use xlink:href="#a2jFyIF6hF" opacity="1" fill="#000000" fill-opacity="0"></use><g><use xlink:href="#a2jFyIF6hF" opacity="1" fill-opacity="0" stroke="#000000" stroke-width="1" stroke-opacity="0"></use></g></g><g><use xlink:href="#a1BlUpMbi4" opacity="1" fill="#000000" fill-opacity="0"></use><g><use xlink:href="#a1BlUpMbi4" opacity="1" fill-opacity="0" stroke="#000000" stroke-width="1" stroke-opacity="0"></use></g></g><g><use xlink:href="#fvYjZf7MM" opacity="1" fill="#000000" fill-opacity="0"></use><g><use xlink:href="#fvYjZf7MM" opacity="1" fill-opacity="0" stroke="#000000" stroke-width="1" stroke-opacity="0"></use></g></g><g><use xlink:href="#a2Sa553Y" opacity="1" fill="#000000" fill-opacity="0"></use><g><use xlink:href="#a2Sa553Y" opacity="1" fill-opacity="0" stroke="#000000" stroke-width="1" stroke-opacity="0"></use></g></g><g><use xlink:href="#ai7iks86w" opacity="1" fill="#000000" fill-opacity="0"></use><g><use xlink:href="#ai7iks86w" opacity="1" fill-opacity="0" stroke="#000000" stroke-width="1" stroke-opacity="0"></use></g></g><g><use xlink:href="#a1mI0m3PL8" opacity="1" fill="#000000" fill-opacity="0"></use><g><use xlink:href="#a1mI0m3PL8" opacity="1" fill-opacity="0" stroke="#000000" stroke-width="1" stroke-opacity="0"></use></g></g><g><use xlink:href="#f896SM6alh" opacity="1" fill="#000000" fill-opacity="0"></use><g><use xlink:href="#f896SM6alh" opacity="1" fill-opacity="0" stroke="#000000" stroke-width="1" stroke-opacity="0"></use></g></g><g><use xlink:href="#b2V1EbQkTK" opacity="1" fill="#000000" fill-opacity="0"></use><g><use xlink:href="#b2V1EbQkTK" opacity="1" fill-opacity="0" stroke="#000000" stroke-width="1" stroke-opacity="0"></use></g></g><g><use xlink:href="#a1jsrTnWYQ" opacity="1" fill="#000000" fill-opacity="0"></use><g><use xlink:href="#a1jsrTnWYQ" opacity="1" fill-opacity="0" stroke="#000000" stroke-width="1" stroke-opacity="0"></use></g></g><g><use xlink:href="#b2bUQM9cZ2" opacity="1" fill="#000000" fill-opacity="0"></use><g><use xlink:href="#b2bUQM9cZ2" opacity="1" fill-opacity="0" stroke="#000000" stroke-width="1" stroke-opacity="0"></use></g></g><g><use xlink:href="#l2KfXBuqu" opacity="1" fill="#000000" fill-opacity="0"></use><g><use xlink:href="#l2KfXBuqu" opacity="1" fill-opacity="0" stroke="#000000" stroke-width="1" stroke-opacity="0"></use></g></g><g><use xlink:href="#h1Xi4YZLVd" opacity="1" fill="#000000" fill-opacity="0"></use><g><use xlink:href="#h1Xi4YZLVd" opacity="1" fill-opacity="0" stroke="#000000" stroke-width="1" stroke-opacity="0"></use></g></g><g><use xlink:href="#e14nkwqWJz" opacity="1" fill="#000000" fill-opacity="0"></use><g><use xlink:href="#e14nkwqWJz" opacity="1" fill-opacity="0" stroke="#000000" stroke-width="1" stroke-opacity="0"></use></g></g><g><use xlink:href="#a1TFbiTnVW" opacity="1" fill="#000000" fill-opacity="0"></use><g><use xlink:href="#a1TFbiTnVW" opacity="1" fill-opacity="0" stroke="#000000" stroke-width="1" stroke-opacity="0"></use></g></g><g><use xlink:href="#g4RjcimZ3z" opacity="1" fill="#000000" fill-opacity="0"></use><g><use xlink:href="#g4RjcimZ3z" opacity="1" fill-opacity="0" stroke="#000000" stroke-width="1" stroke-opacity="0"></use></g></g><g><use xlink:href="#b19zAq2JuX" opacity="1" fill="#000000" fill-opacity="0"></use><g><use xlink:href="#b19zAq2JuX" opacity="1" fill-opacity="0" stroke="#000000" stroke-width="1" stroke-opacity="0"></use></g></g><g><use xlink:href="#a5fhnmYzTg" opacity="1" fill="#000000" fill-opacity="0"></use><g><use xlink:href="#a5fhnmYzTg" opacity="1" fill-opacity="0" stroke="#000000" stroke-width="1" stroke-opacity="0"></use></g></g><g><use xlink:href="#hfZ9Z4tHa" opacity="1" fill="#000000" fill-opacity="0"></use><g><use xlink:href="#hfZ9Z4tHa" opacity="1" fill-opacity="0" stroke="#000000" stroke-width="1" stroke-opacity="0"></use></g></g><g><use xlink:href="#g1VxXqhgFu" opacity="1" fill="#000000" fill-opacity="0"></use><g><use xlink:href="#g1VxXqhgFu" opacity="1" fill-opacity="0" stroke="#000000" stroke-width="1" stroke-opacity="0"></use></g></g><g><use xlink:href="#auM6Hgowi" opacity="1" fill="#000000" fill-opacity="0"></use><g><use xlink:href="#auM6Hgowi" opacity="1" fill-opacity="0" stroke="#000000" stroke-width="1" stroke-opacity="0"></use></g></g><g><use xlink:href="#e1wR0eWHET" opacity="1" fill="#000000" fill-opacity="0"></use><g><use xlink:href="#e1wR0eWHET" opacity="1" fill-opacity="0" stroke="#000000" stroke-width="1" stroke-opacity="0"></use></g></g><g><use xlink:href="#d53qK3efu6" opacity="1" fill="#000000" fill-opacity="1"></use><g><use xlink:href="#d53qK3efu6" opacity="1" fill-opacity="0" stroke="#000000" stroke-width="1" stroke-opacity="0"></use></g></g><g><g><filter id="shadow13494438" x="-42" y="108" width="524" height="564" filterUnits="userSpaceOnUse" primitiveUnits="userSpaceOnUse"><feFlood></feFlood><feComposite in2="SourceAlpha" operator="in"></feComposite><feGaussianBlur stdDeviation="1.73"></feGaussianBlur><feOffset dx="0" dy="0" result="afterOffset"></feOffset><feFlood flood-color="#000000" flood-opacity="0.5"></feFlood><feComposite in2="afterOffset" operator="in"></feComposite><feMorphology operator="dilate" radius="1"></feMorphology><feComposite in2="SourceAlpha" operator="out"></feComposite></filter><path d="M282.5 660C282.5 601.09 282.5 568.36 282.5 561.82C407.5 561.82 470 507.82 470 414.55C470 306.55 345 267.27 220 120C95 267.27 -30 306.55 -30 414.55C-30 507.82 32.5 561.82 157.5 561.82C157.5 574.91 157.5 607.64 157.5 660C182.5 660 270 660 282.5 660Z" id="e1uSeDo4du" fill="white" fill-opacity="1" filter="url(#shadow13494438)"></path></g><use xlink:href="#iG0FJxlxp" opacity="1" fill="#000000" fill-opacity="0"></use><g><use xlink:href="#iG0FJxlxp" opacity="1" fill-opacity="0" stroke="#000000" stroke-width="1" stroke-opacity="1"></use></g></g><g><use xlink:href="#aPo1sPx07" opacity="1" fill="#000000" fill-opacity="1"></use><g><use xlink:href="#aPo1sPx07" opacity="1" fill-opacity="0" stroke="#000000" stroke-width="1" stroke-opacity="0"></use></g></g><g><g><filter id="shadow10786160" x="8.63" y="8" width="84" height="88.8" filterUnits="userSpaceOnUse" primitiveUnits="userSpaceOnUse"><feFlood></feFlood><feComposite in2="SourceAlpha" operator="in"></feComposite><feGaussianBlur stdDeviation="1.73"></feGaussianBlur><feOffset dx="0" dy="0" result="afterOffset"></feOffset><feFlood flood-color="#000000" flood-opacity="0.5"></feFlood><feComposite in2="afterOffset" operator="in"></feComposite><feMorphology operator="dilate" radius="1"></feMorphology><feComposite in2="SourceAlpha" operator="out"></feComposite></filter><path d="M58.13 84.8C58.13 77.73 58.13 73.8 58.13 73.02C73.13 73.02 80.63 66.54 80.63 55.35C80.63 42.39 65.63 37.67 50.63 20C35.63 37.67 20.63 42.39 20.63 55.35C20.63 66.54 28.13 73.02 43.13 73.02C43.13 74.59 43.13 78.52 43.13 84.8C46.13 84.8 56.63 84.8 58.13 84.8Z" id="ae3XbHkEH" fill="white" fill-opacity="1" filter="url(#shadow10786160)"></path></g><use xlink:href="#b30eT0CnR" opacity="1" fill="#000000" fill-opacity="0"></use><g><use xlink:href="#b30eT0CnR" opacity="1" fill-opacity="0" stroke="#000000" stroke-width="1" stroke-opacity="1"></use></g></g></g></g></svg>